SplineFontDB: 3.2
FontName: Helvetica
FullName: Helvetica
FamilyName: Helvetica
Weight: Medium
Copyright: Copyright (c) 1985, 1987, 1989, 1990 Adobe Systems Incorporated.  All rights reserved.Helvetica is a trademark of Linotype AG and/or its subsidiaries.
Version: 001.006
ItalicAngle: 0
UnderlinePosition: -100
UnderlineWidth: 50
Ascent: 775
Descent: 225
InvalidEm: 0
sfntRevision: 0x00010000
LayerCount: 2
Layer: 0 0 "Back" 1
Layer: 1 0 "Fore" 0
XUID: [1021 700 1229584016 31817]
UniqueID: 28352
StyleMap: 0x0040
FSType: 4
OS2Version: 2
OS2_WeightWidthSlopeOnly: 0
OS2_UseTypoMetrics: 0
CreationTime: 1035185257
ModificationTime: 1035185257
PfmFamily: 17
TTFWeight: 400
TTFWidth: 5
LineGap: 231
VLineGap: 0
Panose: 2 11 5 0 0 0 0 0 0 0
OS2TypoAscent: 775
OS2TypoAOffset: 0
OS2TypoDescent: -225
OS2TypoDOffset: 0
OS2TypoLinegap: 156
OS2WinAscent: 931
OS2WinAOffset: 0
OS2WinDescent: 225
OS2WinDOffset: 0
HheadAscent: 718
HheadAOffset: 0
HheadDescent: -207
HheadDOffset: 0
OS2SubXSize: 500
OS2SubYSize: 500
OS2SubXOff: 0
OS2SubYOff: 250
OS2SupXSize: 500
OS2SupYSize: 500
OS2SupXOff: 0
OS2SupYOff: 500
OS2StrikeYSize: 50
OS2StrikeYPos: 334
OS2CapHeight: 718
OS2XHeight: 523
OS2Vendor: 'ADBE'
OS2CodePages: 00000001.00000000
OS2UnicodeRanges: 800000af.4000004a.00000000.00000000
Lookup: 3 0 0 "nasin-nanpa-'rand' Randomize in Latin lookup 0" { "nasin-nanpa-'rand' Randomize in Latin lookup 0 subtable"  } ['rand' ('DFLT' <'dflt' 'latn' > 'latn' <'dflt' > ) ]
Lookup: 4 0 1 "nasin-nanpa-'liga' Standard Ligatures in Latin lookup 1" { "nasin-nanpa-'liga' Standard Ligatures in Latin lookup 1 subtable"  } ['liga' ('DFLT' <'dflt' 'latn' > 'latn' <'dflt' > ) ]
Lookup: 4 0 1 "nasin-nanpa-'liga' Standard Ligatures in Latin lookup 2" { "nasin-nanpa-'liga' Standard Ligatures in Latin lookup 2 subtable"  } ['liga' ('DFLT' <'dflt' 'latn' > 'latn' <'dflt' > ) ]

StartChar: exclam
Encoding: 33 33 2
Width: 278
Flags: MW
HStem: 0 102<90 187 90 187> 171 547<114 163 114 114> 698 20G<90 187 187 187>
VStem: 90 97<0 102 0 102 481 718>
LayerCount: 2
Fore
SplineSet
187 102 m 1x90
 187 0 l 1
 90 0 l 1
 90 102 l 1
 187 102 l 1x90
163 171 m 1x50
 114 171 l 1
 90 481 l 1
 90 718 l 1
 187 718 l 1
 187 481 l 1
 163 171 l 1x50
EndSplineSet
EndChar

StartChar: quotedbl
Encoding: 34 34 3
Width: 355
Flags: MW
HStem: 463 255<70 143 70 143 212 285 70 212>
VStem: 70 73<463 718 463 718> 212 73<463 718 463 718>
LayerCount: 2
Fore
SplineSet
70 463 m 1
 70 718 l 1
 143 718 l 1
 143 463 l 1
 70 463 l 1
212 463 m 1xa0
 212 718 l 1
 285 718 l 1
 285 463 l 1
 212 463 l 1xa0
EndSplineSet
EndChar

StartChar: numbersign
Encoding: 35 35 4
Width: 556
Flags: MW
HStem: 210 63<37 131 28 140 206 322 37 197 397 491> 415 63<65 159 56 168 65 226 235 350 426 520>
VStem: 28 501<210 478>
LayerCount: 2
Fore
SplineSet
388 210 m 1
 359 0 l 1
 293 0 l 1
 322 210 l 1
 197 210 l 1
 168 0 l 1
 102 0 l 1
 131 210 l 1
 28 210 l 1
 37 273 l 1
 140 273 l 1
 159 415 l 1
 56 415 l 1
 65 478 l 1
 168 478 l 1
 197 688 l 1
 264 688 l 1
 235 478 l 1
 359 478 l 1
 388 688 l 1
 455 688 l 1
 426 478 l 1
 529 478 l 1
 520 415 l 1
 417 415 l 1
 397 273 l 1
 500 273 l 1
 491 210 l 1
 388 210 l 1
350 415 m 1
 226 415 l 1
 206 273 l 1
 331 273 l 1
 350 415 l 1
EndSplineSet
EndChar

StartChar: dollar
Encoding: 36 36 5
Width: 556
Flags: MW
HStem: -19 73<253 253 300 341> 638 73<214.5 253 193.5 300>
VStem: 32 88<126.5 213> 46 88<486.5 552.5 486.5 570> 253 47<-115 -19 -115 -19 54 308 409 638 711 775> 418 85<521 521> 432 88<147.5 208>
LayerCount: 2
Fore
SplineSet
253 409 m 1xda
 253 638 l 1
 176 638 134 583 134 522 c 0
 134 451 193 419 253 409 c 1xda
300 308 m 1
 300 54 l 1
 389 54 432 115 432 180 c 0
 432 236 396 278 354 291 c 2
 300 308 l 1
503 521 m 1xdc
 418 521 l 1xdc
 411 575 392 621 300 638 c 1
 300 399 l 1
 437 359 520 335 520 196 c 0
 520 26 382 -19 300 -19 c 1
 300 -115 l 1
 253 -115 l 1
 253 -19 l 1
 129 -12 32 40 32 213 c 1
 120 213 l 1xea
 126 106 153 70 253 54 c 1
 253 319 l 1
 151 343 46 378 46 516 c 0
 46 624 134 711 253 711 c 1
 253 775 l 1
 300 775 l 1
 300 711 l 1
 363 706 497 682 503 521 c 1xdc
EndSplineSet
EndChar

StartChar: percent
Encoding: 37 37 6
Width: 889
Flags: MW
HStem: -7 70<652.5 708 652.5 727> 263 70<651.5 707.5> 355 70<182.5 238 182.5 257> 625 70<181.5 237.5>
VStem: 39 70<495 553 495 573.5> 310 70<498.5 554> 509 70<133 191 133 211.5> 780 70<136.5 192>
LayerCount: 2
Fore
SplineSet
39 526 m 0
 39 621 116 695 210 695 c 0
 303 695 380 620 380 526 c 0
 380 432 304 355 210 355 c 0
 116 355 39 430 39 526 c 0
109 526 m 0
 109 464 156 425 209 425 c 0
 267 425 310 471 310 526 c 0
 310 582 265 625 210 625 c 0
 153 625 109 580 109 526 c 0
509 164 m 0xdf
 509 259 586 333 680 333 c 0
 773 333 850 258 850 164 c 0
 850 70 774 -7 680 -7 c 0
 586 -7 509 68 509 164 c 0xdf
579 164 m 0
 579 102 626 63 679 63 c 0
 737 63 780 109 780 164 c 0
 780 220 735 263 680 263 c 0
 623 263 579 218 579 164 c 0
669 703 m 1
 273 -19 l 1
 219 -19 l 1
 614 703 l 1
 669 703 l 1
EndSplineSet
EndChar

StartChar: ampersand
Encoding: 38 38 7
Width: 667
Flags: MW
HStem: -15 76<241 293 241 307.5> 0 21G<531 645 531 531> 642 76<262 313.5>
VStem: 44 88<145.5 218.5 135 222> 130 85<540.5 576 540.5 599.5> 376 85<532.5 595>
LayerCount: 2
Fore
SplineSet
417 141 m 1xb4
 255 339 l 1
 178 290 132 257 132 180 c 0
 132 90 221 61 261 61 c 0
 325 61 379 89 417 141 c 1xb4
286 439 m 1xac
 324 465 376 502 376 563 c 0
 376 627 328 642 299 642 c 0
 225 642 215 588 215 564 c 0
 215 517 259 466 286 439 c 1xac
517 155 m 1
 645 0 l 1
 531 0 l 1x74
 464 82 l 1
 415 26 360 -15 255 -15 c 0
 76 -15 44 118 44 173 c 0xb4
 44 271 73 324 206 399 c 1
 154 463 130 496 130 558 c 0
 130 641 190 718 300 718 c 0
 413 718 461 642 461 570 c 0
 461 469 385 418 332 382 c 1
 463 226 l 1
 479 270 483 285 492 338 c 1
 575 338 l 1
 571 289 554 223 517 155 c 1
EndSplineSet
EndChar

StartChar: quoteright
Encoding: 8217 8217 8
Width: 222
Flags: MW
HStem: 463 255<53 157> 612 106<53 157 53 106>
VStem: 53 104<463 620 510 620 612 620 620 718 581.5 718> 106 51<595 612>
LayerCount: 2
Fore
SplineSet
53 612 m 1xa0
 53 718 l 1
 157 718 l 1
 157 620 l 2
 157 543 134 482 53 463 c 1
 53 510 l 1
 105 518 106 578 106 612 c 1
 53 612 l 1xa0
EndSplineSet
EndChar

StartChar: parenleft
Encoding: 40 40 9
Width: 333
Flags: MW
HStem: -207 21G<240 299 240 240> 713 20G<237 298 298 298>
VStem: 68 94<167.5 349>
LayerCount: 2
Fore
SplineSet
237 733 m 1
 298 733 l 1
 213 573 162 477 162 237 c 0
 162 72 219 -50 299 -207 c 1
 240 -207 l 1
 136 -51 68 74 68 261 c 0
 68 437 129 579 237 733 c 1
EndSplineSet
EndChar

StartChar: parenright
Encoding: 41 41 10
Width: 333
Flags: MW
HStem: -207 21G<35 96 35 35> 713 20G<34 93 93 93>
VStem: 171 94<177 358.5 177 371.5>
LayerCount: 2
Fore
SplineSet
96 -207 m 1
 35 -207 l 1
 120 -47 171 49 171 289 c 0
 171 454 114 576 34 733 c 1
 93 733 l 1
 197 577 265 452 265 265 c 0
 265 89 204 -53 96 -207 c 1
EndSplineSet
EndChar

StartChar: asterisk
Encoding: 42 42 11
Width: 389
Flags: MW
HStem: 431 287<129 224 164 259> 698 20G<164 224 224 224>
VStem: 39 310<591 591> 164 60<608 718 608 718>
LayerCount: 2
Fore
SplineSet
39 591 m 1xa0
 59 646 l 1
 164 608 l 1
 164 718 l 1
 224 718 l 1
 224 608 l 1
 329 646 l 1
 349 591 l 1
 241 557 l 1
 308 465 l 1
 259 431 l 1
 194 525 l 1
 129 431 l 1
 80 465 l 1
 147 557 l 1
 39 591 l 1xa0
EndSplineSet
EndChar

StartChar: plus
Encoding: 43 43 12
Width: 584
Flags: MW
HStem: 0 21G<256 329 256 256> 216 73<39 256 39 256 329 545>
VStem: 256 73<0 216 0 216 289 505>
LayerCount: 2
Fore
SplineSet
256 289 m 1
 256 505 l 1
 329 505 l 1
 329 289 l 1
 545 289 l 1
 545 216 l 1
 329 216 l 1
 329 0 l 1
 256 0 l 1
 256 216 l 1
 39 216 l 1
 39 289 l 1
 256 289 l 1
EndSplineSet
EndChar

StartChar: comma
Encoding: 44 44 13
Width: 278
Flags: MW
HStem: -147 46<87 87> 0 106<87 191 87 140>
VStem: 87 104<-147 8 -101 8 0 8 8 106 -60 106>
LayerCount: 2
Fore
SplineSet
87 0 m 1
 87 106 l 1
 191 106 l 1
 191 8 l 2
 191 -128 107 -144 87 -147 c 1
 87 -101 l 1
 129 -97 140 -47 140 0 c 1
 87 0 l 1
EndSplineSet
EndChar

StartChar: hyphen
Encoding: 45 45 14
AltUni2: 0000ad.ffffffff.0
Width: 333
Flags: MW
HStem: 232 90<44 289 44 289>
VStem: 44 245<232 322 232 322>
LayerCount: 2
Fore
SplineSet
289 322 m 1
 289 232 l 1
 44 232 l 1
 44 322 l 1
 289 322 l 1
EndSplineSet
EndChar

StartChar: period
Encoding: 46 46 15
Width: 278
Flags: MW
HStem: 0 106<87 191 87 191>
VStem: 87 104<0 106 0 106>
LayerCount: 2
Fore
SplineSet
191 106 m 1
 191 0 l 1
 87 0 l 1
 87 106 l 1
 191 106 l 1
EndSplineSet
EndChar

StartChar: slash
Encoding: 47 47 16
Width: 278
Flags: MW
HStem: -19 21G<-17 50 -17 -17> 717 20G<229 295 295 295>
VStem: -17 312
LayerCount: 2
Fore
SplineSet
295 737 m 1
 50 -19 l 1
 -17 -19 l 1
 229 737 l 1
 295 737 l 1
EndSplineSet
EndChar

StartChar: zero
Encoding: 48 48 17
Width: 556
Flags: MW
HStem: -19 79<227.5 328.5 227.5 379> 624 79<227.5 328.5>
VStem: 37 94<269 415> 425 94<269 415 269 430>
LayerCount: 2
Fore
SplineSet
425 342 m 0
 425 518 379 624 278 624 c 0
 177 624 131 518 131 342 c 0
 131 166 177 60 278 60 c 0
 379 60 425 166 425 342 c 0
519 342 m 0
 519 196 480 -19 278 -19 c 0
 76 -19 37 196 37 342 c 0
 37 488 76 703 278 703 c 0
 480 703 519 488 519 342 c 0
EndSplineSet
EndChar

StartChar: one
Encoding: 49 49 18
Width: 556
Flags: MW
HStem: 0 21G<265 359 265 265> 499 70<101 265 101 101> 683 20G<290 359 359 359>
VStem: 265 94<0 499 499 499>
LayerCount: 2
Fore
SplineSet
359 703 m 1
 359 0 l 1
 265 0 l 1
 265 499 l 1
 101 499 l 1
 101 569 l 1
 215 577 262 588 290 703 c 1
 359 703 l 1
EndSplineSet
EndChar

StartChar: two
Encoding: 50 50 19
Width: 556
Flags: MW
HStem: 0 83<125 507 125 507> 624 79<249 325.5>
VStem: 26 99<0 83> 44 88<451 565.5> 413 94<451 525>
LayerCount: 2
Fore
SplineSet
132 451 m 1xd8
 44 451 l 1xd8
 44 680 211 703 287 703 c 0
 409 703 507 624 507 493 c 0
 507 367 424 314 319 258 c 2
 246 218 l 2
 150 165 129 110 125 83 c 1
 507 83 l 1
 507 0 l 1
 26 0 l 1xe8
 31 146 97 224 191 279 c 2
 284 333 l 2
 359 376 413 405 413 497 c 0
 413 553 377 624 274 624 c 0
 141 624 135 500 132 451 c 1xd8
EndSplineSet
EndChar

StartChar: three
Encoding: 51 51 20
Width: 556
Flags: MW
HStem: -19 79<243 320 209.5 358.5> 325 73<262.5 294> 624 79<211.5 326.5>
VStem: 34 91<215 215> 51 86<473 524.5> 224 181<371 373 371 400 371 400> 404 91<473 534> 428 94<155.5 254 149.5 255>
LayerCount: 2
Fore
SplineSet
224 324 m 1xed
 224 400 l 1xed
 239 399 255 398 270 398 c 0
 338 398 404 425 404 513 c 0
 404 555 379 624 274 624 c 0
 149 624 141 522 137 473 c 1
 51 473 l 1
 51 576 93 703 278 703 c 0
 414 703 495 625 495 518 c 0xea
 495 428 443 385 405 373 c 1
 405 371 l 1
 473 349 522 301 522 207 c 0
 522 92 448 -19 269 -19 c 0
 217 -19 173 -6 139 12 c 0
 61 53 40 134 34 215 c 1
 125 215 l 1
 128 149 144 60 275 60 c 0
 365 60 428 115 428 196 c 0xf1
 428 314 324 325 264 325 c 0
 251 325 237 324 224 324 c 1xed
EndSplineSet
EndChar

StartChar: four
Encoding: 52 52 21
Width: 556
Flags: MW
HStem: 0 21G<332 420 332 332> 171 76<106 332 106 332 420 523> 683 20G<347 420 420 420>
VStem: 332 88<0 171 0 171 247 566 566 566>
LayerCount: 2
Fore
SplineSet
523 171 m 1
 420 171 l 1
 420 0 l 1
 332 0 l 1
 332 171 l 1
 25 171 l 1
 25 257 l 1
 347 703 l 1
 420 703 l 1
 420 247 l 1
 523 247 l 1
 523 171 l 1
330 566 m 1
 106 247 l 1
 332 247 l 1
 332 566 l 1
 330 566 l 1
EndSplineSet
EndChar

StartChar: five
Encoding: 53 53 22
Width: 556
Flags: MW
HStem: -19 76<232.5 317.5 232.5 369> 374 79<251.5 307.5> 602 86<177 177 177 475>
VStem: 420 94<189 268.5>
LayerCount: 2
Fore
SplineSet
177 602 m 1
 147 409 l 1
 177 432 220 453 283 453 c 0
 397 453 514 373 514 228 c 0
 514 150 479 -19 259 -19 c 0
 167 -19 49 18 32 175 c 1
 123 175 l 1
 132 93 193 57 272 57 c 0
 363 57 420 130 420 218 c 0
 420 319 351 374 264 374 c 0
 213 374 167 350 134 307 c 1
 58 311 l 1
 111 688 l 1
 475 688 l 1
 475 602 l 1
 177 602 l 1
EndSplineSet
EndChar

StartChar: six
Encoding: 54 54 23
Width: 556
Flags: MW
HStem: -19 79<246 322.5> 369 79<250 339.5> 624 79<227 334>
VStem: 38 91<364 401 364 404> 427 91<189 252>
LayerCount: 2
Fore
SplineSet
503 516 m 1
 417 516 l 1
 406 578 372 624 296 624 c 0
 158 624 129 438 129 364 c 1
 131 362 l 1
 153 400 202 448 298 448 c 0
 384 448 518 393 518 225 c 0
 518 153 499 101 451 49 c 0
 414 8 372 -19 273 -19 c 0
 219 -19 142 5 92 83 c 0
 50 149 38 235 38 327 c 0
 38 481 88 703 298 703 c 0
 379 703 494 659 503 516 c 1
141 216 m 0
 141 141 186 60 289 60 c 0
 373 60 427 126 427 221 c 0
 427 283 394 369 285 369 c 0
 188 369 141 299 141 216 c 0
EndSplineSet
EndChar

StartChar: seven
Encoding: 55 55 24
Width: 556
Flags: MW
HStem: 0 21G<137 234 137 137> 602 86<37 523 37 424>
VStem: 37 486<611 688 611 688 611 688>
LayerCount: 2
Fore
SplineSet
37 602 m 1
 37 688 l 1
 523 688 l 1
 523 611 l 1
 453 538 285 314 234 0 c 1
 137 0 l 1
 161 193 289 445 424 602 c 1
 37 602 l 1
EndSplineSet
EndChar

StartChar: eight
Encoding: 56 56 25
Width: 556
Flags: MW
HStem: -19 79<259.5 314 221 362> 330 76<244 314 244 317> 624 79<223 321.5>
VStem: 38 94<185 232.5 172 245> 62 91<480.5 536.5 480.5 546.5> 401 91<487 540.5> 423 94<146.5 229.5 146.5 240.5>
LayerCount: 2
Fore
SplineSet
492 522 m 0xec
 492 421 433 390 402 374 c 1
 497 334 517 256 517 203 c 0
 517 90 445 -19 279 -19 c 0
 240 -19 166 -9 110 35 c 0
 38 92 38 168 38 202 c 0xf2
 38 288 83 343 157 373 c 1
 97 396 62 444 62 510 c 0
 62 583 107 703 275 703 c 0
 431 703 492 604 492 522 c 0xec
277 330 m 0xf2
 178 330 132 265 132 200 c 0
 132 144 160 60 282 60 c 0
 346 60 423 83 423 193 c 0
 423 288 357 330 277 330 c 0xf2
276 406 m 0xec
 352 406 401 455 401 519 c 0
 401 562 373 624 270 624 c 0
 176 624 153 559 153 514 c 0
 153 447 212 406 276 406 c 0xec
EndSplineSet
EndChar

StartChar: nine
Encoding: 57 57 26
Width: 556
Flags: MW
HStem: -19 73<221 305 221 380> 235 79<246.5 295.5> 624 79<228 319.5>
VStem: 42 91<398.5 513 398.5 526> 50 88<135 169> 411 103<404.5 434 339.5 514>
LayerCount: 2
Fore
SplineSet
263 235 m 0xf4
 133 235 42 322 42 462 c 0xf4
 42 590 120 703 268 703 c 0
 492 703 514 491 514 377 c 0
 514 302 501 -19 259 -19 c 0
 94 -19 50 101 50 169 c 1
 138 169 l 1xec
 143 98 185 54 257 54 c 0
 353 54 404 135 426 317 c 1
 424 319 l 1
 398 265 328 235 263 235 c 0xf4
276 314 m 0
 322 314 411 335 411 474 c 0
 411 554 370 624 269 624 c 0
 187 624 133 560 133 466 c 0
 133 331 217 314 276 314 c 0
EndSplineSet
EndChar

StartChar: colon
Encoding: 58 58 27
Width: 278
Flags: MW
HStem: 0 106<87 191 87 191> 410 106<87 191 87 191>
VStem: 87 104<0 106 0 106 410 516>
LayerCount: 2
Fore
SplineSet
191 106 m 1
 191 0 l 1
 87 0 l 1
 87 106 l 1
 191 106 l 1
191 516 m 1x60
 191 410 l 1
 87 410 l 1
 87 516 l 1
 191 516 l 1x60
EndSplineSet
EndChar

StartChar: semicolon
Encoding: 59 59 28
Width: 278
Flags: MW
HStem: -147 46<87 87> 0 106<87 191 87 140> 410 106<87 191 87 191>
VStem: 87 104<-147 8 -101 8 0 8 8 106 -60 106 410 516>
LayerCount: 2
Fore
SplineSet
87 0 m 1
 87 106 l 1
 191 106 l 1
 191 8 l 2
 191 -128 107 -144 87 -147 c 1
 87 -101 l 1
 129 -97 140 -47 140 0 c 1
 87 0 l 1
191 410 m 1x30
 87 410 l 1
 87 516 l 1
 191 516 l 1
 191 410 l 1x30
EndSplineSet
EndChar

StartChar: less
Encoding: 60 60 29
Width: 584
Flags: MW
HStem: 11 484<536 536>
VStem: 48 488<11 288 11 288>
LayerCount: 2
Fore
SplineSet
536 91 m 1
 536 11 l 1
 48 218 l 1
 48 288 l 1
 536 495 l 1
 536 415 l 1
 146 253 l 1
 536 91 l 1
EndSplineSet
EndChar

StartChar: equal
Encoding: 61 61 30
Width: 584
Flags: MW
HStem: 115 73<39 545 39 545> 317 73<39 545 39 545>
VStem: 39 506<115 188 115 188 317 390 115 390>
LayerCount: 2
Fore
SplineSet
545 390 m 1
 545 317 l 1
 39 317 l 1
 39 390 l 1
 545 390 l 1
545 188 m 1
 545 115 l 1
 39 115 l 1
 39 188 l 1
 545 188 l 1
EndSplineSet
EndChar

StartChar: greater
Encoding: 62 62 31
Width: 584
Flags: MW
HStem: 11 484<48 48>
VStem: 48 488<11 288 91 288 218 495 218 495>
LayerCount: 2
Fore
SplineSet
48 415 m 1
 48 495 l 1
 536 288 l 1
 536 218 l 1
 48 11 l 1
 48 91 l 1
 438 253 l 1
 48 415 l 1
EndSplineSet
EndChar

StartChar: question
Encoding: 63 63 32
Width: 556
Flags: MW
HStem: 0 102<221 318 221 318> 651 76<253.5 325.5>
VStem: 56 88<493 514.5> 221 97<0 102 0 102> 223 88<183 240> 398 94<508.5 558>
LayerCount: 2
Fore
SplineSet
144 493 m 1xf4
 56 493 l 1
 59 561 62 625 135 681 c 0
 175 712 227 727 280 727 c 0
 392 727 492 659 492 531 c 0
 492 465 466 431 398 366 c 0
 335 305 309 282 311 183 c 1
 223 183 l 1xec
 223 297 248 326 318 398 c 0
 384 466 398 480 398 537 c 0
 398 579 374 651 277 651 c 0
 149 651 144 536 144 493 c 1xf4
318 102 m 1x90
 318 0 l 1
 221 0 l 1
 221 102 l 1
 318 102 l 1x90
EndSplineSet
EndChar

StartChar: at
Encoding: 64 64 33
Width: 1015
Flags: MW
HStem: -19 62<443.5 577.5 443.5 593> 136 72<437 466.5> 500 72<484.5 551> 675 62<435 599.5>
VStem: 147 73<266.5 443.5 266.5 465.5> 296 82<276.5 346.5 276.5 363.5> 565 75<199 243.5> 803 65<363.5 497>
LayerCount: 2
Fore
SplineSet
611 408 m 0
 611 457 573 500 529 500 c 0
 440 500 378 388 378 305 c 0
 378 248 412 208 462 208 c 0
 547 208 611 328 611 408 c 0
642 494 m 1
 662 556 l 1
 730 556 l 1
 692 416 640 257 640 230 c 0
 640 211 645 201 661 201 c 0
 729 201 803 310 803 417 c 0
 803 577 675 675 524 675 c 0
 346 675 220 532 220 355 c 0
 220 178 356 43 531 43 c 0
 624 43 717 87 774 157 c 1
 841 157 l 1
 776 48 657 -19 529 -19 c 0
 315 -19 147 148 147 361 c 0
 147 570 318 737 524 737 c 0
 709 737 868 607 868 425 c 0
 868 244 718 136 629 136 c 0
 595 136 567 156 565 199 c 1
 563 198 l 1
 534 167 490 136 443 136 c 0
 357 136 296 209 296 296 c 0
 296 431 388 572 527 572 c 0
 575 572 616 550 642 494 c 1
EndSplineSet
EndChar

StartChar: A
Encoding: 65 65 34
Width: 667
Flags: MW
HStem: 0 21G<14 114 14 14 548 548 548 654> 209 86<219 442 219 477 189 442>
VStem: 14 640<0 0>
LayerCount: 2
Fore
SplineSet
477 209 m 1
 189 209 l 1
 114 0 l 1
 14 0 l 1
 284 718 l 1
 394 718 l 1
 654 0 l 1
 548 0 l 1
 477 209 l 1
219 295 m 1
 442 295 l 1
 336 611 l 1
 334 611 l 1
 219 295 l 1
EndSplineSet
EndChar

StartChar: B
Encoding: 66 66 35
Width: 667
Flags: MW
HStem: 0 83<171 378 378 383> 335 79<171 346 171 346 346 362> 635 83<171 171 171 347>
VStem: 74 97<83 335 414 635> 496 97<513.5 563.5> 530 97<174 264.5>
LayerCount: 2
Fore
SplineSet
171 635 m 1xf4
 171 414 l 1
 346 414 l 2
 439 414 496 442 496 530 c 0xf8
 496 597 455 635 347 635 c 2
 171 635 l 1xf4
74 0 m 1
 74 718 l 1
 390 718 l 2
 524 718 593 635 593 537 c 0xf8
 593 490 576 424 497 387 c 1
 544 368 627 335 627 212 c 0xf4
 627 97 542 0 383 0 c 2
 74 0 l 1
171 335 m 1
 171 83 l 1
 378 83 l 2
 479 83 530 134 530 214 c 0xf4
 530 315 441 335 362 335 c 2
 171 335 l 1
EndSplineSet
EndChar

StartChar: C
Encoding: 67 67 36
Width: 722
Flags: MW
HStem: -19 86<293 394> 651 86<314 413.5>
VStem: 44 100<281.5 460.5 281.5 473.5>
LayerCount: 2
Fore
SplineSet
674 502 m 1
 580 502 l 1
 553 628 448 651 379 651 c 0
 249 651 144 555 144 366 c 0
 144 197 204 67 382 67 c 0
 445 67 554 97 587 264 c 1
 681 264 l 1
 641 -7 421 -19 367 -19 c 0
 204 -19 44 87 44 363 c 0
 44 584 170 737 379 737 c 0
 564 737 660 622 674 502 c 1
EndSplineSet
EndChar

StartChar: D
Encoding: 68 68 37
Width: 722
Flags: MW
HStem: 0 83<178 366 366 368> 635 83<178 178 178 359>
VStem: 81 97<83 635 83 718 83 718> 574 100<288.5 453.5>
LayerCount: 2
Fore
SplineSet
81 0 m 1
 81 718 l 1
 372 718 l 2
 559 718 674 576 674 369 c 0
 674 208 604 0 368 0 c 2
 81 0 l 1
178 635 m 1
 178 83 l 1
 366 83 l 2
 492 83 574 182 574 363 c 0
 574 544 491 635 359 635 c 2
 178 635 l 1
EndSplineSet
EndChar

StartChar: E
Encoding: 69 69 38
Width: 667
Flags: MW
HStem: 0 86<183 616 183 616> 326 86<183 576 183 576> 632 86<183 609 183 183>
VStem: 86 97<86 326 412 632>
LayerCount: 2
Fore
SplineSet
616 86 m 1
 616 0 l 1
 86 0 l 1
 86 718 l 1
 609 718 l 1
 609 632 l 1
 183 632 l 1
 183 412 l 1
 576 412 l 1
 576 326 l 1
 183 326 l 1
 183 86 l 1
 616 86 l 1
EndSplineSet
EndChar

StartChar: F
Encoding: 70 70 39
Width: 611
Flags: MW
HStem: 0 21G<86 183 86 86> 326 86<183 535 183 535> 632 86<183 583 183 183>
VStem: 86 97<0 326 0 412 412 632>
LayerCount: 2
Fore
SplineSet
183 326 m 1
 183 0 l 1
 86 0 l 1
 86 718 l 1
 583 718 l 1
 583 632 l 1
 183 632 l 1
 183 412 l 1
 535 412 l 1
 535 326 l 1
 183 326 l 1
EndSplineSet
EndChar

StartChar: G
Encoding: 71 71 40
Width: 778
Flags: MW
HStem: -19 83<319.5 405 291.5 430> 0 21G<641 704 641 641> 301 83<389 704 389 613> 651 86<318.5 422.5>
VStem: 48 100<327 452.5> 613 91<262.5 301>
LayerCount: 2
Fore
SplineSet
389 301 m 1xbc
 389 384 l 1
 704 384 l 1
 704 0 l 1
 641 0 l 1x7c
 618 93 l 1
 569 25 479 -19 381 -19 c 0
 258 -19 198 26 161 62 c 0
 51 166 48 289 48 365 c 0
 48 540 154 737 388 737 c 0
 522 737 671 661 692 500 c 1
 598 500 l 1
 567 625 462 651 383 651 c 0
 254 651 148 548 148 360 c 0
 148 214 196 64 387 64 c 0
 423 64 481 68 534 110 c 0
 597 160 613 224 613 301 c 1
 389 301 l 1xbc
EndSplineSet
EndChar

StartChar: H
Encoding: 72 72 41
Width: 722
Flags: MW
HStem: 0 21G<77 174 77 77 549 646 549 549> 335 86<174 549 174 549> 698 20G<77 174 174 174 549 646 646 646>
VStem: 77 97<0 335 0 421 421 718> 549 97<0 335 335 335 421 718 0 718>
LayerCount: 2
Fore
SplineSet
549 421 m 1
 549 718 l 1
 646 718 l 1
 646 0 l 1
 549 0 l 1
 549 335 l 1
 174 335 l 1
 174 0 l 1
 77 0 l 1
 77 718 l 1
 174 718 l 1
 174 421 l 1
 549 421 l 1
EndSplineSet
EndChar

StartChar: I
Encoding: 73 73 42
Width: 278
Flags: MW
HStem: 0 21G<91 188 91 91> 698 20G<91 188 188 188>
VStem: 91 97<0 718 0 718>
LayerCount: 2
Fore
SplineSet
188 718 m 1
 188 0 l 1
 91 0 l 1
 91 718 l 1
 188 718 l 1
EndSplineSet
EndChar

StartChar: J
Encoding: 74 74 43
Width: 500
Flags: MW
HStem: -19 83<182.5 261 182.5 269.5> 698 20G<331 428 428 428>
VStem: 17 91<160 181 181 231 138 231> 331 97<188 194 194 718>
LayerCount: 2
Fore
SplineSet
17 231 m 1
 108 231 l 1
 108 181 l 2
 108 95 149 64 216 64 c 0
 306 64 331 118 331 188 c 2
 331 718 l 1
 428 718 l 1
 428 194 l 2
 428 26 318 -19 221 -19 c 0
 54 -19 17 93 17 160 c 2
 17 231 l 1
EndSplineSet
EndChar

StartChar: K
Encoding: 75 75 44
Width: 667
Flags: MW
HStem: 0 21G<76 173 76 76 537 537 537 663> 698 20G<76 173 173 173 521 655 655 655>
VStem: 76 97<0 252 370 718>
LayerCount: 2
Fore
SplineSet
173 252 m 1
 173 0 l 1
 76 0 l 1
 76 718 l 1
 173 718 l 1
 173 370 l 1
 521 718 l 1
 655 718 l 1
 356 428 l 1
 663 0 l 1
 537 0 l 1
 286 360 l 1
 173 252 l 1
EndSplineSet
EndChar

StartChar: L
Encoding: 76 76 45
Width: 556
Flags: MW
HStem: 0 86<173 537 173 537> 698 20G<76 173 173 173>
VStem: 76 97<86 718 86 718 86 718>
LayerCount: 2
Fore
SplineSet
173 718 m 1
 173 86 l 1
 537 86 l 1
 537 0 l 1
 76 0 l 1
 76 718 l 1
 173 718 l 1
EndSplineSet
EndChar

StartChar: M
Encoding: 77 77 46
Width: 833
Flags: MW
HStem: 0 111<417 419 417 465 369 419> 603 115<667 669 667 667>
VStem: 73 94<0 424> 667 94<0 424 424 434.5 603 603>
LayerCount: 2
Fore
SplineSet
761 0 m 1
 667 0 l 1
 667 424 l 2
 667 445 669 536 669 603 c 1
 667 603 l 1
 465 0 l 1
 369 0 l 1
 167 602 l 1
 165 602 l 1
 165 536 167 445 167 424 c 2
 167 0 l 1
 73 0 l 1
 73 718 l 1
 212 718 l 1
 417 111 l 1
 419 111 l 1
 623 718 l 1
 761 718 l 1
 761 0 l 1
EndSplineSet
EndChar

StartChar: N
Encoding: 78 78 47
Width: 722
Flags: MW
HStem: 0 138<550 552 550 646 537 552> 580 138<170 172 170 170>
VStem: 76 94<0 580 0 718> 552 94<138 718 0 718>
LayerCount: 2
Fore
SplineSet
552 138 m 1
 552 718 l 1
 646 718 l 1
 646 0 l 1
 537 0 l 1
 172 580 l 1
 170 580 l 1
 170 0 l 1
 76 0 l 1
 76 718 l 1
 191 718 l 1
 550 138 l 1
 552 138 l 1
EndSplineSet
EndChar

StartChar: O
Encoding: 79 79 48
Width: 778
Flags: MW
HStem: -19 86<311 467 311 523> 651 86<311 467>
VStem: 39 100<281.5 436.5> 639 100<281.5 436.5 281.5 443.5>
LayerCount: 2
Fore
SplineSet
639 359 m 0
 639 528 545 651 389 651 c 0
 233 651 139 528 139 359 c 0
 139 190 233 67 389 67 c 0
 545 67 639 190 639 359 c 0
739 359 m 0
 739 204 657 -19 389 -19 c 0
 121 -19 39 204 39 359 c 0
 39 514 121 737 389 737 c 0
 657 737 739 514 739 359 c 0
EndSplineSet
EndChar

StartChar: P
Encoding: 80 80 49
Width: 667
Flags: MW
HStem: 0 21G<86 183 86 86> 303 83<183 376 183 376 376 409> 635 83<183 183 183 380>
VStem: 86 97<0 303 386 635> 522 100<466.5 560.5>
LayerCount: 2
Fore
SplineSet
183 635 m 1
 183 386 l 1
 376 386 l 2
 463 386 522 418 522 515 c 0
 522 606 460 635 380 635 c 2
 183 635 l 1
183 303 m 1
 183 0 l 1
 86 0 l 1
 86 718 l 1
 409 718 l 2
 542 718 622 632 622 516 c 0
 622 416 565 303 409 303 c 2
 183 303 l 1
EndSplineSet
EndChar

StartChar: Q
Encoding: 81 81 50
Width: 778
Flags: MW
HStem: -19 21G -19 86<311 409 311 427> 651 86<311 467>
VStem: 39 100<281.5 436.5> 639 100<313.5 436.5 313.5 443.5>
LayerCount: 2
Fore
SplineSet
420 148 m 1x78
 469 208 l 1
 560 137 l 1
 611 188 639 267 639 359 c 0
 639 528 545 651 389 651 c 0
 233 651 139 528 139 359 c 0
 139 190 233 67 389 67 c 0
 429 67 465 75 495 90 c 1
 420 148 l 1x78
733 2 m 1xb8
 684 -56 l 1xb8
 574 29 l 1
 527 -1 465 -19 389 -19 c 0x78
 121 -19 39 204 39 359 c 0
 39 514 121 737 389 737 c 0
 657 737 739 514 739 359 c 0
 739 268 711 155 635 78 c 1
 733 2 l 1xb8
EndSplineSet
EndChar

StartChar: R
Encoding: 82 82 51
Width: 722
Flags: MW
HStem: 0 16<565 684> 308 83<185 410 185 410 410 420> 635 83<185 185 185 420 420 427>
VStem: 88 97<0 308 0 391 391 635> 548 97 556 100<472 570.5>
LayerCount: 2
Fore
SplineSet
185 308 m 1xf4
 185 0 l 1
 88 0 l 1
 88 718 l 1
 420 718 l 2
 538 718 656 677 656 525 c 0xf4
 656 419 602 380 556 353 c 1
 597 336 638 318 642 218 c 2
 648 88 l 2
 649 48 654 33 684 16 c 1
 684 0 l 1
 565 0 l 1
 551 44 548 153 548 180 c 0xf8
 548 239 536 308 420 308 c 2
 185 308 l 1xf4
185 635 m 1
 185 391 l 1
 410 391 l 2
 481 391 556 409 556 515 c 0
 556 626 475 635 427 635 c 2
 185 635 l 1
EndSplineSet
EndChar

StartChar: S
Encoding: 83 83 52
Width: 667
Flags: MW
HStem: -19 83<292 373 292 400.5> 654 83<300.5 371.5>
VStem: 49 91<198.5 232> 73 94<497.5 571> 509 91<508 508> 526 94<133.5 222.5>
LayerCount: 2
Fore
SplineSet
600 508 m 1xd8
 509 508 l 1
 504 619 412 654 331 654 c 0
 270 654 167 637 167 528 c 0
 167 467 210 447 252 437 c 2xd8
 457 390 l 2
 550 368 620 312 620 198 c 0
 620 28 462 -19 339 -19 c 0
 206 -19 154 21 122 50 c 0
 61 105 49 165 49 232 c 1
 140 232 l 1
 140 102 246 64 338 64 c 0
 408 64 526 82 526 185 c 0xe4
 526 260 491 284 373 312 c 2
 226 346 l 2
 179 357 73 390 73 515 c 0
 73 627 146 737 320 737 c 0
 571 737 596 587 600 508 c 1xd8
EndSplineSet
EndChar

StartChar: T
Encoding: 84 84 53
Width: 611
Flags: MW
HStem: 0 21G<257 354 257 257> 632 86<14 597 14 257 354 354 354 597>
VStem: 257 97<0 632 0 632>
LayerCount: 2
Fore
SplineSet
14 632 m 1
 14 718 l 1
 597 718 l 1
 597 632 l 1
 354 632 l 1
 354 0 l 1
 257 0 l 1
 257 632 l 1
 14 632 l 1
EndSplineSet
EndChar

StartChar: U
Encoding: 85 85 54
Width: 722
Flags: MW
HStem: -19 86<314.5 402.5 314.5 453.5> 698 20G<79 176 176 176 547 644 644 644>
VStem: 79 97<239 266 266 718> 547 97<264 718>
LayerCount: 2
Fore
SplineSet
547 718 m 1
 644 718 l 1
 644 252 l 2
 644 105 552 -19 355 -19 c 0
 162 -19 79 105 79 239 c 2
 79 718 l 1
 176 718 l 1
 176 266 l 2
 176 110 271 67 358 67 c 0
 447 67 547 108 547 264 c 2
 547 718 l 1
EndSplineSet
EndChar

StartChar: V
Encoding: 86 86 55
Width: 667
Flags: MW
HStem: 0 106<333 335 333 385 282 335> 698 20G<20 128 128 128 538 647 647 647>
VStem: 20 627<718 718>
LayerCount: 2
Fore
SplineSet
335 106 m 1
 538 718 l 1
 647 718 l 1
 385 0 l 1
 282 0 l 1
 20 718 l 1
 128 718 l 1
 333 106 l 1
 335 106 l 1
EndSplineSet
EndChar

StartChar: W
Encoding: 87 87 56
Width: 944
Flags: MW
HStem: 0 134<255 257 255 305 203 257 685 687> 595 123<471 471 471 473>
VStem: 16 912<718 718>
LayerCount: 2
Fore
SplineSet
471 595 m 1
 305 0 l 1
 203 0 l 1
 16 718 l 1
 121 718 l 1
 255 134 l 1
 257 134 l 1
 418 718 l 1
 524 718 l 1
 685 134 l 1
 687 134 l 1
 821 718 l 1
 928 718 l 1
 739 0 l 1
 637 0 l 1
 473 595 l 1
 471 595 l 1
EndSplineSet
EndChar

StartChar: X
Encoding: 88 88 57
Width: 667
Flags: MW
HStem: 0 21G<19 136 19 19 528 648 528 528> 698 20G<35 157 157 157 521 637 637 637>
VStem: 19 629<0 0>
LayerCount: 2
Fore
SplineSet
396 368 m 1
 648 0 l 1
 528 0 l 1
 335 295 l 1
 136 0 l 1
 19 0 l 1
 276 368 l 1
 35 718 l 1
 157 718 l 1
 339 443 l 1
 521 718 l 1
 637 718 l 1
 396 368 l 1
EndSplineSet
EndChar

StartChar: Y
Encoding: 89 89 58
Width: 667
Flags: MW
HStem: 0 21G<285 382 285 285> 698 20G<14 127 127 127 539 653 653 653>
VStem: 285 97<0 289 0 289>
LayerCount: 2
Fore
SplineSet
382 289 m 1
 382 0 l 1
 285 0 l 1
 285 289 l 1
 14 718 l 1
 127 718 l 1
 333 373 l 1
 539 718 l 1
 653 718 l 1
 382 289 l 1
EndSplineSet
EndChar

StartChar: Z
Encoding: 90 90 59
Width: 611
Flags: MW
HStem: 0 86<146 588 146 588> 632 86<56 463 56 588>
VStem: 23 565<0 81 81 81>
LayerCount: 2
Fore
SplineSet
588 86 m 1
 588 0 l 1
 23 0 l 1
 23 81 l 1
 463 632 l 1
 56 632 l 1
 56 718 l 1
 588 718 l 1
 588 634 l 1
 146 86 l 1
 588 86 l 1
EndSplineSet
EndChar

StartChar: bracketleft
Encoding: 91 91 60
Width: 278
Flags: MW
HStem: -196 71<142 250 142 250> 651 71<142 142 142 250>
VStem: 63 79<-125 651 -125 722 -125 722>
LayerCount: 2
Fore
SplineSet
142 651 m 1
 142 -125 l 1
 250 -125 l 1
 250 -196 l 1
 63 -196 l 1
 63 722 l 1
 250 722 l 1
 250 651 l 1
 142 651 l 1
EndSplineSet
EndChar

StartChar: backslash
Encoding: 92 92 61
Width: 278
Flags: MW
HStem: -19 21G<228 228 228 295> 717 20G<-17 49 49 49>
VStem: -17 312
LayerCount: 2
Fore
SplineSet
228 -19 m 1
 -17 737 l 1
 49 737 l 1
 295 -19 l 1
 228 -19 l 1
EndSplineSet
EndChar

StartChar: bracketright
Encoding: 93 93 62
Width: 278
Flags: MW
HStem: -196 71<28 136 28 215 28 136> 651 71<28 136 28 215>
VStem: 136 79<-125 651 651 651>
LayerCount: 2
Fore
SplineSet
136 -125 m 1
 136 651 l 1
 28 651 l 1
 28 722 l 1
 215 722 l 1
 215 -196 l 1
 28 -196 l 1
 28 -125 l 1
 136 -125 l 1
EndSplineSet
EndChar

StartChar: asciicircum
Encoding: 94 94 63
Width: 469
Flags: MW
HStem: 608 80<235 235>
VStem: -14 497<264 264>
LayerCount: 2
Fore
SplineSet
483 264 m 1
 406 264 l 1
 235 608 l 1
 64 264 l 1
 -14 264 l 1
 199 688 l 1
 271 688 l 1
 483 264 l 1
EndSplineSet
EndChar

StartChar: underscore
Encoding: 95 95 64
Width: 556
Flags: MW
HStem: -125 50<0 556 0 556>
VStem: 0 556<-125 -75 -125 -75>
LayerCount: 2
Fore
SplineSet
556 -125 m 1
 0 -125 l 1
 0 -75 l 1
 556 -75 l 1
 556 -125 l 1
EndSplineSet
EndChar

StartChar: quoteleft
Encoding: 8216 8216 65
Width: 222
Flags: MW
HStem: 470 106<116 169 116 169 65 169> 470 255<65 169 65 169> 705 20G<169 169>
VStem: 65 51<470 593 576 593 576 606.5> 65 104<470 568 568 576 470 606.5>
LayerCount: 2
Fore
SplineSet
169 576 m 1x48
 169 470 l 1
 65 470 l 1
 65 568 l 2
 65 645 88 706 169 725 c 1
 169 678 l 1
 117 670 116 610 116 576 c 1
 169 576 l 1x48
EndSplineSet
EndChar

StartChar: a
Encoding: 97 97 66
Width: 556
Flags: MW
HStem: -15 73<189 251> -10 70<443 505> 465 73<213.5 299 213.5 304.5>
VStem: 36 91<120.5 158> 62 81<364 364> 384 88<181 267 267 267>
LayerCount: 2
Fore
SplineSet
143 364 m 1xac
 62 364 l 1
 66 489 149 538 278 538 c 0
 320 538 472 526 472 392 c 2
 472 91 l 2
 472 69 483 60 501 60 c 0
 509 60 520 62 530 64 c 1
 530 0 l 1
 515 -4 502 -10 482 -10 c 0x6c
 404 -10 392 30 389 70 c 1
 355 33 302 -15 200 -15 c 0
 104 -15 36 46 36 136 c 0xb4
 36 180 49 282 195 300 c 2
 340 318 l 2
 361 320 386 328 386 380 c 0
 386 435 346 465 263 465 c 0
 163 465 149 404 143 364 c 1xac
384 181 m 2
 384 267 l 1
 370 256 348 248 239 234 c 0
 196 228 127 215 127 149 c 0
 127 92 156 58 222 58 c 0xb4
 304 58 384 111 384 181 c 2
EndSplineSet
EndChar

StartChar: b
Encoding: 98 98 67
Width: 556
Flags: MW
HStem: -15 76<257 333 257 376> 0 61 459 79<299 351> 698 20G<58 146 146 146>
VStem: 58 88<457 718 457 718 457 718> 426 91<214.5 296.5>
LayerCount: 2
Fore
SplineSet
141 0 m 1x7c
 58 0 l 1x7c
 58 718 l 1
 146 718 l 1
 146 457 l 1
 148 457 l 1
 186 512 238 537 299 538 c 0
 438 538 517 424 517 277 c 0
 517 152 465 -15 287 -15 c 0
 198 -15 161 36 143 65 c 1
 141 65 l 1xbc
 141 0 l 1x7c
426 263 m 0
 426 330 419 459 283 459 c 0
 156 459 142 322 142 237 c 0
 142 98 229 61 285 61 c 0xbc
 381 61 426 148 426 263 c 0
EndSplineSet
EndChar

StartChar: c
Encoding: 99 99 68
Width: 500
Flags: MW
HStem: -15 76<206.5 296.5 206.5 340.5> 459 79<213.5 305>
VStem: 30 94<217 308.5 217 328>
LayerCount: 2
Fore
SplineSet
477 347 m 1
 392 347 l 1
 381 417 342 459 268 459 c 0
 159 459 124 355 124 262 c 0
 124 172 146 61 267 61 c 0
 326 61 377 105 392 185 c 1
 477 185 l 1
 468 102 417 -15 264 -15 c 0
 117 -15 30 96 30 247 c 0
 30 409 108 538 281 538 c 0
 418 538 470 438 477 347 c 1
EndSplineSet
EndChar

StartChar: d
Encoding: 100 100 69
Width: 556
Flags: MW
HStem: -15 76<219 290.5> 0 21G<416 499 416 416> 459 79<201 300.5 183.5 332.5> 698 20G<411 499 499 499>
VStem: 35 91<214.5 296.5 205.5 350.5> 411 88<456 718 0 718>
LayerCount: 2
Fore
SplineSet
499 718 m 1xbc
 499 0 l 1
 416 0 l 1x7c
 416 72 l 1
 414 72 l 1
 376 1 316 -15 265 -15 c 0
 87 -15 35 152 35 277 c 0
 35 424 114 538 253 538 c 0
 348 538 388 479 409 449 c 1
 411 456 l 1
 411 718 l 1
 499 718 l 1xbc
126 263 m 0xbc
 126 148 171 61 267 61 c 0
 323 61 410 98 410 237 c 0
 410 322 396 459 269 459 c 0
 133 459 126 330 126 263 c 0xbc
EndSplineSet
EndChar

StartChar: e
Encoding: 101 101 70
Width: 556
Flags: MW
HStem: -15 76<235.5 316> 233 70<134 425 134 516 134 425> 459 79<238.5 332.5>
VStem: 40 94<178.5 233 303 328> 421 88<164 164> 425 91<303 303>
LayerCount: 2
Fore
SplineSet
421 164 m 1xf4
 509 164 l 1
 506 139 482 65 416 21 c 0xf8
 392 5 358 -15 274 -15 c 0
 127 -15 40 96 40 247 c 0
 40 409 118 538 291 538 c 0
 442 538 516 418 516 233 c 1
 134 233 l 1
 134 124 185 61 286 61 c 0
 369 61 418 125 421 164 c 1xf4
134 303 m 1
 425 303 l 1xf4
 420 384 386 459 279 459 c 0
 198 459 134 384 134 303 c 1
EndSplineSet
EndChar

StartChar: f
Encoding: 102 102 71
Width: 278
Flags: MW
HStem: 0 21G<86 174 86 86> 450 73<14 86 14 86 174 262> 649 79<207 228.5 179 231.5>
VStem: 86 88<0 450 0 450 523 588>
LayerCount: 2
Fore
SplineSet
262 450 m 1
 174 450 l 1
 174 0 l 1
 86 0 l 1
 86 450 l 1
 14 450 l 1
 14 523 l 1
 86 523 l 1
 86 613 l 2
 86 692 136 728 222 728 c 0
 235 728 248 727 262 726 c 1
 262 647 l 1
 251 648 237 649 226 649 c 0
 188 649 174 630 174 588 c 2
 174 523 l 1
 262 523 l 1
 262 450 l 1
EndSplineSet
EndChar

StartChar: g
Encoding: 103 103 72
Width: 556
Flags: MW
HStem: -220 73<251.5 338 251.5 377> -15 76<224 300 224 305> 459 64 459 79<206 305.5 188.5 337.5>
VStem: 40 91<214.5 296.5 205.5 350.5> 411 88<37 43 43 59 59 59>
LayerCount: 2
Fore
SplineSet
131 263 m 0xdc
 131 148 176 61 272 61 c 0
 328 61 415 98 415 237 c 0
 415 322 401 459 274 459 c 0
 138 459 131 330 131 263 c 0xdc
499 523 m 1xec
 499 43 l 2
 499 -32 498 -220 256 -220 c 0
 194 -220 73 -203 56 -64 c 1
 144 -64 l 1
 160 -147 241 -147 262 -147 c 0
 414 -147 411 -25 411 37 c 2
 411 59 l 1
 409 59 l 1
 409 55 l 1
 386 18 340 -15 270 -15 c 0
 92 -15 40 152 40 277 c 0
 40 424 119 538 258 538 c 0
 353 538 393 479 414 449 c 1
 416 449 l 1xdc
 416 523 l 1
 499 523 l 1xec
EndSplineSet
EndChar

StartChar: h
Encoding: 104 104 73
Width: 556
Flags: MW
HStem: 0 21G<65 153 65 65 403 491 403 403> 459 79<266 341> 698 20G<65 153 153 153>
VStem: 65 88<0 285 453 718> 403 88<0 342 342 356 0 377.5>
LayerCount: 2
Fore
SplineSet
491 356 m 2
 491 0 l 1
 403 0 l 1
 403 342 l 2
 403 413 383 459 299 459 c 0
 227 459 153 417 153 285 c 2
 153 0 l 1
 65 0 l 1
 65 718 l 1
 153 718 l 1
 153 453 l 1
 155 453 l 1
 180 486 224 538 308 538 c 0
 389 538 491 505 491 356 c 2
EndSplineSet
EndChar

StartChar: i
Encoding: 105 105 74
Width: 222
Flags: MW
HStem: 0 21G<67 155 67 67> 503 20G<67 155 155 155> 618 100<67 155 67 155>
VStem: 67 88<0 523 0 523 618 718>
LayerCount: 2
Fore
SplineSet
155 523 m 1
 155 0 l 1
 67 0 l 1
 67 523 l 1
 155 523 l 1
155 618 m 1x30
 67 618 l 1
 67 718 l 1
 155 718 l 1
 155 618 l 1x30
EndSplineSet
EndChar

StartChar: j
Encoding: 106 106 75
Width: 222
Flags: MW
HStem: -210 79<15 28 -16 86> 503 20G<67 155 155 155> 618 100<67 155 67 155>
VStem: 67 88<-67 523 618 718>
LayerCount: 2
Fore
SplineSet
155 523 m 1
 155 -77 l 2
 155 -122 151 -210 21 -210 c 0
 9 -210 -3 -209 -16 -207 c 1
 -16 -131 l 1
 2 -131 l 2
 54 -131 67 -126 67 -67 c 2
 67 523 l 1
 155 523 l 1
155 718 m 1x30
 155 618 l 1
 67 618 l 1
 67 718 l 1
 155 718 l 1x30
EndSplineSet
EndChar

StartChar: k
Encoding: 107 107 76
Width: 500
Flags: MW
HStem: 0 21G<67 152 67 67 388 501 388 388> 503 20G<377 489 489 489> 698 20G<67 152 152 152>
VStem: 67 85<0 198 302 718>
LayerCount: 2
Fore
SplineSet
289 328 m 1
 501 0 l 1
 388 0 l 1
 225 264 l 1
 152 198 l 1
 152 0 l 1
 67 0 l 1
 67 718 l 1
 152 718 l 1
 152 302 l 1
 377 523 l 1
 489 523 l 1
 289 328 l 1
EndSplineSet
EndChar

StartChar: l
Encoding: 108 108 77
Width: 222
Flags: MW
HStem: 0 21G<67 155 67 67> 698 20G<67 155 155 155>
VStem: 67 88<0 718 0 718>
LayerCount: 2
Fore
SplineSet
155 718 m 1
 155 0 l 1
 67 0 l 1
 67 718 l 1
 155 718 l 1
EndSplineSet
EndChar

StartChar: m
Encoding: 109 109 78
Width: 833
Flags: MW
HStem: 0 21G<65 65 65 153 373 373 373 461 681 681 681 769> 459 64 459 79<266 323.5 566.5 621.5>
VStem: 65 88<0 285 0 523> 373 88<0 319 0 362 0 384> 681 88<0 338 338 362 0 374>
CounterMasks: 1 1c
LayerCount: 2
Fore
SplineSet
65 0 m 1xbc
 65 523 l 1
 148 523 l 1xdc
 148 449 l 1
 150 449 l 1
 169 477 214 538 308 538 c 0
 402 538 432 481 447 453 c 1
 491 502 526 538 607 538 c 0
 663 538 769 509 769 362 c 2
 769 0 l 1
 681 0 l 1
 681 338 l 2
 681 410 659 459 584 459 c 0
 510 459 461 389 461 319 c 2
 461 0 l 1
 373 0 l 1
 373 362 l 2
 373 406 356 459 291 459 c 0
 241 459 153 427 153 285 c 2
 153 0 l 1
 65 0 l 1xbc
EndSplineSet
EndChar

StartChar: n
Encoding: 110 110 79
Width: 556
Flags: MW
HStem: 0 21G<65 153 65 65 403 491 403 403> 459 64 459 79<266 334>
VStem: 65 88<0 285 0 523> 403 88<0 322 322 356 0 367.5>
LayerCount: 2
Fore
SplineSet
491 356 m 2xb8
 491 0 l 1
 403 0 l 1
 403 322 l 2
 403 413 377 459 291 459 c 0xb8
 241 459 153 427 153 285 c 2
 153 0 l 1
 65 0 l 1
 65 523 l 1
 148 523 l 1xd8
 148 449 l 1
 150 449 l 1
 169 477 218 538 308 538 c 0
 389 538 491 505 491 356 c 2xb8
EndSplineSet
EndChar

StartChar: o
Encoding: 111 111 80
Width: 556
Flags: MW
HStem: -14 76<215 341 215 361.5> 462 76<215 341>
VStem: 35 91<227 297 227 329.5> 430 91<227 297>
LayerCount: 2
Fore
SplineSet
35 262 m 0
 35 397 111 538 278 538 c 0
 445 538 521 397 521 262 c 0
 521 127 445 -14 278 -14 c 0
 111 -14 35 127 35 262 c 0
126 262 m 0
 126 192 152 62 278 62 c 0
 404 62 430 192 430 262 c 0
 430 332 404 462 278 462 c 0
 152 462 126 332 126 262 c 0
EndSplineSet
EndChar

StartChar: p
Encoding: 112 112 81
Width: 556
Flags: MW
HStem: -207 21G<58 58 58 146> -15 76<257 333 257 376> 459 64 459 79<251.5 351>
VStem: 58 88<-207 55 -207 523> 426 91<214.5 296.5>
LayerCount: 2
Fore
SplineSet
142 237 m 0xdc
 142 98 229 61 285 61 c 0
 381 61 426 148 426 263 c 0
 426 330 419 459 283 459 c 0
 156 459 142 322 142 237 c 0xdc
58 -207 m 1
 58 523 l 1
 141 523 l 1xec
 141 449 l 1
 143 449 l 1
 164 479 204 538 299 538 c 0
 438 538 517 424 517 277 c 0
 517 152 465 -15 287 -15 c 0
 217 -15 171 18 148 55 c 1
 146 55 l 1
 146 -207 l 1
 58 -207 l 1
EndSplineSet
EndChar

StartChar: q
Encoding: 113 113 82
Width: 556
Flags: MW
HStem: -207 21G<406 494 406 406> -15 76<219 295 219 300> 459 64 459 79<201 300.5 183.5 332.5>
VStem: 35 91<214.5 296.5 205.5 350.5> 406 88<-207 55 55 55>
LayerCount: 2
Fore
SplineSet
494 523 m 1xec
 494 -207 l 1
 406 -207 l 1
 406 55 l 1
 404 55 l 1
 381 18 335 -15 265 -15 c 0
 87 -15 35 152 35 277 c 0
 35 424 114 538 253 538 c 0
 348 538 388 479 409 449 c 1
 411 449 l 1xdc
 411 523 l 1
 494 523 l 1xec
410 237 m 0
 410 322 396 459 269 459 c 0
 133 459 126 330 126 263 c 0
 126 148 171 61 267 61 c 0
 323 61 410 98 410 237 c 0
EndSplineSet
EndChar

StartChar: r
Encoding: 114 114 83
Width: 333
Flags: MW
HStem: 0 21G<77 165 77 77> 444 79 444 94<276 299 299 314.5 276 332>
VStem: 77 88<0 304 0 523>
LayerCount: 2
Fore
SplineSet
165 304 m 2xb0
 165 0 l 1
 77 0 l 1
 77 523 l 1
 160 523 l 1xd0
 160 436 l 1
 162 436 l 1
 197 497 243 538 309 538 c 0
 320 538 325 537 332 535 c 1
 332 444 l 1
 299 444 l 2
 217 444 165 380 165 304 c 2xb0
EndSplineSet
EndChar

StartChar: s
Encoding: 115 115 84
Width: 500
Flags: MW
HStem: -15 76<194 287.5 194 316> 462 76<224.5 293.5>
VStem: 32 85<168 168> 49 85<366.5 420.5 366.5 428.5> 362 85<374 387> 376 88<115 165>
LayerCount: 2
Fore
SplineSet
447 374 m 1xd8
 362 374 l 1
 361 407 349 462 238 462 c 0
 211 462 134 453 134 388 c 0
 134 345 161 335 229 318 c 2xd8
 317 296 l 2
 426 269 464 229 464 158 c 0
 464 50 375 -15 257 -15 c 0
 50 -15 35 105 32 168 c 1
 117 168 l 1
 120 127 132 61 256 61 c 0
 319 61 376 86 376 144 c 0xe4
 376 186 347 200 272 219 c 2
 170 244 l 2
 97 262 49 299 49 371 c 0
 49 486 144 538 247 538 c 0
 434 538 447 400 447 374 c 1xd8
EndSplineSet
EndChar

StartChar: t
Encoding: 116 116 85
Width: 278
Flags: MW
HStem: -7 76<147.5 257> 450 73<14 85 14 85 173 257>
VStem: 85 88<105 110 110 450 523 669>
LayerCount: 2
Fore
SplineSet
257 450 m 1
 173 450 l 1
 173 110 l 2
 173 69 208 69 226 69 c 2
 257 69 l 1
 257 0 l 1
 225 -3 200 -7 191 -7 c 0
 104 -7 85 42 85 105 c 2
 85 450 l 1
 14 450 l 1
 14 523 l 1
 85 523 l 1
 85 669 l 1
 173 669 l 1
 173 523 l 1
 257 523 l 1
 257 450 l 1
EndSplineSet
EndChar

StartChar: u
Encoding: 117 117 86
Width: 556
Flags: MW
HStem: -15 76<228.5 280> 0 61 503 20G<68 156 156 156 401 489 489 489>
VStem: 68 88<147 176 176 523> 401 88<235 523>
LayerCount: 2
Fore
SplineSet
489 0 m 1x78
 406 0 l 1x78
 406 76 l 1
 404 78 l 1
 367 17 322 -15 238 -15 c 0
 161 -15 68 22 68 147 c 2
 68 523 l 1
 156 523 l 1
 156 176 l 2
 156 90 200 61 257 61 c 0xb8
 368 61 401 159 401 235 c 2
 401 523 l 1
 489 523 l 1
 489 0 l 1x78
EndSplineSet
EndChar

StartChar: v
Encoding: 118 118 87
Width: 500
Flags: MW
HStem: 0 97<246 248 246 293 199 248> 503 20G<8 110 110 110 396 492 492 492>
VStem: 8 484<523 523>
LayerCount: 2
Fore
SplineSet
248 97 m 1
 396 523 l 1
 492 523 l 1
 293 0 l 1
 199 0 l 1
 8 523 l 1
 110 523 l 1
 246 97 l 1
 248 97 l 1
EndSplineSet
EndChar

StartChar: w
Encoding: 119 119 88
Width: 722
Flags: MW
HStem: 0 112<210 212 210 256 165 212 513 515> 405 21G<358 358 358 360> 503 20G<14 110 110 110 313 411 411 411 621 709 709 709>
VStem: 14 695<523 523>
LayerCount: 2
Fore
SplineSet
358 405 m 1
 256 0 l 1
 165 0 l 1
 14 523 l 1
 110 523 l 1
 210 112 l 1
 212 112 l 1
 313 523 l 1
 411 523 l 1
 513 112 l 1
 515 112 l 1
 621 523 l 1
 709 523 l 1
 557 0 l 1
 466 0 l 1
 360 405 l 1
 358 405 l 1
EndSplineSet
EndChar

StartChar: x
Encoding: 120 120 89
Width: 500
Flags: MW
HStem: 0 21G<11 122 11 11 378 490 378 378> 269 21G<195 195 306 306> 503 20G<20 133 133 133 375 483 483 483>
VStem: 11 479<0 0>
LayerCount: 2
Fore
SplineSet
306 269 m 1
 490 0 l 1
 378 0 l 1
 248 197 l 1
 122 0 l 1
 11 0 l 1
 195 269 l 1
 20 523 l 1
 133 523 l 1
 254 339 l 1
 375 523 l 1
 483 523 l 1
 306 269 l 1
EndSplineSet
EndChar

StartChar: y
Encoding: 121 121 90
Width: 500
Flags: MW
HStem: -214 79<100 135 100 152.5> -206 21G<59 59> 503 20G<11 111 111 111 392 489 489 489>
VStem: 11 478<523 523>
LayerCount: 2
Fore
SplineSet
252 97 m 1xb0
 392 523 l 1
 489 523 l 1
 428 352 368 181 301 10 c 0
 218 -202 209 -214 96 -214 c 0xb0
 83 -214 73 -210 59 -206 c 1x70
 59 -126 l 1
 70 -130 88 -135 112 -135 c 0
 158 -135 163 -122 205 -14 c 1
 11 523 l 1
 111 523 l 1
 250 97 l 1
 252 97 l 1xb0
EndSplineSet
EndChar

StartChar: z
Encoding: 122 122 91
Width: 500
Flags: MW
HStem: 0 73<148 469 148 469> 450 73<55 346 55 460>
VStem: 31 438<0 69 69 69>
LayerCount: 2
Fore
SplineSet
460 451 m 1
 148 73 l 1
 469 73 l 1
 469 0 l 1
 31 0 l 1
 31 69 l 1
 346 450 l 1
 55 450 l 1
 55 523 l 1
 460 523 l 1
 460 451 l 1
EndSplineSet
EndChar

StartChar: braceleft
Encoding: 123 123 92
Width: 334
Flags: MW
HStem: -196 65<199.5 292 248 292 248 292> 234 60<42 65> 657 65<230.5 248 248 292>
VStem: 42 72<263 265 263 294 263 294> 123 79<-67 -49 -49 104 104 120 421 575>
LayerCount: 2
Fore
SplineSet
42 234 m 1
 42 294 l 1
 88 294 123 348 123 421 c 2
 123 593 l 2
 123 675 174 722 225 722 c 2
 292 722 l 1
 292 657 l 1
 248 657 l 2
 213 657 202 620 202 575 c 2
 202 405 l 1
 196 307 134 270 114 265 c 1
 114 263 l 1
 134 257 196 224 202 120 c 1
 202 -49 l 2
 202 -93 213 -131 248 -131 c 2
 292 -131 l 1
 292 -196 l 1
 225 -196 l 2
 174 -196 123 -149 123 -67 c 2
 123 104 l 2xe8
 123 179 88 234 42 234 c 1
EndSplineSet
EndChar

StartChar: bar
Encoding: 124 124 93
Width: 260
Flags: MW
HStem: -19 21G<94 94 94 167> 717 20G<94 167 167 167>
VStem: 94 73<-19 737 -19 737>
LayerCount: 2
Fore
SplineSet
94 -19 m 1
 94 737 l 1
 167 737 l 1
 167 -19 l 1
 94 -19 l 1
EndSplineSet
EndChar

StartChar: braceright
Encoding: 125 125 94
Width: 334
Flags: MW
HStem: -196 65<42 86 86 103.5 42 109 42 86> 234 60<269 292> 657 65<42 86 42 109>
VStem: 132 79<-49 104 405 421 421 575 575 593>
LayerCount: 2
Fore
SplineSet
292 294 m 1
 292 234 l 1
 246 234 211 179 211 104 c 2
 211 -67 l 2
 211 -149 160 -196 109 -196 c 2
 42 -196 l 1
 42 -131 l 1
 86 -131 l 2
 121 -131 132 -93 132 -49 c 2
 132 120 l 1
 138 224 200 257 220 263 c 1
 220 265 l 1
 200 270 138 307 132 405 c 1
 132 575 l 2
 132 620 121 657 86 657 c 2
 42 657 l 1
 42 722 l 1
 109 722 l 2
 160 722 211 675 211 593 c 2
 211 421 l 2
 211 348 246 294 292 294 c 1
EndSplineSet
EndChar

StartChar: asciitilde
Encoding: 126 126 95
Width: 584
Flags: MW
HStem: 180 146 270 21G<523 523>
VStem: 61 462<236 270>
LayerCount: 2
Fore
SplineSet
487 326 m 1xa0
 523 270 l 1
 493 222 452 184 398 184 c 0
 361 184 329 199 296 217 c 0
 264 235 227 252 181 252 c 0
 137 252 113 215 97 180 c 1
 61 236 l 1
 83 278 119 322 186 322 c 0
 220 322 259 307 297 290 c 0
 347 267 382 254 399 254 c 0
 439 254 464 291 487 326 c 1xa0
EndSplineSet
EndChar

StartChar: exclamdown
Encoding: 161 161 96
Width: 333
Flags: MW
HStem: -195 547<142 191 142 215 118 191> 421 102<118 215 118 215>
VStem: 118 97<-195 42 -195 42 421 523>
LayerCount: 2
Fore
SplineSet
118 421 m 1
 118 523 l 1
 215 523 l 1
 215 421 l 1
 118 421 l 1
142 352 m 1xa0
 191 352 l 1
 215 42 l 1
 215 -195 l 1
 118 -195 l 1
 118 42 l 1
 142 352 l 1xa0
EndSplineSet
EndChar

StartChar: cent
Encoding: 162 162 97
Width: 556
Flags: MW
HStem: -19 76<279 314.5 275 369> -12 21G<227 227> -1 21G<189 189> 462 76<248.5 298> 512 20G<340 340>
VStem: 51 88<209 321 209 339>
LayerCount: 2
Fore
SplineSet
212 78 m 1x94
 320 459 l 1
 312 462 305 462 291 462 c 0
 206 462 139 397 139 245 c 0
 139 173 169 105 212 78 c 1x94
509 345 m 1
 427 345 l 1
 419 378 406 429 359 447 c 1
 249 61 l 1
 259 58 266 57 284 57 c 0
 345 57 404 78 428 183 c 1
 513 183 l 1
 504 110 451 -19 287 -19 c 0x94
 271 -19 252 -16 227 -12 c 1x54
 196 -115 l 1
 155 -115 l 1
 189 -1 l 1
 112 36 51 116 51 245 c 0
 51 433 142 538 297 538 c 0x34
 317 538 330 536 340 532 c 1
 366 623 l 1
 405 623 l 1
 380 523 l 1x8c
 416 513 497 467 509 345 c 1
EndSplineSet
EndChar

StartChar: sterling
Encoding: 163 163 98
Width: 556
Flags: MW
HStem: -16 83<401 435.5> -11 21G<86 86> 29 73<229.5 240> 317 63<33 102 33 140 33 102 233 371 233 233> 642 76<241 337>
VStem: 59 94<499.5 539 499.5 555.5> 159 83<227.5 257.5> 433 88<490 499 499 505 490 540.5>
LayerCount: 2
Fore
SplineSet
204 380 m 1x9d
 371 380 l 1
 371 317 l 1
 233 317 l 1
 238 298 242 279 242 251 c 0
 242 194 204 121 121 65 c 1
 123 67 l 1
 123 65 l 1x9f
 160 86 205 102 254 102 c 0x3d
 316 102 380 67 422 67 c 0
 449 67 483 83 498 98 c 1
 539 32 l 1
 497 0 460 -16 412 -16 c 0x9d
 352 -16 277 29 203 29 c 0x3d
 165 29 123 12 86 -11 c 1
 37 58 l 1
 141 127 159 210 159 245 c 0
 159 270 147 301 140 317 c 1x5f
 33 317 l 1
 33 380 l 1
 102 380 l 1
 84 417 59 463 59 514 c 0
 59 597 113 718 306 718 c 0
 457 718 521 609 521 505 c 2
 521 490 l 1
 433 490 l 1
 433 499 l 2
 433 582 378 642 296 642 c 0
 186 642 153 559 153 519 c 0
 153 480 171 440 204 380 c 1x9d
EndSplineSet
EndChar

StartChar: fraction
Encoding: 8260 8260 99
AltUni2: 002215.ffffffff.0
Width: 167
Flags: MW
HStem: -19 21G<-166 -109 -166 -166> 683 20G<276 333 333 333>
VStem: -166 499
LayerCount: 2
Fore
SplineSet
333 703 m 1
 -109 -19 l 1
 -166 -19 l 1
 276 703 l 1
 333 703 l 1
EndSplineSet
EndChar

StartChar: yen
Encoding: 165 165 100
Width: 556
Flags: MW
HStem: 0 21G<234 322 234 234> 185 57<42 234 42 234 322 515> 327 57<42 196 42 196 42 234 360 515> 668 20G<3 103 103 103 453 553 553 553>
VStem: 234 88<0 185 0 185 242 327>
LayerCount: 2
Fore
SplineSet
42 327 m 1
 42 384 l 1
 196 384 l 1
 3 688 l 1
 103 688 l 1
 278 393 l 1
 453 688 l 1
 553 688 l 1
 360 384 l 1
 515 384 l 1
 515 327 l 1
 322 327 l 1
 322 242 l 1
 515 242 l 1
 515 185 l 1
 322 185 l 1
 322 0 l 1
 234 0 l 1
 234 185 l 1
 42 185 l 1
 42 242 l 1
 234 242 l 1
 234 327 l 1
 42 327 l 1
EndSplineSet
EndChar

StartChar: florin
Encoding: 402 402 101
Width: 556
Flags: MW
HStem: -207 79<44.5 88 44.5 99> 391 70<114 223 114 237 328 442> 661 76<402.5 438.5> 722 15
VStem: -11 512 114 328<391 461 391 461>
LayerCount: 2
Fore
SplineSet
501 722 m 1xd8
 486 644 l 1
 464 653 448 661 429 661 c 0
 376 661 356 602 348 564 c 2
 328 461 l 1
 442 461 l 1
 442 391 l 1
 315 391 l 1
 255 64 l 2
 218 -139 147 -207 51 -207 c 0
 16 -207 4 -202 -11 -195 c 1
 4 -114 l 1
 18 -121 34 -128 55 -128 c 0
 121 -128 139 -62 159 46 c 2
 223 391 l 1
 114 391 l 1
 114 461 l 1
 237 461 l 1
 265 585 l 2
 281 656 336 737 423 737 c 0xe4
 464 737 480 730 501 722 c 1xd8
EndSplineSet
EndChar

StartChar: section
Encoding: 167 167 102
Width: 556
Flags: MW
HStem: -191 76<224 286.5 223 322.5> 661 76<256.5 316 210.5 322.5>
VStem: 43 83<304.5 351.5> 83 88<-19.5 -3 -19.5 -3> 96 88<561.5 604> 373 88<-68 -15> 429 83<202 247>
LayerCount: 2
Fore
SplineSet
460 554 m 1xe4
 375 554 l 1xe4
 373 586 369 661 276 661 c 0
 237 661 184 640 184 580 c 0
 184 543 212 517 257 490 c 2
 403 404 l 2
 464 368 512 326 512 244 c 0xca
 512 160 460 116 409 84 c 1
 440 51 461 20 461 -30 c 0
 461 -133 365 -191 280 -191 c 0
 168 -191 83 -136 83 -3 c 1
 171 -3 l 1xd4
 171 -36 178 -115 268 -115 c 0
 305 -115 373 -104 373 -32 c 0
 373 2 353 24 318 47 c 2
 108 187 l 2
 54 223 43 279 43 309 c 0xe4
 43 394 85 433 143 467 c 1
 109 504 96 528 96 567 c 0xcc
 96 641 145 737 276 737 c 0
 356 737 460 702 460 554 c 1xe4
367 321 m 2xe2
 193 428 l 1
 154 408 126 378 126 331 c 0
 126 278 158 254 171 246 c 2
 360 124 l 1
 398 149 429 174 429 225 c 0
 429 269 401 300 367 321 c 2xe2
EndSplineSet
EndChar

StartChar: currency
Encoding: 164 164 103
Width: 556
Flags: MW
HStem: 102 70<251 305> 528 70<251.5 304.5 251.5 325.5>
VStem: 33 73<323.5 378.5> 450 73<323.5 378.5 323.5 398>
LayerCount: 2
Fore
SplineSet
480 603 m 1
 528 555 l 1
 473 501 l 1
 507 462 523 406 523 351 c 0
 523 296 507 242 473 200 c 1
 527 144 l 1
 482 99 l 1
 427 157 l 1
 387 120 332 102 278 102 c 0
 224 102 169 120 129 157 c 1
 74 99 l 1
 29 144 l 1
 83 200 l 1
 49 242 33 296 33 351 c 0
 33 406 49 462 83 501 c 1
 28 555 l 1
 76 603 l 1
 133 547 l 1
 171 580 225 598 278 598 c 0
 331 598 385 580 423 547 c 1
 480 603 l 1
106 351 m 0
 106 255 182 172 278 172 c 0
 374 172 450 255 450 351 c 0
 450 445 373 528 278 528 c 0
 183 528 106 445 106 351 c 0
EndSplineSet
EndChar

StartChar: quotesingle
Encoding: 39 39 104
Width: 191
Flags: MW
HStem: 463 255<59 132 59 132>
VStem: 59 73<463 718 463 718>
LayerCount: 2
Fore
SplineSet
59 463 m 1
 59 718 l 1
 132 718 l 1
 132 463 l 1
 59 463 l 1
EndSplineSet
EndChar

StartChar: quotedblleft
Encoding: 8220 8220 105
Width: 333
Flags: MW
HStem: 470 106<89 142 89 142 38 142 254 307 89 203> 470 255<38 142 38 142 142 307 142 203> 705 20G<142 142 307 307>
VStem: 38 51<470 593 576 593 576 606.5> 38 104<470 568 568 576 470 606.5> 203 51<470 593 576 593 576 606.5> 203 104<470 568 568 576 470 606.5>
LayerCount: 2
Fore
SplineSet
307 576 m 1x42
 307 470 l 1
 203 470 l 1
 203 568 l 2
 203 645 226 706 307 725 c 1
 307 678 l 1
 255 670 254 610 254 576 c 1
 307 576 l 1x42
142 576 m 1x48
 142 470 l 1
 38 470 l 1
 38 568 l 2
 38 645 61 706 142 725 c 1
 142 678 l 1
 90 670 89 610 89 576 c 1
 142 576 l 1x48
EndSplineSet
EndChar

StartChar: guillemotleft
Encoding: 171 171 106
Width: 556
Flags: MW
HStem: 108 338<254 254 254 459> 277 21G<149 149 354 354>
VStem: 97 157<108 323 108 323> 302 157<108 323 108 323>
LayerCount: 2
Fore
SplineSet
254 196 m 1xa0
 254 108 l 1
 97 231 l 1
 97 323 l 1
 254 446 l 1
 254 358 l 1
 149 277 l 1
 254 196 l 1xa0
459 196 m 1x90
 459 108 l 1
 302 231 l 1
 302 323 l 1
 459 446 l 1
 459 358 l 1
 354 277 l 1
 459 196 l 1x90
EndSplineSet
EndChar

StartChar: guilsinglleft
Encoding: 8249 8249 107
Width: 333
Flags: MW
HStem: 108 338<245 245> 277 21G<140 140>
VStem: 88 157<108 323 108 323>
LayerCount: 2
Fore
SplineSet
245 196 m 1xa0
 245 108 l 1
 88 231 l 1
 88 323 l 1
 245 446 l 1
 245 358 l 1
 140 277 l 1
 245 196 l 1xa0
EndSplineSet
EndChar

StartChar: guilsinglright
Encoding: 8250 8250 108
Width: 333
Flags: MW
HStem: 108 338<88 88> 277 21G<193 193>
VStem: 88 157<108 323 196 323 231 446 231 446>
LayerCount: 2
Fore
SplineSet
88 108 m 1xa0
 88 196 l 1
 193 277 l 1
 88 358 l 1
 88 446 l 1
 245 323 l 1
 245 231 l 1
 88 108 l 1xa0
EndSplineSet
EndChar

StartChar: fi
Encoding: 64257 64257 109
Width: 500
Flags: MW
HStem: 0 21G<86 174 86 86 346 346 346 434> 450 73<14 86 14 86 174 262> 618 100<346 434 346 434> 649 79<207 228.5 179 231.5>
VStem: 86 88<0 450 0 450 523 588> 346 88<0 523 0 523 618 718>
LayerCount: 2
Fore
SplineSet
262 450 m 1xec
 174 450 l 1
 174 0 l 1
 86 0 l 1
 86 450 l 1
 14 450 l 1
 14 523 l 1
 86 523 l 1
 86 613 l 2
 86 692 136 728 222 728 c 0
 235 728 248 727 262 726 c 1
 262 647 l 1
 251 648 237 649 226 649 c 0
 188 649 174 630 174 588 c 2xdc
 174 523 l 1
 262 523 l 1
 262 450 l 1xec
434 523 m 1
 434 0 l 1
 346 0 l 1
 346 523 l 1
 434 523 l 1
434 618 m 1xec
 346 618 l 1
 346 718 l 1
 434 718 l 1
 434 618 l 1xec
EndSplineSet
EndChar

StartChar: fl
Encoding: 64258 64258 110
Width: 500
Flags: MW
HStem: 0 21G<86 174 86 86 344 344 344 432> 450 73<14 86 14 86 174 262> 649 69 649 79<207 228.5 179 231.5>
VStem: 86 88<0 450 0 450 523 588> 344 88<0 718 0 718>
LayerCount: 2
Fore
SplineSet
262 450 m 1xdc
 174 450 l 1
 174 0 l 1
 86 0 l 1
 86 450 l 1
 14 450 l 1
 14 523 l 1
 86 523 l 1
 86 613 l 2
 86 692 136 728 222 728 c 0
 235 728 248 727 262 726 c 1
 262 647 l 1
 251 648 237 649 226 649 c 0
 188 649 174 630 174 588 c 2
 174 523 l 1
 262 523 l 1
 262 450 l 1xdc
432 718 m 1xec
 432 0 l 1
 344 0 l 1
 344 718 l 1
 432 718 l 1xec
EndSplineSet
EndChar

StartChar: endash
Encoding: 8211 8211 111
Width: 556
Flags: MW
HStem: 240 73<0 556 0 556>
VStem: 0 556<240 313 240 313>
LayerCount: 2
Fore
SplineSet
556 313 m 1
 556 240 l 1
 0 240 l 1
 0 313 l 1
 556 313 l 1
EndSplineSet
EndChar

StartChar: dagger
Encoding: 8224 8224 112
Width: 556
Flags: MW
HStem: 431 76<43 232 43 232 326 514> 698 20G<232 326 326 326>
VStem: 232 94<-159 431 -159 431 507 718>
LayerCount: 2
Fore
SplineSet
326 431 m 1
 326 -159 l 1
 232 -159 l 1
 232 431 l 1
 43 431 l 1
 43 507 l 1
 232 507 l 1
 232 718 l 1
 326 718 l 1
 326 507 l 1
 514 507 l 1
 514 431 l 1
 326 431 l 1
EndSplineSet
EndChar

StartChar: daggerdbl
Encoding: 8225 8225 113
Width: 556
Flags: MW
HStem: 43 76<43 232 43 232 326 514> 439 76<43 232 43 232 326 514> 698 20G<232 326 326 326>
VStem: 232 94<-159 43 -159 43 119 439 515 718>
LayerCount: 2
Fore
SplineSet
326 439 m 1
 326 119 l 1
 514 119 l 1
 514 43 l 1
 326 43 l 1
 326 -159 l 1
 232 -159 l 1
 232 43 l 1
 43 43 l 1
 43 119 l 1
 232 119 l 1
 232 439 l 1
 43 439 l 1
 43 515 l 1
 232 515 l 1
 232 718 l 1
 326 718 l 1
 326 515 l 1
 514 515 l 1
 514 439 l 1
 326 439 l 1
EndSplineSet
EndChar

StartChar: periodcentered
Encoding: 183 183 114
AltUni2: 002219.ffffffff.0
Width: 278
Flags: MW
HStem: 190 125<123.5 155.5 123.5 157>
VStem: 77 125<236 270 236 270.5>
LayerCount: 2
Fore
SplineSet
140 315 m 0
 171 315 202 288 202 252 c 0
 202 220 175 190 139 190 c 0
 105 190 77 219 77 252 c 0
 77 289 107 315 140 315 c 0
EndSplineSet
EndChar

StartChar: paragraph
Encoding: 182 182 115
Width: 537
Flags: MW
HStem: 658 60<305 424 305 305>
VStem: 232 73<-173 344 344 344> 424 73<-173 658 658 658>
LayerCount: 2
Fore
SplineSet
232 -173 m 1
 232 344 l 1
 104 344 18 424 18 528 c 0
 18 660 109 718 249 718 c 2
 497 718 l 1
 497 -173 l 1
 424 -173 l 1
 424 658 l 1
 305 658 l 1
 305 -173 l 1
 232 -173 l 1
EndSplineSet
EndChar

StartChar: bullet
Encoding: 8226 8226 116
Width: 350
Flags: MW
HStem: 202 315<131.5 218.5>
VStem: 18 315<315.5 402.5 315.5 402.5>
LayerCount: 2
Fore
SplineSet
333 359 m 0
 333 272 262 202 175 202 c 0
 88 202 18 271 18 359 c 0
 18 446 87 517 175 517 c 0
 262 517 333 446 333 359 c 0
EndSplineSet
EndChar

StartChar: quotesinglbase
Encoding: 8218 8218 117
Width: 222
Flags: MW
HStem: -149 255<53 157> 0 106<53 157 53 106>
VStem: 53 104<-149 8 -102 8 0 8 8 106 -30.5 106> 106 51<-17 0>
LayerCount: 2
Fore
SplineSet
53 0 m 1xa0
 53 106 l 1
 157 106 l 1
 157 8 l 2
 157 -69 134 -130 53 -149 c 1
 53 -102 l 1
 105 -94 106 -34 106 0 c 1
 53 0 l 1xa0
EndSplineSet
EndChar

StartChar: quotedblbase
Encoding: 8222 8222 118
Width: 333
Flags: MW
HStem: -149 255<26 130 26 191> 0 106<26 130 26 79 191 244 26 191>
VStem: 26 104<-149 8 -102 8 0 8 8 106 -30.5 106> 79 51<-17 0> 191 104<-149 8 -102 8 0 8 8 106 -30.5 106> 244 51<-17 0>
LayerCount: 2
Fore
SplineSet
26 0 m 1xa0
 26 106 l 1
 130 106 l 1
 130 8 l 2
 130 -69 107 -130 26 -149 c 1
 26 -102 l 1
 78 -94 79 -34 79 0 c 1
 26 0 l 1xa0
191 0 m 1x88
 191 106 l 1
 295 106 l 1
 295 8 l 2
 295 -69 272 -130 191 -149 c 1
 191 -102 l 1
 243 -94 244 -34 244 0 c 1
 191 0 l 1x88
EndSplineSet
EndChar

StartChar: quotedblright
Encoding: 8221 8221 119
Width: 333
Flags: MW
HStem: 463 255<26 130 26 191> 612 106<26 130 26 79 191 244 26 191>
VStem: 26 104<463 620 510 620 612 620 620 718 581.5 718> 79 51<595 612> 191 104<463 620 510 620 612 620 620 718 581.5 718> 244 51<595 612>
LayerCount: 2
Fore
SplineSet
26 612 m 1xa0
 26 718 l 1
 130 718 l 1
 130 620 l 2
 130 543 107 482 26 463 c 1
 26 510 l 1
 78 518 79 578 79 612 c 1
 26 612 l 1xa0
191 612 m 1x88
 191 718 l 1
 295 718 l 1
 295 620 l 2
 295 543 272 482 191 463 c 1
 191 510 l 1
 243 518 244 578 244 612 c 1
 191 612 l 1x88
EndSplineSet
EndChar

StartChar: guillemotright
Encoding: 187 187 120
Width: 556
Flags: MW
HStem: 108 338<97 97 97 302> 277 21G<202 202 407 407>
VStem: 97 157<108 231 196 231 231 446> 302 157<108 231 196 231 231 446>
LayerCount: 2
Fore
SplineSet
254 231 m 1xa0
 97 108 l 1
 97 196 l 1
 202 277 l 1
 97 358 l 1
 97 446 l 1
 254 323 l 1
 254 231 l 1xa0
459 231 m 1x90
 302 108 l 1
 302 196 l 1
 407 277 l 1
 302 358 l 1
 302 446 l 1
 459 323 l 1
 459 231 l 1x90
EndSplineSet
EndChar

StartChar: ellipsis
Encoding: 8230 8230 121
Width: 1000
Flags: MW
HStem: 0 106<115 219 115 219 448 552 781 885>
VStem: 115 104<0 106 0 106> 448 104<0 106 0 106> 781 104<0 106 0 106>
CounterMasks: 1 70
LayerCount: 2
Fore
SplineSet
219 106 m 1
 219 0 l 1
 115 0 l 1
 115 106 l 1
 219 106 l 1
552 106 m 1
 552 0 l 1
 448 0 l 1
 448 106 l 1
 552 106 l 1
885 106 m 1
 885 0 l 1
 781 0 l 1
 781 106 l 1
 885 106 l 1
EndSplineSet
EndChar

StartChar: perthousand
Encoding: 8240 8240 122
Width: 1000
Flags: MW
HStem: -7 63<448.5 500.5 448.5 518.5 811.5 863.5> 242 63<448.5 500.5 811.5 863.5> 383 63<136.5 188.5 136.5 206.5> 632 63<136.5 188.5>
VStem: 7 63<513.5 564 513.5 582.5> 256 63<513.5 565> 319 63<123.5 174 123.5 192.5> 568 63<123.5 175> 682 63<123.5 174 123.5 192.5> 931 63<123.5 175>
LayerCount: 2
Fore
SplineSet
7 539 m 0x3c
 7 626 77 695 163 695 c 0
 249 695 319 625 319 539 c 0
 319 453 250 383 163 383 c 0
 77 383 7 451 7 539 c 0x3c
70 539 m 0
 70 488 110 446 163 446 c 0
 214 446 256 488 256 539 c 0
 256 591 214 632 163 632 c 0
 110 632 70 589 70 539 c 0
319 149 m 0xc3
 319 236 389 305 475 305 c 0
 561 305 631 235 631 149 c 0
 631 63 562 -7 475 -7 c 0
 389 -7 319 61 319 149 c 0xc3
382 149 m 0
 382 98 422 56 475 56 c 0
 526 56 568 98 568 149 c 0
 568 201 526 242 475 242 c 0
 422 242 382 199 382 149 c 0
682 149 m 0xc0c0
 682 236 752 305 838 305 c 0
 924 305 994 235 994 149 c 0
 994 63 925 -7 838 -7 c 0
 752 -7 682 61 682 149 c 0xc0c0
745 149 m 0
 745 98 785 56 838 56 c 0
 889 56 931 98 931 149 c 0
 931 201 889 242 838 242 c 0
 785 242 745 199 745 149 c 0
544 703 m 1x11
 147 -19 l 1
 92 -19 l 1
 489 703 l 1
 544 703 l 1x11
EndSplineSet
EndChar

StartChar: questiondown
Encoding: 191 191 123
Width: 611
Flags: MW
HStem: -201 76<257.5 329.5> 423 102<265 362 265 362>
VStem: 91 94<-32 17.5 -32 28> 265 97<423 525 423 525> 272 88<286 343> 439 88<11.5 33>
LayerCount: 2
Fore
SplineSet
439 33 m 1xf4
 527 33 l 1
 524 -35 521 -99 448 -155 c 0
 408 -186 356 -201 303 -201 c 0
 191 -201 91 -133 91 -5 c 0
 91 61 117 95 185 160 c 0
 248 221 274 244 272 343 c 1
 360 343 l 1xec
 360 229 335 200 265 128 c 0
 199 60 185 46 185 -11 c 0
 185 -53 209 -125 306 -125 c 0
 434 -125 439 -10 439 33 c 1xf4
265 423 m 1x50
 265 525 l 1
 362 525 l 1
 362 423 l 1
 265 423 l 1x50
EndSplineSet
EndChar

StartChar: grave
Encoding: 96 96 124
Width: 333
Flags: MW
HStem: 593 141<14 144 14 211>
VStem: 14 197<593 734>
LayerCount: 2
Fore
SplineSet
144 593 m 1
 14 734 l 1
 122 734 l 1
 211 593 l 1
 144 593 l 1
EndSplineSet
EndChar

StartChar: acute
Encoding: 180 180 125
Width: 333
Flags: MW
HStem: 593 141<122 319 122 319>
VStem: 122 197<593 734>
LayerCount: 2
Fore
SplineSet
319 734 m 1
 189 593 l 1
 122 593 l 1
 211 734 l 1
 319 734 l 1
EndSplineSet
EndChar

StartChar: circumflex
Encoding: 710 710 126
Width: 333
Flags: MW
HStem: 593 141<21 213 21 213 120 232 120 312> 686 48<166 166>
VStem: 21 291<593 593>
LayerCount: 2
Fore
SplineSet
166 686 m 1x60
 100 593 l 1
 21 593 l 1
 120 734 l 1
 213 734 l 1
 312 593 l 1
 232 593 l 1xa0
 166 686 l 1x60
EndSplineSet
EndChar

StartChar: tilde
Encoding: 732 732 127
Width: 333
Flags: MW
HStem: 606 116 702 20G<287 337 337 337>
VStem: -4 341<606 722>
LayerCount: 2
Fore
SplineSet
287 722 m 1xa0
 337 722 l 1
 330 662 294 613 237 613 c 0
 219 613 205 617 178 626 c 2
 152 635 l 2
 117 647 103 650 91 650 c 0
 64 650 52 632 44 606 c 1
 -4 606 l 1
 4 665 33 713 100 713 c 0
 126 713 147 706 168 698 c 2
 190 689 l 2
 209 681 229 676 237 676 c 0
 277 676 283 703 287 722 c 1xa0
EndSplineSet
EndChar

StartChar: macron
Encoding: 175 175 128
AltUni2: 0002c9.ffffffff.0
Width: 333
Flags: MW
HStem: 627 57<10 323 10 323>
VStem: 10 313<627 684 627 684>
LayerCount: 2
Fore
SplineSet
323 684 m 1
 323 627 l 1
 10 627 l 1
 10 684 l 1
 323 684 l 1
EndSplineSet
EndChar

StartChar: breve
Encoding: 728 728 129
Width: 333
Flags: MW
HStem: 595 57<148.5 205> 711 20G<13 62 62 62 273 321 321 321>
VStem: 13 308<731 731>
LayerCount: 2
Fore
SplineSet
273 731 m 1
 321 731 l 1
 310 633 248 595 162 595 c 0
 30 595 17 696 13 731 c 1
 62 731 l 1
 66 719 71 699 86 683 c 0
 101 666 127 652 170 652 c 0
 250 652 264 700 273 731 c 1
EndSplineSet
EndChar

StartChar: dotaccent
Encoding: 729 729 130
Width: 333
Flags: MW
HStem: 604 102<121 212 121 212>
VStem: 121 91<604 706 604 706>
LayerCount: 2
Fore
SplineSet
212 706 m 1
 212 604 l 1
 121 604 l 1
 121 706 l 1
 212 706 l 1
EndSplineSet
EndChar

StartChar: dieresis
Encoding: 168 168 131
Width: 333
Flags: MW
HStem: 604 102<40 131 40 131 40 202 202 293>
VStem: 40 91<604 706 604 706> 202 91<604 706 604 706>
LayerCount: 2
Fore
SplineSet
131 706 m 1
 131 604 l 1
 40 604 l 1
 40 706 l 1
 131 706 l 1
293 706 m 1xa0
 293 604 l 1
 202 604 l 1
 202 706 l 1
 293 706 l 1xa0
EndSplineSet
EndChar

StartChar: ring
Encoding: 730 730 132
Width: 333
Flags: MW
HStem: 572 40<152.5 181.5 152.5 193.5> 716 40<152.5 181.5>
VStem: 75 40<649.5 678.5 649.5 690.5> 219 40<649.5 678.5>
LayerCount: 2
Fore
SplineSet
167 756 m 0
 220 756 259 717 259 664 c 0
 259 611 220 572 167 572 c 0
 114 572 75 611 75 664 c 0
 75 717 114 756 167 756 c 0
115 664 m 0
 115 635 138 612 167 612 c 0
 196 612 219 635 219 664 c 0
 219 693 196 716 167 716 c 0
 138 716 115 693 115 664 c 0
EndSplineSet
EndChar

StartChar: cedilla
Encoding: 184 184 133
Width: 333
Flags: MW
HStem: -225 47<122.5 136.5 114.5 178> -97 39<130.5 207.5>
VStem: 183 76<-154.5 -120.5>
LayerCount: 2
Fore
SplineSet
79 -86 m 1
 143 0 l 1
 190 0 l 1
 144 -62 l 1
 155 -60 162 -58 175 -58 c 0
 240 -58 259 -101 259 -133 c 0
 259 -185 215 -225 141 -225 c 0
 104 -225 71 -214 45 -203 c 1
 62 -163 l 1
 87 -173 102 -178 127 -178 c 0
 146 -178 183 -173 183 -136 c 0
 183 -105 149 -97 135 -97 c 0
 126 -97 117 -99 96 -105 c 1
 79 -86 l 1
EndSplineSet
EndChar

StartChar: hungarumlaut
Encoding: 733 733 134
Width: 333
Flags: MW
HStem: 593 141<31 229 31 229 211 211 211 229 120 278>
VStem: 31 378<593 734>
LayerCount: 2
Fore
SplineSet
229 734 m 1
 98 593 l 1
 31 593 l 1
 120 734 l 1
 229 734 l 1
409 734 m 1
 278 593 l 1
 211 593 l 1
 300 734 l 1
 409 734 l 1
EndSplineSet
EndChar

StartChar: ogonek
Encoding: 731 731 135
Width: 333
Flags: MW
HStem: -225 47<195.5 212> -4 21G<249 249>
VStem: 73 76<-150.5 -117>
LayerCount: 2
Fore
SplineSet
270 -163 m 1
 287 -203 l 1
 273 -209 233 -225 191 -225 c 0
 117 -225 73 -185 73 -133 c 0
 73 -101 88 -26 182 0 c 1
 249 0 l 1
 249 -4 l 1
 167 -49 149 -78 149 -128 c 0
 149 -173 186 -178 205 -178 c 0
 230 -178 245 -173 270 -163 c 1
EndSplineSet
EndChar

StartChar: caron
Encoding: 711 711 136
Width: 333
Flags: MW
HStem: 593 141<21 213 21 120>
VStem: 21 291<734 734>
LayerCount: 2
Fore
SplineSet
100 734 m 1
 166 641 l 1
 232 734 l 1
 312 734 l 1
 213 593 l 1
 120 593 l 1
 21 734 l 1
 100 734 l 1
EndSplineSet
EndChar

StartChar: emdash
Encoding: 8212 8212 137
Width: 1000
Flags: MW
HStem: 240 73<0 1000 0 1000>
VStem: 0 1000<240 313 240 313>
LayerCount: 2
Fore
SplineSet
1000 313 m 1
 1000 240 l 1
 0 240 l 1
 0 313 l 1
 1000 313 l 1
EndSplineSet
EndChar

StartChar: AE
Encoding: 198 198 138
Width: 1000
Flags: MW
HStem: 0 86<554 951 554 951> 209 86<192 457 227 457 227 457> 326 86<554 910 554 910> 632 86<360 457 360 360 554 944 554 554>
VStem: 457 97<86 209 209 209 295 326 412 632>
LayerCount: 2
Fore
SplineSet
192 209 m 1
 113 0 l 1
 8 0 l 1
 300 718 l 1
 944 718 l 1
 944 632 l 1
 554 632 l 1
 554 412 l 1
 910 412 l 1
 910 326 l 1
 554 326 l 1
 554 86 l 1
 951 86 l 1
 951 0 l 1
 457 0 l 1
 457 209 l 1
 192 209 l 1
457 295 m 1
 457 632 l 1
 360 632 l 1
 227 295 l 1
 457 295 l 1
EndSplineSet
EndChar

StartChar: ordfeminine
Encoding: 170 170 139
Width: 370
Flags: MW
HStem: 304 48<35 331 35 331> 405 47<289 329.5> 405 52<123.5 164> 550 53 685 52<140 195.5 140 199>
VStem: 24 63<492 511> 41 54<632 632> 248 61<531 570 570 570 630.5 649>
LayerCount: 2
Fore
SplineSet
346 454 m 1xdb
 346 410 l 1
 336 408 327 405 314 405 c 0
 264 405 256 428 254 456 c 1
 232 434 197 405 131 405 c 0
 69 405 24 442 24 496 c 0xbd
 24 526 33 586 136 598 c 2
 224 608 l 2
 236 610 248 615 248 646 c 0
 248 667 226 685 172 685 c 0
 103 685 97 648 95 632 c 1
 41 632 l 1
 44 707 98 737 182 737 c 0
 209 737 309 730 309 649 c 2
 309 471 l 2
 309 457 315 452 327 452 c 0
 332 452 339 453 346 454 c 1xdb
145 457 m 0
 199 457 251 489 248 531 c 2
 248 570 l 1
 242 564 227 559 156 550 c 0
 128 547 87 539 87 507 c 0
 87 477 102 457 145 457 c 0
35 352 m 1
 331 352 l 1
 331 304 l 1
 35 304 l 1
 35 352 l 1
EndSplineSet
EndChar

StartChar: Lslash
Encoding: 321 321 140
Width: 556
Flags: MW
HStem: 0 86<173 537 173 537> 698 20G<76 173 173 173>
VStem: 76 97<86 344 344 344 86 453 453 718>
LayerCount: 2
Fore
SplineSet
291 520 m 1
 291 462 l 1
 173 395 l 1
 173 86 l 1
 537 86 l 1
 537 0 l 1
 76 0 l 1
 76 344 l 1
 -20 289 l 1
 -20 347 l 1
 76 402 l 1
 76 718 l 1
 173 718 l 1
 173 453 l 1
 291 520 l 1
EndSplineSet
EndChar

StartChar: Oslash
Encoding: 216 216 141
Width: 778
Flags: MW
HStem: -19 86<353 467 353 523> 651 86<311 425.5>
VStem: 39 100<322.5 436.5> 639 100<281.5 395>
LayerCount: 2
Fore
SplineSet
590 543 m 1
 217 138 l 1
 259 93 317 67 389 67 c 0
 545 67 639 190 639 359 c 0
 639 431 622 495 590 543 c 1
190 171 m 1
 564 578 l 1
 522 624 462 651 389 651 c 0
 233 651 139 528 139 359 c 0
 139 286 157 222 190 171 c 1
740 707 m 1
 657 616 l 1
 717 539 739 440 739 359 c 0
 739 204 657 -19 389 -19 c 0
 284 -19 207 16 153 68 c 1
 73 -19 l 1
 41 9 l 1
 124 99 l 1
 62 176 39 277 39 359 c 0
 39 514 121 737 389 737 c 0
 497 737 575 701 628 648 c 1
 709 737 l 1
 740 707 l 1
EndSplineSet
EndChar

StartChar: OE
Encoding: 338 338 142
Width: 1000
Flags: MW
HStem: -19 83<301 389> 0 86<614 965 614 965> 326 86<614 947 614 947> 632 13 632 86<614 963 614 614> 654 83<247.5 394.5>
VStem: 36 100<310 387.5 310 425> 517 97<230 326 412 492 492 542>
LayerCount: 2
Fore
SplineSet
517 230 m 2x6b
 517 492 l 2
 517 592 445 654 344 654 c 0
 151 654 136 436 136 339 c 0
 136 281 144 232 161 189 c 0
 195 106 245 64 357 64 c 0xa7
 422 64 517 109 517 230 c 2x6b
523 645 m 1x73
 523 718 l 1
 963 718 l 1
 963 632 l 1
 614 632 l 1
 614 412 l 1
 947 412 l 1
 947 326 l 1
 614 326 l 1
 614 86 l 1
 965 86 l 1
 965 0 l 1
 522 0 l 1x6b
 522 75 l 1
 520 75 l 1
 487 32 449 -19 329 -19 c 0
 140 -19 36 140 36 355 c 0
 36 495 92 737 343 737 c 0xa7
 462 737 506 670 521 645 c 1
 523 645 l 1x73
EndSplineSet
EndChar

StartChar: ordmasculine
Encoding: 186 186 143
Width: 365
Flags: MW
HStem: 304 48<35 331 35 331> 405 52<146 220> 685 52<146 220 146 222.5>
VStem: 25 67<550.5 591.5 550.5 636> 274 67<550.5 591.5>
LayerCount: 2
Fore
SplineSet
341 571 m 0
 341 441 257 405 183 405 c 0
 109 405 25 441 25 571 c 0
 25 701 109 737 183 737 c 0
 257 737 341 701 341 571 c 0
274 571 m 0
 274 612 262 685 183 685 c 0
 104 685 92 612 92 571 c 0
 92 530 104 457 183 457 c 0
 262 457 274 530 274 571 c 0
35 352 m 1
 331 352 l 1
 331 304 l 1
 35 304 l 1
 35 352 l 1
EndSplineSet
EndChar

StartChar: ae
Encoding: 230 230 144
Width: 889
Flags: MW
HStem: -15 76<566.5 647> 233 70<465 756 465 847 465 756> 459 79<569.5 663.5> 465 73<213.5 304.5>
VStem: 36 91<120.5 158> 62 81<364 364> 384 81<181 233 178.5 267 178.5 267> 752 88<164 164> 756 91<303 303>
LayerCount: 2
Fore
SplineSet
465 303 m 1xda80
 756 303 l 1
 751 384 717 459 610 459 c 0xea80
 529 459 465 384 465 303 c 1xda80
752 164 m 1
 840 164 l 1
 837 139 813 65 747 21 c 0
 723 5 689 -15 605 -15 c 0
 480 -15 433 58 413 94 c 1
 362 17 294 -15 200 -15 c 0
 104 -15 36 46 36 136 c 0xdb
 36 180 49 282 195 300 c 2
 340 318 l 2
 361 320 386 328 386 380 c 0
 386 435 346 465 263 465 c 0
 163 465 149 404 143 364 c 1
 62 364 l 1
 66 489 149 538 278 538 c 0
 378 538 411 503 448 464 c 1
 477 492 517 538 622 538 c 0xd680
 773 538 847 418 847 233 c 1
 465 233 l 1
 465 124 516 61 617 61 c 0
 700 61 749 125 752 164 c 1
384 181 m 2
 384 267 l 1
 370 256 348 248 239 234 c 0
 196 228 127 215 127 149 c 0
 127 92 156 58 222 58 c 0
 304 58 384 111 384 181 c 2
EndSplineSet
EndChar

StartChar: dotlessi
Encoding: 305 305 145
Width: 278
Flags: MW
HStem: 0 21G<95 183 95 95> 503 20G<95 183 183 183>
VStem: 95 88<0 523 0 523>
LayerCount: 2
Fore
SplineSet
183 523 m 1
 183 0 l 1
 95 0 l 1
 95 523 l 1
 183 523 l 1
EndSplineSet
EndChar

StartChar: lslash
Encoding: 322 322 146
Width: 222
Flags: MW
HStem: 0 21G<67 155 67 67> 698 20G<67 155 155 155>
VStem: 67 88<0 339 339 339 0 443 443 718>
LayerCount: 2
Fore
SplineSet
242 435 m 1
 155 385 l 1
 155 0 l 1
 67 0 l 1
 67 339 l 1
 -20 289 l 1
 -20 347 l 1
 67 397 l 1
 67 718 l 1
 155 718 l 1
 155 443 l 1
 242 493 l 1
 242 435 l 1
EndSplineSet
EndChar

StartChar: oslash
Encoding: 248 248 147
Width: 611
Flags: MW
HStem: -14 21G<244 361.5> -14 76<254 341 254 361.5> 410 21G<387 387> 462 76<215 303.5> 519 19
VStem: 35 91<245.5 297 245.5 329.5> 430 91<227 277.5>
LayerCount: 2
Fore
SplineSet
537 519 m 1x6e
 468 441 l 1
 504 391 521 326 521 262 c 0
 521 127 445 -14 278 -14 c 0
 210 -14 157 9 119 46 c 1
 59 -22 l 1x6e
 28 4 l 1
 92 76 l 1
 54 127 35 195 35 262 c 0
 35 397 111 538 278 538 c 0
 349 538 403 513 442 473 c 1
 506 545 l 1xb6
 537 519 l 1x6e
151 143 m 1
 387 410 l 1
 364 440 329 462 278 462 c 0x76
 152 462 126 332 126 262 c 0
 126 229 132 183 151 143 c 1
408 373 m 1
 174 108 l 1
 196 81 230 62 278 62 c 0
 404 62 430 192 430 262 c 0
 430 293 425 336 408 373 c 1
EndSplineSet
EndChar

StartChar: oe
Encoding: 339 339 148
Width: 944
Flags: MW
HStem: -15 76<623 702> -14 76<215 278> 233 70<519 811 519 902 519 811> 462 76<215 278 194.5 341>
VStem: 35 91<227 297 227 329.5> 430 89<227 233 178.5 297> 811 91<303 303>
LayerCount: 2
Fore
SplineSet
519 303 m 1x7e
 811 303 l 1
 806 384 772 459 665 459 c 0
 584 459 519 384 519 303 c 1x7e
807 164 m 1
 895 164 l 1
 892 139 868 65 802 21 c 0
 778 5 744 -15 660 -15 c 0xbe
 586 -15 515 14 466 86 c 1
 418 -7 318 -15 278 -14 c 0x7e
 111 -14 35 127 35 262 c 0
 35 397 111 538 278 538 c 0
 361 537 431 503 474 432 c 1
 523 507 586 538 677 538 c 0
 828 538 902 418 902 233 c 1
 519 233 l 1
 519 124 571 61 672 61 c 0xbe
 755 61 804 125 807 164 c 1
126 262 m 0x7e
 126 192 152 62 278 62 c 0
 404 62 430 192 430 262 c 0
 430 332 404 462 278 462 c 0
 152 462 126 332 126 262 c 0x7e
EndSplineSet
EndChar

StartChar: germandbls
Encoding: 223 223 149
Width: 611
Flags: MW
HStem: -15 79<304.5 364.5 303 390.5> -8 72<266 364.5> 0 64 354 73<302 354 290 361> 652 76<240.5 347.5>
VStem: 67 88<0 510 0 532 0 589.5> 449 88<510.5 572> 480 91<163.5 266.5>
LayerCount: 2
Fore
SplineSet
67 0 m 1x3e
 67 532 l 2
 67 647 148 728 298 728 c 0
 446 728 537 657 537 548 c 0x9e
 537 451 478 415 455 400 c 1
 529 380 571 297 571 238 c 0
 571 61 462 -15 319 -15 c 0x9d
 290 -15 280 -11 266 -8 c 1x5d
 266 67 l 1
 281 65 296 64 310 64 c 0
 419 64 480 113 480 214 c 0x9d
 480 319 412 354 310 354 c 0
 294 354 283 353 271 350 c 1
 271 429 l 1
 280 428 286 427 294 427 c 0
 414 427 449 481 449 540 c 0
 449 604 398 652 297 652 c 0
 184 652 155 595 155 510 c 2
 155 0 l 1
 67 0 l 1x3e
EndSplineSet
EndChar

StartChar: onesuperior
Encoding: 185 185 150
Width: 333
Flags: MW
HStem: 281 21G<151 222 151 151> 577 46<43 151 43 43> 683 20G<166 222 222 222>
VStem: 151 71<281 577 577 577>
LayerCount: 2
Fore
SplineSet
151 577 m 1
 43 577 l 1
 43 623 l 1
 117 628 148 634 166 703 c 1
 222 703 l 1
 222 281 l 1
 151 281 l 1
 151 577 l 1
EndSplineSet
EndChar

StartChar: logicalnot
Encoding: 172 172 151
Width: 584
Flags: MW
HStem: 317 73<39 472 39 545>
VStem: 472 73<108 317 317 317>
LayerCount: 2
Fore
SplineSet
472 108 m 1
 472 317 l 1
 39 317 l 1
 39 390 l 1
 545 390 l 1
 545 108 l 1
 472 108 l 1
EndSplineSet
EndChar

StartChar: mu
Encoding: 181 181 152
AltUni2: 0003bc.ffffffff.0
Width: 556
Flags: MW
HStem: -207 21G<68 156 68 68> -15 76<228.5 280> 0 61 503 20G<68 156 156 156 401 489 489 489>
VStem: 68 88<-207 19 133 147 147 176 176 523> 401 88<235 523>
LayerCount: 2
Fore
SplineSet
489 0 m 1xbc
 406 0 l 1xbc
 406 76 l 1
 404 78 l 1
 367 17 322 -15 238 -15 c 0
 218 -15 181 -11 158 19 c 1
 156 19 l 1
 156 -207 l 1
 68 -207 l 1
 68 147 l 1
 68 523 l 1
 156 523 l 1
 156 176 l 2
 156 90 200 61 257 61 c 0xdc
 368 61 401 159 401 235 c 2
 401 523 l 1
 489 523 l 1
 489 0 l 1xbc
EndSplineSet
EndChar

StartChar: trademark
Encoding: 8482 8482 153
Width: 1000
Flags: MW
HStem: 658 60<46 173 46 373 246 373 246 246>
VStem: 173 73<306 658 306 658> 445 73<306 641 306 718> 830 73<306 641 641 641>
LayerCount: 2
Fore
SplineSet
557 718 m 1
 675 415 l 1
 791 718 l 1
 903 718 l 1
 903 306 l 1
 830 306 l 1
 830 641 l 1
 828 641 l 1
 699 306 l 1
 649 306 l 1
 520 641 l 1
 518 641 l 1
 518 306 l 1
 445 306 l 1
 445 718 l 1
 557 718 l 1
373 718 m 1
 373 658 l 1
 246 658 l 1
 246 306 l 1
 173 306 l 1
 173 658 l 1
 46 658 l 1
 46 718 l 1
 373 718 l 1
EndSplineSet
EndChar

StartChar: Eth
Encoding: 208 208 154
Width: 722
Flags: MW
HStem: 0 83<178 366 366 368> 326 86<0 81 0 81 178 370> 635 83<178 359 178 178>
VStem: 81 97<83 326 83 326 83 326 412 635> 574 100<338.5 453.5>
LayerCount: 2
Fore
SplineSet
370 412 m 1
 370 326 l 1
 178 326 l 1
 178 83 l 1
 366 83 l 2
 492 83 574 182 574 363 c 0
 574 544 491 635 359 635 c 2
 178 635 l 1
 178 412 l 1
 370 412 l 1
0 326 m 1
 0 412 l 1
 81 412 l 1
 81 718 l 1
 372 718 l 2
 559 718 674 576 674 369 c 0
 674 308 659 0 368 0 c 2
 81 0 l 1
 81 326 l 1
 0 326 l 1
EndSplineSet
EndChar

StartChar: onehalf
Encoding: 189 189 155
Width: 834
Flags: MW
HStem: -19 21G<118 175 118 118> 0 61<529 773 529 773> 271 21G<469 529 469 469> 281 21G<151 222 151 151> 364 58<602.5 652.5> 577 46<43 151 43 43> 577 126<43 222 43 222>
VStem: 151 71<281 577 577 577> 469 60<271 271> 703 70<270.5 298>
LayerCount: 2
Fore
SplineSet
617 703 m 1x5bc0
 175 -19 l 1
 118 -19 l 1x9bc0
 560 703 l 1
 617 703 l 1x5bc0
151 577 m 1
 43 577 l 1x6bc0
 43 623 l 1x5dc0
 117 628 148 634 166 703 c 1
 222 703 l 1
 222 281 l 1
 151 281 l 1
 151 577 l 1
529 271 m 1
 469 271 l 1
 469 408 578 422 627 422 c 0
 709 422 773 374 773 296 c 0
 773 220 720 187 654 154 c 2
 609 131 l 2
 562 106 543 84 529 61 c 1
 773 61 l 1
 773 0 l 1
 454 0 l 1
 458 88 500 135 558 167 c 2
 618 200 l 2
 670 228 703 243 703 298 c 0
 706 328 686 364 619 364 c 0
 535 364 531 296 529 271 c 1
EndSplineSet
EndChar

StartChar: plusminus
Encoding: 177 177 156
Width: 584
Flags: MW
HStem: 0 73<39 545 39 545> 272 73<39 256 39 256 329 545>
VStem: 256 73<111 272 111 272 345 506>
LayerCount: 2
Fore
SplineSet
256 345 m 1
 256 506 l 1
 329 506 l 1
 329 345 l 1
 545 345 l 1
 545 272 l 1
 329 272 l 1
 329 111 l 1
 256 111 l 1
 256 272 l 1
 39 272 l 1
 39 345 l 1
 256 345 l 1
39 0 m 1
 39 73 l 1
 545 73 l 1
 545 0 l 1
 39 0 l 1
EndSplineSet
EndChar

StartChar: Thorn
Encoding: 222 222 157
Width: 667
Flags: MW
HStem: 0 21G<86 86 86 183> 184 83<183 376 376 409 183 376> 516 83<183 409 183 380> 698 20G<86 183 183 183>
VStem: 86 97<0 184 267 516 599 718> 522 100<347.5 441.5>
LayerCount: 2
Fore
SplineSet
183 516 m 1
 183 267 l 1
 376 267 l 2
 463 267 522 299 522 396 c 0
 522 487 460 516 380 516 c 2
 183 516 l 1
86 0 m 1
 86 718 l 1
 183 718 l 1
 183 599 l 1
 409 599 l 2
 542 599 622 513 622 397 c 0
 622 297 565 184 409 184 c 2
 183 184 l 1
 183 0 l 1
 86 0 l 1
EndSplineSet
EndChar

StartChar: onequarter
Encoding: 188 188 158
Width: 834
Flags: MW
HStem: -19 21G<154 211 154 154> 0 21G<625 689 625 625> 94 58<481 625 481 625 689 756> 281 21G<181 249 181 181> 339 83<623 689 623 689> 580 43<73 181 73 73> 580 123<73 249>
VStem: 181 68<281 580 580 580> 419 62<152 152 152 154 152 154> 625 64<0 94 0 94 152 339 339 339>
LayerCount: 2
Fore
SplineSet
419 94 m 1x7bc0
 419 154 l 1
 625 422 l 1
 689 422 l 1
 689 152 l 1
 756 152 l 1
 756 94 l 1
 689 94 l 1
 689 0 l 1
 625 0 l 1
 625 94 l 1
 419 94 l 1x7bc0
625 152 m 1
 625 339 l 1
 623 339 l 1
 481 152 l 1
 625 152 l 1
653 703 m 1
 211 -19 l 1
 154 -19 l 1xbbc0
 596 703 l 1
 653 703 l 1
181 580 m 1
 73 580 l 1x7bc0
 73 623 l 1x7dc0
 147 628 178 634 196 703 c 1
 249 703 l 1
 249 281 l 1
 181 281 l 1
 181 580 l 1
EndSplineSet
EndChar

StartChar: divide
Encoding: 247 247 159
Width: 584
Flags: MW
HStem: -19 136<274 310.5> 216 73<39 545 39 545> 388 136<274 310.5>
VStem: 224 136<32 67.5 32 68 439 474.5>
CounterMasks: 1 e0
LayerCount: 2
Fore
SplineSet
545 216 m 1
 39 216 l 1
 39 289 l 1
 545 289 l 1
 545 216 l 1
224 456 m 0
 224 494 256 524 292 524 c 0
 329 524 360 493 360 456 c 0
 360 422 329 388 292 388 c 0
 256 388 224 419 224 456 c 0
224 49 m 0
 224 87 256 117 292 117 c 0
 329 117 360 86 360 49 c 0
 360 15 329 -19 292 -19 c 0
 256 -19 224 12 224 49 c 0
EndSplineSet
EndChar

StartChar: brokenbar
Encoding: 166 166 160
Width: 260
Flags: MW
HStem: -19 21G<94 94 94 167> 460 277<94 167 94 167>
VStem: 94 73<-19 275 -19 275 460 737>
LayerCount: 2
Fore
SplineSet
94 -19 m 1
 94 275 l 1
 167 275 l 1
 167 -19 l 1
 94 -19 l 1
94 460 m 1
 94 737 l 1
 167 737 l 1
 167 460 l 1
 94 460 l 1
EndSplineSet
EndChar

StartChar: degree
Encoding: 176 176 161
Width: 400
Flags: MW
HStem: 411 43<173.5 226.5 173.5 241.5> 660 43<173.5 226.5>
VStem: 54 48<530.5 583.5 530.5 598.5> 298 48<530.5 583.5>
LayerCount: 2
Fore
SplineSet
200 660 m 0
 147 660 102 610 102 557 c 0
 102 504 147 454 200 454 c 0
 253 454 298 504 298 557 c 0
 298 610 253 660 200 660 c 0
346 557 m 0
 346 474 283 411 200 411 c 0
 117 411 54 474 54 557 c 0
 54 640 117 703 200 703 c 0
 283 703 346 640 346 557 c 0
EndSplineSet
EndChar

StartChar: thorn
Encoding: 254 254 162
Width: 556
Flags: MW
HStem: -207 21G<58 58 58 146> -15 76<257 333 257 376> 459 79<251.5 351> 698 20G<58 146 146 146>
VStem: 58 88<-207 55 451 718> 426 91<214.5 296.5>
LayerCount: 2
Fore
SplineSet
142 237 m 0
 142 98 229 61 285 61 c 0
 381 61 426 148 426 263 c 0
 426 330 419 459 283 459 c 0
 156 459 142 322 142 237 c 0
58 -207 m 1
 58 718 l 1
 146 718 l 1
 146 451 l 1
 148 451 l 1
 166 479 204 538 299 538 c 0
 438 538 517 424 517 277 c 0
 517 152 465 -15 287 -15 c 0
 217 -15 171 18 148 55 c 1
 146 55 l 1
 146 -207 l 1
 58 -207 l 1
EndSplineSet
EndChar

StartChar: threequarters
Encoding: 190 190 163
Width: 834
Flags: MW
HStem: -19 21G<213 270 213 213> 0 21G<679 743 679 679> 94 58<535 679 535 679 743 810> 270 58<181 228 161.5 257.5> 339 83<677 743 677 743> 471 51<169 192 169 196> 505 17 645 58<164.5 232.5>
VStem: 45 68<410 410> 56 61<565 596> 169 120<503 505 503 522 503 522> 278 70<565 599.5> 295 70<374.5 434 371.5 434.5> 473 62<152 152 152 154 152 154> 679 64<0 94 0 94 152 339 339 339>
LayerCount: 2
Fore
SplineSet
473 94 m 1x754e
 473 154 l 1
 679 422 l 1
 743 422 l 1xbd8e
 743 152 l 1
 810 152 l 1
 810 94 l 1
 743 94 l 1
 743 0 l 1
 679 0 l 1
 679 94 l 1
 473 94 l 1x754e
677 339 m 1
 535 152 l 1
 679 152 l 1
 679 339 l 1
 677 339 l 1
712 703 m 1
 270 -19 l 1
 213 -19 l 1
 655 703 l 1
 712 703 l 1
45 410 m 1
 113 410 l 1
 115 375 124 328 199 328 c 0
 257 328 295 350 295 399 c 0x758e
 295 470 231 471 192 471 c 2
 169 471 l 1
 169 522 l 1x756e
 196 522 l 2x7556
 240 522 278 536 278 589 c 0
 278 610 267 645 198 645 c 0
 131 645 119 600 117 565 c 1
 56 565 l 1
 56 627 87 703 207 703 c 0
 295 703 348 656 348 592 c 0x7356
 348 538 314 512 289 505 c 1
 289 503 l 1
 334 491 365 462 365 406 c 0
 365 337 317 270 198 270 c 0
 164 270 136 278 114 289 c 0x738e
 63 313 49 362 45 410 c 1
EndSplineSet
EndChar

StartChar: twosuperior
Encoding: 178 178 164
Width: 333
Flags: MW
HStem: 281 61<79 323 79 323> 645 58<152.5 202.5>
VStem: 19 60<552 552> 253 70<551.5 579>
LayerCount: 2
Fore
SplineSet
79 552 m 1
 19 552 l 1
 19 689 128 703 177 703 c 0
 259 703 323 655 323 577 c 0
 323 501 270 468 204 435 c 2
 159 412 l 2
 112 387 93 365 79 342 c 1
 323 342 l 1
 323 281 l 1
 4 281 l 1
 8 369 50 416 108 448 c 2
 168 481 l 2
 220 509 253 524 253 579 c 0
 256 609 236 645 169 645 c 0
 85 645 81 577 79 552 c 1
EndSplineSet
EndChar

StartChar: registered
Encoding: 174 174 165
Width: 737
Flags: MW
HStem: -19 63<283.5 455.5 283.5 473> 330 56<290 369 290 366> 521 56<290 380 290 290> 674 63<283.5 455.5>
VStem: -14 76<269 449.5 269 468.5> 224 66<141 330 386 521> 475 69<423.5 484> 676 76<269 449.5>
LayerCount: 2
Fore
SplineSet
370 -19 m 0
 162 -19 -14 141 -14 360 c 0
 -14 577 162 737 370 737 c 0
 576 737 752 577 752 360 c 0
 752 141 576 -19 370 -19 c 0
62 360 m 0
 62 178 197 44 370 44 c 0
 541 44 676 178 676 360 c 0
 676 539 541 674 370 674 c 0
 197 674 62 539 62 360 c 0
290 330 m 1
 290 141 l 1
 224 141 l 1
 224 577 l 1
 390 577 l 2
 493 577 544 539 544 453 c 0
 544 375 495 341 431 333 c 1
 555 141 l 1
 481 141 l 1
 366 330 l 1
 290 330 l 1
290 386 m 1
 369 386 l 2
 425 386 475 390 475 457 c 0
 475 511 426 521 380 521 c 2
 290 521 l 1
 290 386 l 1
EndSplineSet
EndChar

StartChar: minus
Encoding: 8722 8722 166
Width: 584
Flags: MW
HStem: 216 73<39 545 39 545>
VStem: 39 506<216 289 216 289>
LayerCount: 2
Fore
SplineSet
545 216 m 1
 39 216 l 1
 39 289 l 1
 545 289 l 1
 545 216 l 1
EndSplineSet
EndChar

StartChar: eth
Encoding: 240 240 167
Width: 556
Flags: MW
HStem: -15 76<214 337.5> 447 76<214 280.5 189.5 342> 677 20G<469 469> 681 20G<151 151> 717 20G<225 225 422 422>
VStem: 35 91<226.5 281.5 226.5 320> 430 92<226.5 281.5>
LayerCount: 2
Fore
SplineSet
126 254 m 0xce
 126 199 150 61 278 61 c 0
 406 61 430 199 430 254 c 0
 430 309 406 447 278 447 c 0
 150 447 126 309 126 254 c 0xce
469 697 m 1xee
 362 646 l 1xee
 464 552 522 426 522 298 c 0
 522 58 389 -15 286 -15 c 0
 111 -15 35 122 35 254 c 0
 35 386 115 523 264 523 c 0
 297 523 350 519 397 468 c 1
 399 470 l 1
 376 527 330 578 288 612 c 1
 164 550 l 1
 122 592 l 1
 240 649 l 1
 213 670 182 688 151 701 c 1xde
 225 737 l 1
 258 724 289 707 316 686 c 1
 422 737 l 1xce
 469 697 l 1xee
EndSplineSet
EndChar

StartChar: multiply
Encoding: 215 215 168
Width: 584
Flags: MW
HStem: 0 21G<90 90 494 494>
VStem: 39 506<51 51 51 455>
LayerCount: 2
Fore
SplineSet
241 253 m 1
 39 455 l 1
 91 506 l 1
 292 305 l 1
 494 506 l 1
 545 455 l 1
 344 253 l 1
 545 51 l 1
 494 0 l 1
 292 201 l 1
 90 0 l 1
 39 51 l 1
 241 253 l 1
EndSplineSet
EndChar

StartChar: threesuperior
Encoding: 179 179 169
Width: 333
Flags: MW
HStem: 270 58<141 188 121.5 217.5> 471 51<129 152 129 156> 505 17 645 58<124.5 192.5>
VStem: 5 68<410 410> 16 61<565 596> 129 120<503 505 503 522 503 522> 238 70<565 599.5> 255 70<374.5 434 371.5 434.5>
LayerCount: 2
Fore
SplineSet
5 410 m 1xb880
 73 410 l 1
 75 375 84 328 159 328 c 0
 217 328 255 350 255 399 c 0xd880
 255 470 191 471 152 471 c 2
 129 471 l 1
 129 522 l 1xd680
 156 522 l 2xd5
 200 522 238 536 238 589 c 0
 238 610 227 645 158 645 c 0
 91 645 79 600 77 565 c 1
 16 565 l 1
 16 627 47 703 167 703 c 0
 255 703 308 656 308 592 c 0xb5
 308 538 274 512 249 505 c 1
 249 503 l 1
 294 491 325 462 325 406 c 0
 325 337 277 270 158 270 c 0
 124 270 96 278 74 289 c 0
 23 313 9 362 5 410 c 1xb880
EndSplineSet
EndChar

StartChar: copyright
Encoding: 169 169 170
Width: 737
Flags: MW
HStem: -19 63<283.5 455.5 283.5 473> 128 66<337.5 414.5 337.5 429> 526 66<333 411.5> 674 63<283.5 455.5>
VStem: -14 76<269 449.5 269 468.5> 160 76<317 408.5 317 427.5> 676 76<269 449.5>
LayerCount: 2
Fore
SplineSet
370 -19 m 0
 162 -19 -14 141 -14 360 c 0
 -14 577 162 737 370 737 c 0
 576 737 752 577 752 360 c 0
 752 141 576 -19 370 -19 c 0
62 360 m 0
 62 178 197 44 370 44 c 0
 541 44 676 178 676 360 c 0
 676 539 541 674 370 674 c 0
 197 674 62 539 62 360 c 0
501 289 m 1
 569 289 l 1
 550 190 475 128 383 128 c 0
 247 128 160 230 160 361 c 0
 160 494 243 592 379 592 c 0
 475 592 554 537 568 435 c 1
 501 435 l 1
 489 490 443 526 380 526 c 0
 286 526 236 455 236 362 c 0
 236 272 292 194 383 194 c 0
 446 194 492 233 501 289 c 1
EndSplineSet
EndChar

StartChar: Euro
Encoding: 8364 8364 229
Width: 556
Flags: MW
HStem: -18 82<314 393.5> 238 71<48 92 48 99 24 92 188 399 188 188> 379 71<48 92 24 98 188 448> 620 83<310.5 390.5 274.5 399.5>
VStem: 91 87<339 351.5 339 351.5>
LayerCount: 2
Fore
SplineSet
513 659 m 1
 513 568 l 1
 485 596 435 620 364 620 c 0
 257 620 202 549 188 450 c 1
 473 450 l 1
 448 379 l 1
 179 379 l 1
 178 370 178 357 178 346 c 0
 178 332 178 318 179 309 c 1
 423 309 l 1
 399 238 l 1
 188 238 l 1
 204 127 264 64 364 64 c 0
 435 64 482 88 513 116 c 1
 513 24 l 1
 490 5 434 -18 353 -18 c 0
 215 -18 124 63 99 238 c 1
 24 238 l 1
 48 309 l 1
 92 309 l 1
 91 318 91 332 91 345 c 0
 91 358 91 370 92 379 c 1
 24 379 l 1
 48 450 l 1
 98 450 l 1
 120 597 196 703 353 703 c 0
 428 703 487 680 513 659 c 1
EndSplineSet
EndChar

StartChar: combCartExtHalfTok
Encoding: 65537 -1 249
Width: 0
GlyphClass: 2
Flags: MW
HStem: -200 100<-514 0 -500 0> 900 100<-514 0 -500 0>
LayerCount: 2
Fore
SplineSet
-550 -150 m 0
 -550 -122 -528 -100 -500 -100 c 2
 0 -100 l 2
 28 -100 50 -122 50 -150 c 0
 50 -178 28 -200 0 -200 c 2
 -500 -200 l 2
 -528 -200 -550 -178 -550 -150 c 0
-550 950 m 0
 -550 978 -528 1000 -500 1000 c 2
 0 1000 l 2
 28 1000 50 978 50 950 c 0
 50 922 28 900 0 900 c 2
 -500 900 l 2
 -528 900 -550 922 -550 950 c 0
EndSplineSet
MultipleSubs2: "nasin-nanpa-Multiple Substitution in Latin lookup 11 subtable" combCartExtHalfTok combCartExtNoneTok
MultipleSubs2: "nasin-nanpa-Multiple Substitution in Latin lookup 10 subtable" combCartExtHalfTok combCartExtNoneTok
EndChar

StartChar: combLongGlyphExtHalfTok
Encoding: 65538 -1 250
Width: 0
GlyphClass: 2
Flags: MW
HStem: -200 100<-514 0 -500 0>
LayerCount: 2
Fore
SplineSet
-550 -150 m 0
 -550 -122 -528 -100 -500 -100 c 2
 0 -100 l 2
 28 -100 50 -122 50 -150 c 0
 50 -178 28 -200 0 -200 c 2
 -500 -200 l 2
 -528 -200 -550 -178 -550 -150 c 0
EndSplineSet
MultipleSubs2: "nasin-nanpa-Multiple Substitution in Latin lookup 11 subtable" combLongGlyphExtHalfTok combCartExtNoneTok
MultipleSubs2: "nasin-nanpa-Multiple Substitution in Latin lookup 10 subtable" combLongGlyphExtHalfTok combCartExtNoneTok
EndChar

StartChar: combCartExt1TickTok
Encoding: 65540 -1 252
Width: 0
GlyphClass: 2
Flags: MW
HStem: -300 200<-514 -486>
VStem: -550 100<-250 -150>
LayerCount: 2
Fore
SplineSet
-500 -100 m 0
 -472 -100 -450 -122 -450 -150 c 2
 -450 -250 l 2
 -450 -278 -472 -300 -500 -300 c 0
 -528 -300 -550 -278 -550 -250 c 2
 -550 -150 l 2
 -550 -122 -528 -100 -500 -100 c 0
EndSplineSet
MultipleSubs2: "nasin-nanpa-Multiple Substitution in Latin lookup 11 subtable" combCartExt1TickTok combCartExtNoneTok
MultipleSubs2: "nasin-nanpa-Multiple Substitution in Latin lookup 10 subtable" combCartExt1TickTok combCartExtNoneTok
EndChar

StartChar: combCartExt2TickTok
Encoding: 65541 -1 253
Width: 0
GlyphClass: 2
Flags: MW
HStem: -300 200<-614 -586 -414 -386>
VStem: -650 100<-250 -150> -450 100<-250 -150>
LayerCount: 2
Fore
SplineSet
-400 -100 m 0
 -372 -100 -350 -122 -350 -150 c 2
 -350 -250 l 2
 -350 -278 -372 -300 -400 -300 c 0
 -428 -300 -450 -278 -450 -250 c 2
 -450 -150 l 2
 -450 -122 -428 -100 -400 -100 c 0
-600 -100 m 0
 -572 -100 -550 -122 -550 -150 c 2
 -550 -250 l 2
 -550 -278 -572 -300 -600 -300 c 0
 -628 -300 -650 -278 -650 -250 c 2
 -650 -150 l 2
 -650 -122 -628 -100 -600 -100 c 0
EndSplineSet
MultipleSubs2: "nasin-nanpa-Multiple Substitution in Latin lookup 11 subtable" combCartExt2TickTok combCartExtNoneTok
MultipleSubs2: "nasin-nanpa-Multiple Substitution in Latin lookup 10 subtable" combCartExt2TickTok combCartExtNoneTok
EndChar

StartChar: combCartExt3TickTok
Encoding: 65542 -1 254
Width: 0
GlyphClass: 2
Flags: MW
HStem: -300 200<-714 -686 -514 -486 -314 -286>
VStem: -750 100<-250 -150> -550 100<-250 -150> -350 100<-250 -150>
CounterMasks: 1 70
LayerCount: 2
Fore
SplineSet
-300 -100 m 0
 -272 -100 -250 -122 -250 -150 c 2
 -250 -250 l 2
 -250 -278 -272 -300 -300 -300 c 0
 -328 -300 -350 -278 -350 -250 c 2
 -350 -150 l 2
 -350 -122 -328 -100 -300 -100 c 0
-500 -100 m 0
 -472 -100 -450 -122 -450 -150 c 2
 -450 -250 l 2
 -450 -278 -472 -300 -500 -300 c 0
 -528 -300 -550 -278 -550 -250 c 2
 -550 -150 l 2
 -550 -122 -528 -100 -500 -100 c 0
-700 -100 m 0
 -672 -100 -650 -122 -650 -150 c 2
 -650 -250 l 2
 -650 -278 -672 -300 -700 -300 c 0
 -728 -300 -750 -278 -750 -250 c 2
 -750 -150 l 2
 -750 -122 -728 -100 -700 -100 c 0
EndSplineSet
MultipleSubs2: "nasin-nanpa-Multiple Substitution in Latin lookup 11 subtable" combCartExt3TickTok combCartExtNoneTok
MultipleSubs2: "nasin-nanpa-Multiple Substitution in Latin lookup 10 subtable" combCartExt3TickTok combCartExtNoneTok
EndChar

StartChar: combCartExt4TickTok
Encoding: 65543 -1 255
Width: 0
GlyphClass: 2
Flags: MW
HStem: -300 200<-814 -786 -614 -586 -414 -386 -214 -186>
VStem: -850 100<-250 -150> -650 100<-250 -150> -450 100<-250 -150> -250 100<-250 -150>
LayerCount: 2
Fore
SplineSet
-400 -100 m 0
 -372 -100 -350 -122 -350 -150 c 2
 -350 -250 l 2
 -350 -278 -372 -300 -400 -300 c 0
 -428 -300 -450 -278 -450 -250 c 2
 -450 -150 l 2
 -450 -122 -428 -100 -400 -100 c 0
-200 -100 m 0
 -172 -100 -150 -122 -150 -150 c 2
 -150 -250 l 2
 -150 -278 -172 -300 -200 -300 c 0
 -228 -300 -250 -278 -250 -250 c 2
 -250 -150 l 2
 -250 -122 -228 -100 -200 -100 c 0
-600 -100 m 0
 -572 -100 -550 -122 -550 -150 c 2
 -550 -250 l 2
 -550 -278 -572 -300 -600 -300 c 0
 -628 -300 -650 -278 -650 -250 c 2
 -650 -150 l 2
 -650 -122 -628 -100 -600 -100 c 0
-800 -100 m 0
 -772 -100 -750 -122 -750 -150 c 2
 -750 -250 l 2
 -750 -278 -772 -300 -800 -300 c 0
 -828 -300 -850 -278 -850 -250 c 2
 -850 -150 l 2
 -850 -122 -828 -100 -800 -100 c 0
EndSplineSet
MultipleSubs2: "nasin-nanpa-Multiple Substitution in Latin lookup 11 subtable" combCartExt4TickTok combCartExtNoneTok
MultipleSubs2: "nasin-nanpa-Multiple Substitution in Latin lookup 10 subtable" combCartExt4TickTok combCartExtNoneTok
EndChar

StartChar: startCartTok
Encoding: 65544 989584 256
Width: 500
GlyphClass: 2
Flags: MW
HStem: -200 100<403.5 514 403.5 514> 900 100<403.5 514>
VStem: 10 100<250 550>
LayerCount: 2
Fore
SplineSet
110 250 m 2
 110 58 307 -100 500 -100 c 0
 528 -100 550 -122 550 -150 c 0
 550 -178 528 -200 500 -200 c 0
 251 -200 10 0 10 250 c 2
 10 550 l 2
 10 800 251 1000 500 1000 c 0
 528 1000 550 978 550 950 c 0
 550 922 528 900 500 900 c 0
 307 900 110 742 110 550 c 2
 110 250 l 2
EndSplineSet
EndChar

StartChar: endCartTok
Encoding: 65545 989585 257
Width: 500
GlyphClass: 2
Flags: MW
HStem: -200 100<-14 96.5 -14 124.5> 900 100<-14 96.5>
VStem: 390 100<250 550>
LayerCount: 2
Fore
SplineSet
0 -100 m 0
 193 -100 390 58 390 250 c 2
 390 550 l 2
 390 742 193 900 0 900 c 0
 -28 900 -50 922 -50 950 c 0
 -50 978 -28 1000 0 1000 c 0
 249 1000 490 800 490 550 c 2
 490 250 l 2
 490 0 249 -200 0 -200 c 0
 -28 -200 -50 -178 -50 -150 c 0
 -50 -122 -28 -100 0 -100 c 0
EndSplineSet
EndChar

StartChar: combCartExtTok
Encoding: 65546 989586 258
Width: 0
GlyphClass: 2
Flags: MW
HStem: -200 100<-1014 0 -1000 0> 900 100<-1014 0 -1000 0>
LayerCount: 2
Fore
SplineSet
-1050 -150 m 0
 -1050 -122 -1028 -100 -1000 -100 c 2
 0 -100 l 2
 28 -100 50 -122 50 -150 c 0
 50 -178 28 -200 0 -200 c 2
 -1000 -200 l 2
 -1028 -200 -1050 -178 -1050 -150 c 0
-1050 950 m 0
 -1050 978 -1028 1000 -1000 1000 c 2
 0 1000 l 2
 28 1000 50 978 50 950 c 0
 50 922 28 900 0 900 c 2
 -1000 900 l 2
 -1028 900 -1050 922 -1050 950 c 0
EndSplineSet
EndChar

StartChar: startLongPiTok
Encoding: 65547 989587 259
Width: 1000
GlyphClass: 2
Flags: MW
HStem: -200 100<486 1000 550 1000 550 1000>
VStem: 450 100<-100 850 -100 850 -100 864>
LayerCount: 2
Fore
SplineSet
500 900 m 0
 528 900 550 878 550 850 c 2
 550 -100 l 1
 1000 -100 l 2
 1028 -100 1050 -122 1050 -150 c 0
 1050 -178 1028 -200 1000 -200 c 2
 500 -200 l 2
 472 -200 450 -178 450 -150 c 2
 450 850 l 2
 450 878 472 900 500 900 c 0
EndSplineSet
EndChar

StartChar: combLongPiExtTok
Encoding: 65548 989588 260
Width: 0
GlyphClass: 2
Flags: MW
HStem: -200 100<-1014 0 -1000 0>
LayerCount: 2
Fore
SplineSet
-1050 -150 m 0
 -1050 -122 -1028 -100 -1000 -100 c 2
 0 -100 l 2
 28 -100 50 -122 50 -150 c 0
 50 -178 28 -200 0 -200 c 2
 -1000 -200 l 2
 -1028 -200 -1050 -178 -1050 -150 c 0
EndSplineSet
EndChar

StartChar: startLongGlyphTok
Encoding: 65551 989591 263
Width: 0
GlyphClass: 2
Flags: MW
HStem: -200 100<-14 14>
VStem: -50 100<-164 -136>
LayerCount: 2
Fore
SplineSet
0 -200 m 0
 -28 -200 -50 -178 -50 -150 c 0
 -50 -122 -28 -100 0 -100 c 0
 28 -100 50 -122 50 -150 c 0
 50 -178 28 -200 0 -200 c 0
EndSplineSet
EndChar

StartChar: endLongGlyphTok
Encoding: 65552 989592 264
Width: 0
GlyphClass: 2
Flags: MW
HStem: -200 100<-14 14>
VStem: -50 100<-164 -136>
LayerCount: 2
Fore
SplineSet
0 -200 m 0
 -28 -200 -50 -178 -50 -150 c 0
 -50 -122 -28 -100 0 -100 c 0
 28 -100 50 -122 50 -150 c 0
 50 -178 28 -200 0 -200 c 0
EndSplineSet
EndChar

StartChar: combLongGlyphExtTok
Encoding: 65553 989593 265
Width: 0
GlyphClass: 2
Flags: MW
HStem: -200 100<-1014 0 -1000 0>
LayerCount: 2
Fore
SplineSet
-1050 -150 m 0
 -1050 -122 -1028 -100 -1000 -100 c 2
 0 -100 l 2
 28 -100 50 -122 50 -150 c 0
 50 -178 28 -200 0 -200 c 2
 -1000 -200 l 2
 -1028 -200 -1050 -178 -1050 -150 c 0
EndSplineSet
EndChar

StartChar: startRevLongGlyphTok
Encoding: 65554 989594 266
Width: 0
GlyphClass: 2
Flags: MW
HStem: -200 100<-14 14>
VStem: -50 100<-164 -136>
LayerCount: 2
Fore
SplineSet
0 -200 m 0
 -28 -200 -50 -178 -50 -150 c 0
 -50 -122 -28 -100 0 -100 c 0
 28 -100 50 -122 50 -150 c 0
 50 -178 28 -200 0 -200 c 0
EndSplineSet
EndChar

StartChar: endRevLongGlyphTok
Encoding: 65555 989595 267
Width: 0
GlyphClass: 2
Flags: MW
HStem: -200 100<-14 14>
VStem: -50 100<-164 -136>
LayerCount: 2
Fore
SplineSet
0 -200 m 0
 -28 -200 -50 -178 -50 -150 c 0
 -50 -122 -28 -100 0 -100 c 0
 28 -100 50 -122 50 -150 c 0
 50 -178 28 -200 0 -200 c 0
EndSplineSet
EndChar

StartChar: startCartAltTok
Encoding: 65556 -1 268
Width: 500
GlyphClass: 3
Flags: MW
HStem: -200 100<442 514 442 514> 310 180<101 139.5> 900 100<442 514>
VStem: 165 100<109 275 525 691>
CounterMasks: 1 e0
LayerCount: 2
Fore
SplineSet
500 900 m 0
 384 900 265 804 265 691 c 2
 265 525 l 2
 265 469 230 420 181 400 c 1
 230 380 265 331 265 275 c 2
 265 109 l 2
 265 -4 384 -100 500 -100 c 0
 528 -100 550 -122 550 -150 c 0
 550 -178 528 -200 500 -200 c 0
 331 -200 165 -62 165 109 c 2
 165 275 l 2
 165 294 149 310 130 310 c 0
 72 310 25 349 25 400 c 0
 25 451 72 490 130 490 c 0
 149 490 165 506 165 525 c 2
 165 691 l 2
 165 862 331 1000 500 1000 c 0
 528 1000 550 978 550 950 c 0
 550 922 528 900 500 900 c 0
EndSplineSet
Ligature2: "nasin-nanpa-'liga' Standard Ligatures in Latin lookup 1 subtable" startCartTok VAR01
EndChar

StartChar: endCartAltTok
Encoding: 65557 -1 269
Width: 500
GlyphClass: 3
Flags: MW
HStem: -200 100<-14 58 -14 84.5> 310 180<360.5 399> 900 100<-14 58>
VStem: 235 100<109 275 525 691>
CounterMasks: 1 e0
LayerCount: 2
Fore
SplineSet
235 691 m 2
 235 804 116 900 0 900 c 0
 -28 900 -50 922 -50 950 c 0
 -50 978 -28 1000 0 1000 c 0
 169 1000 335 862 335 691 c 2
 335 525 l 2
 335 506 351 490 370 490 c 0
 428 490 475 451 475 400 c 0
 475 349 428 310 370 310 c 0
 351 310 335 294 335 275 c 2
 335 109 l 2
 335 -62 169 -200 0 -200 c 0
 -28 -200 -50 -178 -50 -150 c 0
 -50 -122 -28 -100 0 -100 c 0
 116 -100 235 -4 235 109 c 2
 235 275 l 2
 235 331 270 380 319 400 c 1
 270 420 235 469 235 525 c 2
 235 691 l 2
EndSplineSet
Ligature2: "nasin-nanpa-'liga' Standard Ligatures in Latin lookup 1 subtable" endCartTok VAR01
EndChar

StartChar: aTok_startLongGlyphTok
Encoding: 65558 -1 270
Width: 1000
GlyphClass: 3
Flags: MW
HStem: -200 100<472.5 527.5 472.5 536.5 856 1000> 100 100<472.5 527.5>
VStem: 300 100<-27.5 27.5 -27.5 55> 450 100<300 750> 600 450<-164 27.5>
LayerCount: 2
Fore
SplineSet
550 750 m 2
 550 300 l 2
 550 272 528 250 500 250 c 0
 472 250 450 272 450 300 c 2
 450 750 l 2
 450 778 472 800 500 800 c 0
 528 800 550 778 550 750 c 2
672 -102 m 1
 637 -160 573 -200 500 -200 c 0
 390 -200 300 -110 300 0 c 0
 300 110 390 200 500 200 c 0
 558 200 610 176 646 137 c 1
 678 109 692 72 709 36 c 0
 718 17 727 -1 737 -19 c 0
 765 -68 798 -100 856 -100 c 2
 1000 -100 l 2
 1028 -100 1050 -122 1050 -150 c 0
 1050 -178 1028 -200 1000 -200 c 2
 856 -200 l 2
 765 -200 709 -153 672 -102 c 1
500 -100 m 0
 555 -100 600 -55 600 0 c 0
 600 55 555 100 500 100 c 0
 445 100 400 55 400 0 c 0
 400 -55 445 -100 500 -100 c 0
EndSplineSet
Ligature2: "nasin-nanpa-'liga' Standard Ligatures in Latin lookup 2 subtable" aTok startLongGlyphTok
EndChar

StartChar: alasaTok_startLongGlyphTok
Encoding: 65559 -1 271
Width: 1000
GlyphClass: 3
Flags: MW
HStem: -200 100<329.5 1000 350 1000> 2 101<300 300> 350 100<86 200 100 200 300 541 642 779>
VStem: 200 100<-50 2 103 350 450 697> 541 101<350 350 350 450>
LayerCount: 2
Fore
SplineSet
642 350 m 1
 621 168 496 22 300 2 c 1
 300 -50 l 2
 300 -74 306 -84 311 -89 c 0
 316 -94 326 -100 350 -100 c 2
 1000 -100 l 2
 1028 -100 1050 -122 1050 -150 c 0
 1050 -178 1028 -200 1000 -200 c 2
 350 -200 l 2
 309 -200 269 -189 240 -160 c 0
 211 -131 200 -91 200 -50 c 2
 200 350 l 1
 100 350 l 2
 72 350 50 372 50 400 c 0
 50 428 72 450 100 450 c 2
 200 450 l 1
 200 750 l 2
 200 778 222 800 250 800 c 0
 479 800 619 646 642 450 c 1
 779 450 l 1
 715 515 l 2
 705 525 700 537 700 550 c 0
 700 577 723 600 750 600 c 0
 763 600 775 595 785 585 c 2
 935 435 l 2
 943 427 950 415 950 400 c 0
 950 385 943 373 935 365 c 2
 785 215 l 2
 775 205 763 200 750 200 c 0
 723 200 700 223 700 250 c 0
 700 263 705 275 715 285 c 2
 779 350 l 1
 642 350 l 1
300 350 m 1
 300 103 l 1
 441 121 522 221 541 350 c 1
 300 350 l 1
541 450 m 1
 522 578 441 679 300 697 c 1
 300 450 l 1
 541 450 l 1
EndSplineSet
Ligature2: "nasin-nanpa-'liga' Standard Ligatures in Latin lookup 2 subtable" alasaTok startLongGlyphTok
EndChar

StartChar: anuTok_startLongGlyphTok
Encoding: 65560 -1 272
Width: 1000
GlyphClass: 3
Flags: MW
HStem: -200 100<579.5 1000 600 1000>
VStem: 450 100<-50 421>
LayerCount: 2
Fore
SplineSet
150 750 m 0
 150 777 173 800 200 800 c 0
 213 800 226 795 236 785 c 2
 500 513 l 1
 764 785 l 2
 774 795 787 800 800 800 c 0
 827 800 850 777 850 750 c 0
 850 737 845 725 836 715 c 2
 550 421 l 1
 550 -50 l 2
 550 -74 556 -84 561 -89 c 0
 566 -94 576 -100 600 -100 c 2
 1000 -100 l 2
 1028 -100 1050 -122 1050 -150 c 0
 1050 -178 1028 -200 1000 -200 c 2
 600 -200 l 2
 559 -200 519 -189 490 -160 c 0
 461 -131 450 -91 450 -50 c 2
 450 421 l 1
 164 715 l 2
 155 725 150 737 150 750 c 0
EndSplineSet
Ligature2: "nasin-nanpa-'liga' Standard Ligatures in Latin lookup 2 subtable" anuTok startLongGlyphTok
EndChar

StartChar: awenTok_startLongGlyphTok
Encoding: 65561 -1 273
Width: 1000
GlyphClass: 3
Flags: MW
HStem: -200 100<86 212 100 212 100 250 788 1000>
LayerCount: 2
Fore
SplineSet
500 800 m 0
 522 800 542 785 548 763 c 2
 788 -100 l 1
 1000 -100 l 2
 1028 -100 1050 -122 1050 -150 c 0
 1050 -178 1028 -200 1000 -200 c 2
 750 -200 l 2
 728 -200 708 -185 702 -163 c 2
 500 563 l 1
 298 -163 l 2
 292 -185 272 -200 250 -200 c 2
 100 -200 l 2
 72 -200 50 -178 50 -150 c 0
 50 -122 72 -100 100 -100 c 2
 212 -100 l 1
 452 763 l 2
 458 785 478 800 500 800 c 0
EndSplineSet
Ligature2: "nasin-nanpa-'liga' Standard Ligatures in Latin lookup 2 subtable" awenTok startLongGlyphTok
EndChar

StartChar: kamaTok_startLongGlyphTok
Encoding: 65562 -1 274
Width: 1000
GlyphClass: 3
Flags: MW
HStem: -200 100<993.5 1014 993.5 1014> 0 100<586 638 586 650.5>
LayerCount: 2
Fore
SplineSet
50 138 m 0
 50 166 74 188 100 188 c 0
 111 188 123 184 132 176 c 0
 186 131 243 107 315 101 c 1
 553 767 l 2
 560 787 579 800 600 800 c 0
 620 800 638 788 646 769 c 2
 876 207 l 2
 907 136 918 58 941 -18 c 0
 951 -50 960 -72 971 -85 c 0
 980 -96 987 -100 1000 -100 c 0
 1028 -100 1050 -122 1050 -150 c 0
 1050 -178 1028 -200 1000 -200 c 0
 907 -200 867 -120 845 -47 c 0
 833 -7 824 38 813 79 c 1
 769 38 701 0 600 0 c 0
 572 0 550 22 550 50 c 0
 550 78 572 100 600 100 c 0
 676 100 722 128 748 154 c 0
 761 167 769 179 775 189 c 1
 603 610 l 1
 397 33 l 2
 390 13 371 0 350 0 c 0
 239 0 150 31 68 99 c 0
 56 109 50 124 50 138 c 0
EndSplineSet
Ligature2: "nasin-nanpa-'liga' Standard Ligatures in Latin lookup 2 subtable" kamaTok startLongGlyphTok
EndChar

StartChar: kenTok_startLongGlyphTok
Encoding: 65563 -1 275
Width: 1000
GlyphClass: 3
Flags: MW
HStem: -200 100<850 1000> 299 102<300 300>
VStem: 200 100<-50 299 401 750> 700 100<-62 -50 -50 -49 -49 -48 -62 -41 741 764>
LayerCount: 2
Fore
SplineSet
800 -49 m 1
 800 -50 l 2
 800 -74 806 -84 811 -89 c 0
 816 -94 826 -100 850 -100 c 2
 1000 -100 l 2
 1028 -100 1050 -122 1050 -150 c 0
 1050 -178 1028 -200 1000 -200 c 2
 850 -200 l 2
 809 -200 769 -189 740 -160 c 0
 711 -131 700 -91 700 -50 c 0
 700 -32 698 -21 693 2 c 0
 686 35 672 80 645 124 c 0
 596 202 500 287 300 299 c 1
 300 -50 l 2
 300 -78 278 -100 250 -100 c 0
 222 -100 200 -78 200 -50 c 2
 200 750 l 2
 200 778 222 800 250 800 c 0
 278 800 300 778 300 750 c 2
 300 401 l 1
 500 413 596 498 645 576 c 0
 672 620 686 665 693 698 c 0
 698 721 700 732 700 750 c 0
 700 778 722 800 750 800 c 0
 778 800 800 778 800 750 c 0
 800 724 797 707 791 677 c 0
 760 530 671 413 524 350 c 1
 671 287 760 171 791 23 c 0
 797 -7 800 -22 800 -48 c 2
 800 -49 l 1
EndSplineSet
Ligature2: "nasin-nanpa-'liga' Standard Ligatures in Latin lookup 2 subtable" kenTok startLongGlyphTok
EndChar

StartChar: kepekenTok_startLongGlyphTok
Encoding: 65564 -1 276
Width: 1000
GlyphClass: 3
Flags: MW
HStem: -200 100<827 1000> 410 100<206 450 270 450 270 450 550 730> 700 100<270 450 270 270 550 730 550 550>
VStem: 170 100<510 700 510 750 510 764> 450 100<345 410 345 410 510 700> 677 100<-50 40 -62 100> 730 100<510 700 700 700>
LayerCount: 2
Fore
SplineSet
107 120 m 0xfc
 107 145 128 170 157 170 c 0
 173 170 188 162 198 148 c 2
 229 104 l 1
 251 222 334 322 450 345 c 1
 450 410 l 1
 220 410 l 2
 192 410 170 432 170 460 c 2
 170 750 l 2
 170 778 192 800 220 800 c 2
 780 800 l 2
 808 800 830 778 830 750 c 2
 830 460 l 2xfa
 830 432 808 410 780 410 c 2
 550 410 l 1
 550 345 l 1
 686 318 777 183 777 40 c 2
 777 -50 l 2
 777 -74 783 -84 788 -89 c 0
 793 -94 803 -100 827 -100 c 2
 1000 -100 l 2
 1028 -100 1050 -122 1050 -150 c 0
 1050 -178 1028 -200 1000 -200 c 2
 827 -200 l 2
 786 -200 746 -189 717 -160 c 0
 688 -131 677 -91 677 -50 c 2
 677 40 l 2
 677 160 594 250 500 250 c 0
 406 250 323 160 323 40 c 2
 323 -50 l 2
 323 -76 303 -100 273 -100 c 0
 257 -100 240 -92 231 -78 c 2
 116 92 l 2
 110 101 107 110 107 120 c 0xfc
550 510 m 1
 730 510 l 1
 730 700 l 1
 550 700 l 1
 550 510 l 1
450 700 m 1
 270 700 l 1
 270 510 l 1
 450 510 l 1
 450 700 l 1
EndSplineSet
Ligature2: "nasin-nanpa-'liga' Standard Ligatures in Latin lookup 2 subtable" kepekenTok startLongGlyphTok
EndChar

StartChar: laTok_startLongGlyphTok
Encoding: 65565 -1 277
Width: 1000
GlyphClass: 3
Flags: MW
HStem: -200 100<-14 387 0 387> 704 96
VStem: 563 100<229 389>
LayerCount: 2
Fore
SplineSet
337 750 m 0
 337 780 362 800 387 800 c 0
 393 800 399 798 405 796 c 0
 565 732 663 525 663 300 c 0
 663 127 608 -57 511 -147 c 0
 477 -178 435 -200 387 -200 c 2
 0 -200 l 2
 -28 -200 -50 -178 -50 -150 c 0
 -50 -122 -28 -100 0 -100 c 2
 387 -100 l 2
 403 -100 422 -92 443 -73 c 0
 520 -2 563 158 563 300 c 0
 563 478 488 657 369 704 c 0
 349 712 337 730 337 750 c 0
EndSplineSet
Ligature2: "nasin-nanpa-'liga' Standard Ligatures in Latin lookup 2 subtable" endRevLongGlyphTok laTok
EndChar

StartChar: lonTok_startLongGlyphTok
Encoding: 65566 -1 278
Width: 1000
GlyphClass: 3
Flags: MW
HStem: -200 100<86 1000 100 1000> 50 150<479.5 520.5>
VStem: 425 150<104.5 145.5>
LayerCount: 2
Fore
SplineSet
50 -150 m 0
 50 -122 72 -100 100 -100 c 2
 1000 -100 l 2
 1028 -100 1050 -122 1050 -150 c 0
 1050 -178 1028 -200 1000 -200 c 2
 100 -200 l 2
 72 -200 50 -178 50 -150 c 0
575 125 m 0
 575 84 541 50 500 50 c 0
 459 50 425 84 425 125 c 0
 425 166 459 200 500 200 c 0
 541 200 575 166 575 125 c 0
EndSplineSet
Ligature2: "nasin-nanpa-'liga' Standard Ligatures in Latin lookup 2 subtable" lonTok startLongGlyphTok
EndChar

StartChar: nanpaTok_startLongGlyphTok
Encoding: 65567 -1 279
Width: 1000
GlyphClass: 3
Flags: MW
HStem: -200 100<750 1000> 150 100<88 300 102 300 400 600 700 902> 450 100<88 300 102 300 400 600 700 902>
VStem: 300 100<-50 150 250 450 550 750> 600 100<-50 150 250 450 550 750>
LayerCount: 2
Fore
SplineSet
300 -50 m 2
 300 150 l 1
 102 150 l 2
 74 150 52 172 52 200 c 0
 52 228 74 250 102 250 c 2
 300 250 l 1
 300 450 l 1
 102 450 l 2
 74 450 52 472 52 500 c 0
 52 528 74 550 102 550 c 2
 300 550 l 1
 300 750 l 2
 300 778 322 800 350 800 c 0
 378 800 400 778 400 750 c 2
 400 550 l 1
 600 550 l 1
 600 750 l 2
 600 778 622 800 650 800 c 0
 678 800 700 778 700 750 c 2
 700 550 l 1
 902 550 l 2
 930 550 952 528 952 500 c 0
 952 472 930 450 902 450 c 2
 700 450 l 1
 700 250 l 1
 902 250 l 2
 930 250 952 228 952 200 c 0
 952 172 930 150 902 150 c 2
 700 150 l 1
 700 -50 l 2
 700 -74 706 -84 711 -89 c 0
 716 -94 726 -100 750 -100 c 2
 1000 -100 l 2
 1028 -100 1050 -122 1050 -150 c 0
 1050 -178 1028 -200 1000 -200 c 2
 750 -200 l 2
 709 -200 669 -189 640 -160 c 0
 611 -131 600 -91 600 -50 c 2
 600 150 l 1
 400 150 l 1
 400 -50 l 2
 400 -78 378 -100 350 -100 c 0
 322 -100 300 -78 300 -50 c 2
400 450 m 1
 400 250 l 1
 600 250 l 1
 600 450 l 1
 400 450 l 1
EndSplineSet
Ligature2: "nasin-nanpa-'liga' Standard Ligatures in Latin lookup 2 subtable" nanpaTok startLongGlyphTok
EndChar

StartChar: openTok_startLongGlyphTok
Encoding: 65568 -1 280
Width: 1000
GlyphClass: 3
Flags: MW
HStem: -200 100<879.5 1000 900 1000> 0 100<186 750 250 750 250 750> 250 100<250 750 250 750>
VStem: 150 100<100 250 350 750> 750 100<-50 0 0 0 100 250 250 250 350 750>
LayerCount: 2
Fore
SplineSet
200 800 m 0
 228 800 250 778 250 750 c 2
 250 350 l 1
 750 350 l 1
 750 750 l 2
 750 778 772 800 800 800 c 0
 828 800 850 778 850 750 c 2
 850 -50 l 2
 850 -74 856 -84 861 -89 c 0
 866 -94 876 -100 900 -100 c 2
 1000 -100 l 2
 1028 -100 1050 -122 1050 -150 c 0
 1050 -178 1028 -200 1000 -200 c 2
 900 -200 l 2
 859 -200 819 -189 790 -160 c 0
 761 -131 750 -91 750 -50 c 2
 750 0 l 1
 200 0 l 2
 172 0 150 22 150 50 c 2
 150 750 l 2
 150 778 172 800 200 800 c 0
250 250 m 1
 250 100 l 1
 750 100 l 1
 750 250 l 1
 250 250 l 1
EndSplineSet
Ligature2: "nasin-nanpa-'liga' Standard Ligatures in Latin lookup 2 subtable" openTok startLongGlyphTok
EndChar

StartChar: piTok_startLongGlyphTok
Encoding: 65569 -1 281
Width: 1000
GlyphClass: 3
Flags: MW
HStem: -200 100<579.5 1000 600 1000>
VStem: 450 100<-50 750>
LayerCount: 2
Fore
SplineSet
550 750 m 2
 550 -50 l 2
 550 -74 556 -84 561 -89 c 0
 566 -94 576 -100 600 -100 c 2
 1000 -100 l 2
 1028 -100 1050 -122 1050 -150 c 0
 1050 -178 1028 -200 1000 -200 c 2
 600 -200 l 2
 559 -200 519 -189 490 -160 c 0
 461 -131 450 -91 450 -50 c 2
 450 750 l 2
 450 778 472 800 500 800 c 0
 528 800 550 778 550 750 c 2
EndSplineSet
Ligature2: "nasin-nanpa-'liga' Standard Ligatures in Latin lookup 2 subtable" piTok startLongGlyphTok
EndChar

StartChar: piniTok_startLongGlyphTok
Encoding: 65570 -1 282
Width: 1000
GlyphClass: 3
Flags: MW
HStem: -200 100<286 450 300 450 550 1000> 700 100<286 700 300 450 550 700 550 550>
VStem: 450 100<-100 700 -100 700>
LayerCount: 2
Fore
SplineSet
550 700 m 1
 550 -100 l 1
 1000 -100 l 2
 1028 -100 1050 -122 1050 -150 c 0
 1050 -178 1028 -200 1000 -200 c 2
 300 -200 l 2
 272 -200 250 -178 250 -150 c 0
 250 -122 272 -100 300 -100 c 2
 450 -100 l 1
 450 700 l 1
 300 700 l 2
 272 700 250 722 250 750 c 0
 250 778 272 800 300 800 c 2
 700 800 l 2
 728 800 750 778 750 750 c 0
 750 722 728 700 700 700 c 2
 550 700 l 1
EndSplineSet
Ligature2: "nasin-nanpa-'liga' Standard Ligatures in Latin lookup 2 subtable" piniTok startLongGlyphTok
EndChar

StartChar: sonaTok_startLongGlyphTok
Encoding: 65571 -1 283
Width: 1000
GlyphClass: 3
Flags: MW
HStem: -200 100<789.5 1000 810 1000> 0 100<276 660 340 660 340 660> 450 100<340 660 340 340> 650 200<486 514>
VStem: 240 100<100 450 100 500 100 514> 450 100<700 800> 660 100<-50 0 0 0 100 450 450 450>
CounterMasks: 1 0e
LayerCount: 2
Fore
SplineSet
500 850 m 0
 528 850 550 828 550 800 c 2
 550 700 l 2
 550 672 528 650 500 650 c 0
 472 650 450 672 450 700 c 2
 450 800 l 2
 450 828 472 850 500 850 c 0
200 733 m 0
 200 758 221 783 250 783 c 0
 267 783 284 774 293 758 c 2
 343 671 l 2
 348 663 350 654 350 646 c 0
 350 621 329 596 300 596 c 0
 283 596 266 605 257 621 c 2
 207 708 l 2
 202 716 200 725 200 733 c 0
750 783 m 0
 779 783 800 758 800 733 c 0
 800 725 798 716 793 708 c 2
 743 621 l 2
 734 605 717 596 700 596 c 0
 671 596 650 621 650 646 c 0
 650 654 652 663 657 671 c 2
 707 758 l 2
 716 774 733 783 750 783 c 0
240 500 m 2
 240 528 262 550 290 550 c 2
 710 550 l 2
 738 550 760 528 760 500 c 2
 760 -50 l 2
 760 -74 766 -84 771 -89 c 0
 776 -94 786 -100 810 -100 c 2
 1000 -100 l 2
 1028 -100 1050 -122 1050 -150 c 0
 1050 -178 1028 -200 1000 -200 c 2
 810 -200 l 2
 769 -200 729 -189 700 -160 c 0
 671 -131 660 -91 660 -50 c 2
 660 0 l 1
 290 0 l 2
 262 0 240 22 240 50 c 2
 240 500 l 2
660 100 m 1
 660 450 l 1
 340 450 l 1
 340 100 l 1
 660 100 l 1
EndSplineSet
Ligature2: "nasin-nanpa-'liga' Standard Ligatures in Latin lookup 2 subtable" sonaTok startLongGlyphTok
EndChar

StartChar: tawaTok_startLongGlyphTok
Encoding: 65572 -1 284
Width: 1000
GlyphClass: 3
Flags: MW
HStem: -200 100<710.5 1000 756 1000 756 1000> 0 100<359 414 359 414>
LayerCount: 2
Fore
SplineSet
400 800 m 0
 422 800 440 787 447 767 c 2
 756 -100 l 1
 1000 -100 l 2
 1028 -100 1050 -122 1050 -150 c 0
 1050 -178 1028 -200 1000 -200 c 2
 721 -200 l 2
 700 -200 681 -187 674 -167 c 2
 397 610 l 1
 210 151 l 1
 216 147 222 143 231 138 c 0
 264 120 318 100 400 100 c 0
 428 100 450 78 450 50 c 0
 450 22 428 0 400 0 c 0
 301 0 230 24 183 50 c 0
 149 69 130 83 111 107 c 0
 104 116 100 127 100 138 c 0
 100 144 102 150 104 156 c 2
 354 769 l 2
 362 788 380 800 400 800 c 0
EndSplineSet
Ligature2: "nasin-nanpa-'liga' Standard Ligatures in Latin lookup 2 subtable" tawaTok startLongGlyphTok
EndChar

StartChar: wileTok_startLongGlyphTok
Encoding: 65573 -1 285
Width: 1000
GlyphClass: 3
Flags: MW
HStem: -200 100<994.5 1014 994.5 1014> 35 100<291.5 334 291.5 356.5 666 708.5>
VStem: 50 100<360 466.5 360 480> 450 100<254 254> 836 100<63.5 88> 850 100<360 466.5>
LayerCount: 2
Fore
SplineSet
210 775 m 0xf8
 238 775 260 751 260 725 c 0
 260 715 257 704 250 695 c 0
 202 631 150 534 150 399 c 0
 150 321 164 253 193 206 c 0
 220 162 261 135 322 135 c 0
 346 135 377 147 403 169 c 0
 429 191 446 220 450 254 c 0
 452 280 472 300 500 300 c 0
 528 300 548 280 550 254 c 0
 554 220 571 191 597 169 c 0
 623 147 654 135 678 135 c 0
 739 135 780 162 807 206 c 0
 836 253 850 321 850 399 c 0
 850 534 798 631 750 695 c 0
 743 704 740 715 740 725 c 0
 740 751 762 775 790 775 c 0
 805 775 820 768 830 755 c 0
 887 679 950 561 950 399 c 0xf4
 950 304 936 193 936 95 c 0
 936 32 943 -33 958 -67 c 0
 964 -81 971 -89 977 -93 c 0
 982 -97 989 -100 1000 -100 c 0
 1028 -100 1050 -122 1050 -150 c 0
 1050 -178 1028 -200 1000 -200 c 0
 933 -200 889 -157 867 -109 c 0
 842 -53 836 15 836 88 c 1
 795 54 742 35 678 35 c 0
 609 35 539 78 500 126 c 1
 461 78 391 35 322 35 c 0
 131 35 50 210 50 399 c 0
 50 561 113 679 170 755 c 0
 180 768 195 775 210 775 c 0xf8
EndSplineSet
Ligature2: "nasin-nanpa-'liga' Standard Ligatures in Latin lookup 2 subtable" wileTok startLongGlyphTok
EndChar

StartChar: wileTok_VAR01_startLongGlyphTok
Encoding: 65574 -1 286
Width: 1000
GlyphClass: 3
Flags: MW
HStem: -200 100<987 1014 987 1014> 0 100<258.5 320 258.5 344 680 725>
VStem: 50 100<208.5 267.5 208.5 282.5> 836 100<29 40 40 40> 850 100<216.5 267.5>
LayerCount: 2
Fore
SplineSet
500 99 m 1xf0
 457 48 388 0 300 0 c 0
 162 0 50 112 50 250 c 0
 50 315 82 381 121 440 c 0
 192 547 314 662 405 738 c 0
 433 761 447 773 470 790 c 0
 479 797 489 800 500 800 c 0
 521 800 534 787 548 776 c 0
 658 690 795 566 879 440 c 0
 918 381 950 315 950 250 c 0xe8
 950 183 936 99 936 29 c 0
 936 -15 943 -59 955 -78 c 0
 963 -91 974 -100 1000 -100 c 0
 1028 -100 1050 -122 1050 -150 c 0
 1050 -178 1028 -200 1000 -200 c 0
 941 -200 897 -174 870 -131 c 0
 841 -84 836 -31 836 29 c 2
 836 40 l 1
 797 15 750 0 700 0 c 0
 612 0 543 48 500 99 c 1xf0
500 687 m 1
 405 611 276 493 204 385 c 0
 168 331 150 285 150 250 c 0
 150 167 217 100 300 100 c 0
 340 100 375 118 404 144 c 0
 434 171 449 199 451 210 c 0
 456 233 476 250 500 250 c 0
 524 250 544 233 549 210 c 0
 551 199 566 171 596 144 c 0
 625 118 660 100 700 100 c 0
 783 100 850 167 850 250 c 0
 850 285 832 331 796 385 c 0
 724 494 596 610 500 687 c 1
EndSplineSet
Ligature2: "nasin-nanpa-'liga' Standard Ligatures in Latin lookup 2 subtable" wileTok_VAR01 startLongGlyphTok
EndChar

StartChar: nTok_startLongGlyphTok
Encoding: 65575 -1 287
Width: 1000
GlyphClass: 3
Flags: MW
HStem: -200 100<686 1000 720 1000> 100 100<472.5 527.5>
VStem: 300 100<-150 0> 450 100<300 750> 600 100<-80 0 -86 27.5>
CounterMasks: 1 38
LayerCount: 2
Fore
SplineSet
550 750 m 2
 550 300 l 2
 550 272 528 250 500 250 c 0
 472 250 450 272 450 300 c 2
 450 750 l 2
 450 778 472 800 500 800 c 0
 528 800 550 778 550 750 c 2
500 100 m 0
 445 100 400 55 400 0 c 2
 400 -150 l 2
 400 -178 378 -200 350 -200 c 0
 322 -200 300 -178 300 -150 c 2
 300 0 l 2
 300 110 390 200 500 200 c 0
 610 200 700 110 700 0 c 2
 700 -80 l 2
 700 -92 708 -100 720 -100 c 2
 1000 -100 l 2
 1028 -100 1050 -122 1050 -150 c 0
 1050 -178 1028 -200 1000 -200 c 2
 720 -200 l 2
 652 -200 600 -148 600 -80 c 2
 600 0 l 2
 600 55 555 100 500 100 c 0
EndSplineSet
Ligature2: "nasin-nanpa-'liga' Standard Ligatures in Latin lookup 2 subtable" nTok startLongGlyphTok
EndChar

StartChar: waTok_startLongGlyphTok
Encoding: 65576 -1 288
Width: 1000
GlyphClass: 3
Flags: MW
HStem: -200 100<389.5 412.5 389.5 420 587.5 610.5 900 1000>
VStem: 231 100<2 55.5 2 69.5> 450 100<300 750> 669 100<2 55.5>
CounterMasks: 1 70
LayerCount: 2
Fore
SplineSet
500 800 m 0
 528 800 550 778 550 750 c 2
 550 300 l 2
 550 272 528 250 500 250 c 0
 472 250 450 272 450 300 c 2
 450 750 l 2
 450 778 472 800 500 800 c 0
341 250 m 0
 369 250 391 226 391 200 c 0
 391 190 388 179 381 170 c 0
 357 138 331 89 331 22 c 0
 331 -18 339 -51 352 -72 c 0
 363 -90 377 -100 402 -100 c 0
 423 -100 448 -76 450 -55 c 0
 452 -29 472 -10 500 -10 c 0
 528 -10 548 -29 550 -55 c 0
 552 -76 577 -100 598 -100 c 0
 623 -100 637 -90 648 -72 c 0
 661 -51 669 -18 669 22 c 0
 669 89 643 138 619 170 c 0
 612 179 609 190 609 200 c 0
 609 226 631 250 659 250 c 0
 674 250 689 243 699 230 c 0
 732 186 769 116 769 22 c 0
 769 -24 777 -51 791 -68 c 0
 804 -83 832 -100 900 -100 c 2
 1000 -100 l 2
 1028 -100 1050 -122 1050 -150 c 0
 1050 -178 1028 -200 1000 -200 c 2
 900 -200 l 2
 822 -200 762 -182 722 -141 c 1
 694 -177 652 -200 598 -200 c 0
 562 -200 526 -184 500 -161 c 1
 474 -184 438 -200 402 -200 c 0
 284 -200 231 -94 231 22 c 0
 231 117 268 186 301 230 c 0
 311 243 326 250 341 250 c 0
EndSplineSet
Ligature2: "nasin-nanpa-'liga' Standard Ligatures in Latin lookup 2 subtable" waTok startLongGlyphTok
EndChar

StartChar: middleDotTok
Encoding: 65577 989596 289
Width: 1000
GlyphClass: 2
Flags: MW
HStem: 300 200<472.5 527.5>
VStem: 400 200<372.5 427.5>
LayerCount: 2
Fore
SplineSet
600 400 m 0
 600 345 555 300 500 300 c 0
 445 300 400 345 400 400 c 0
 400 455 445 500 500 500 c 0
 555 500 600 455 600 400 c 0
EndSplineSet
MultipleSubs2: "nasin-nanpa-Multiple Substitution in Latin lookup 11 subtable" middleDotTok combLongGlyphExtTok
MultipleSubs2: "nasin-nanpa-Multiple Substitution in Latin lookup 10 subtable" middleDotTok combCartExtTok
EndChar

StartChar: colonTok
Encoding: 65578 989597 290
Width: 1000
GlyphClass: 2
Flags: MW
HStem: 75 200<472.5 527.5> 525 200<472.5 527.5>
VStem: 400 200<147.5 202.5 597.5 652.5>
LayerCount: 2
Fore
SplineSet
500 275 m 0
 555 275 600 230 600 175 c 0
 600 120 555 75 500 75 c 0
 445 75 400 120 400 175 c 0
 400 230 445 275 500 275 c 0
500 725 m 0
 555 725 600 680 600 625 c 0
 600 570 555 525 500 525 c 0
 445 525 400 570 400 625 c 0
 400 680 445 725 500 725 c 0
EndSplineSet
MultipleSubs2: "nasin-nanpa-Multiple Substitution in Latin lookup 11 subtable" colonTok combLongGlyphExtTok
MultipleSubs2: "nasin-nanpa-Multiple Substitution in Latin lookup 10 subtable" colonTok combCartExtTok
EndChar

StartChar: middleDot2Tok
Encoding: 65579 -1 291
Width: 1000
GlyphClass: 3
Flags: MW
HStem: 300 200<247.5 302.5 697.5 752.5>
VStem: 175 200<372.5 427.5> 625 200<372.5 427.5>
LayerCount: 2
Fore
SplineSet
375 400 m 0
 375 345 330 300 275 300 c 0
 220 300 175 345 175 400 c 0
 175 455 220 500 275 500 c 0
 330 500 375 455 375 400 c 0
825 400 m 0
 825 345 780 300 725 300 c 0
 670 300 625 345 625 400 c 0
 625 455 670 500 725 500 c 0
 780 500 825 455 825 400 c 0
EndSplineSet
MultipleSubs2: "nasin-nanpa-Multiple Substitution in Latin lookup 11 subtable" middleDot2Tok combLongGlyphExtTok
MultipleSubs2: "nasin-nanpa-Multiple Substitution in Latin lookup 10 subtable" middleDot2Tok combCartExtTok
Ligature2: "nasin-nanpa-'liga' Standard Ligatures in Latin lookup 1 subtable" middleDotTok middleDotTok
EndChar

StartChar: middleDot3Tok
Encoding: 65580 -1 292
Width: 1000
GlyphClass: 3
Flags: MW
HStem: 300 200<122.5 177.5 472.5 527.5 822.5 877.5>
VStem: 50 200<372.5 427.5> 400 200<372.5 427.5> 750 200<372.5 427.5>
CounterMasks: 1 70
LayerCount: 2
Fore
SplineSet
250 400 m 0
 250 345 205 300 150 300 c 0
 95 300 50 345 50 400 c 0
 50 455 95 500 150 500 c 0
 205 500 250 455 250 400 c 0
950 400 m 0
 950 345 905 300 850 300 c 0
 795 300 750 345 750 400 c 0
 750 455 795 500 850 500 c 0
 905 500 950 455 950 400 c 0
600 400 m 0
 600 345 555 300 500 300 c 0
 445 300 400 345 400 400 c 0
 400 455 445 500 500 500 c 0
 555 500 600 455 600 400 c 0
EndSplineSet
MultipleSubs2: "nasin-nanpa-Multiple Substitution in Latin lookup 11 subtable" middleDot3Tok combLongGlyphExtTok
MultipleSubs2: "nasin-nanpa-Multiple Substitution in Latin lookup 10 subtable" middleDot3Tok combCartExtTok
Ligature2: "nasin-nanpa-'liga' Standard Ligatures in Latin lookup 1 subtable" middleDotTok middleDotTok middleDotTok
EndChar

StartChar: teTok
Encoding: 65581 -1 294
Width: 1000
GlyphClass: 2
Flags: MW
HStem: 800 100<550 1000 550 550>
VStem: 450 100<150 800>
LayerCount: 2
Fore
SplineSet
500 100 m 0
 472 100 450 122 450 150 c 2
 450 850 l 2
 450 878 472 900 500 900 c 2
 1000 900 l 2
 1028 900 1050 878 1050 850 c 0
 1050 822 1028 800 1000 800 c 2
 550 800 l 1
 550 150 l 2
 550 122 528 100 500 100 c 0
EndSplineSet
MultipleSubs2: "nasin-nanpa-Multiple Substitution in Latin lookup 11 subtable" teTok combLongGlyphExtTok
MultipleSubs2: "nasin-nanpa-Multiple Substitution in Latin lookup 10 subtable" teTok combCartExtTok
EndChar

StartChar: toTok
Encoding: 65582 -1 295
Width: 1000
GlyphClass: 2
Flags: MW
HStem: -100 100<-14 450 0 450 0 500>
VStem: 450 100<0 650>
LayerCount: 2
Fore
SplineSet
500 700 m 0
 528 700 550 678 550 650 c 2
 550 -50 l 2
 550 -78 528 -100 500 -100 c 2
 0 -100 l 2
 -28 -100 -50 -78 -50 -50 c 0
 -50 -22 -28 0 0 0 c 2
 450 0 l 1
 450 650 l 2
 450 678 472 700 500 700 c 0
EndSplineSet
MultipleSubs2: "nasin-nanpa-Multiple Substitution in Latin lookup 11 subtable" toTok combLongGlyphExtTok
MultipleSubs2: "nasin-nanpa-Multiple Substitution in Latin lookup 10 subtable" toTok combCartExtTok
EndChar

StartChar: itanTok
Encoding: 65583 -1 296
Width: 1000
GlyphClass: 3
Flags: MW
HStem: -100 100<472 610.5 472 638> -52 100<66 145 80 145 80 286> -52 312<66 306 278 286> 60 150<509.5 550.5> 273 75<259.5 363 270 363 438 623 698 790> 533 75<259.5 363 270 363 438 623 698 790> 800 100<389.5 610.5>
VStem: 0 100<338.5 510.5 338.5 538> 242 100<94 210 32 224> 363 75<180 273 348 533 608 700> 455 150<114.5 155.5> 623 75<180 273 348 533 608 700> 900 100<289.5 510.5>
LayerCount: 2
Fore
SplineSet
530 60 m 0x1ff8
 489 60 455 94 455 135 c 0
 455 176 489 210 530 210 c 0
 571 210 605 176 605 135 c 0
 605 94 571 60 530 60 c 0x1ff8
401 738 m 0
 422 738 438 721 438 700 c 2
 438 608 l 1
 623 608 l 1
 623 700 l 2
 623 721 640 738 661 738 c 0
 682 738 698 721 698 700 c 2
 698 608 l 1
 790 608 l 2
 811 608 828 592 828 571 c 0
 828 550 811 533 790 533 c 2
 698 533 l 1
 698 348 l 1
 790 348 l 2
 811 348 828 332 828 311 c 0
 828 290 811 273 790 273 c 2
 698 273 l 1
 698 180 l 2
 698 159 682 142 661 142 c 0
 640 142 623 159 623 180 c 2
 623 273 l 1
 438 273 l 1
 438 180 l 2
 438 159 422 142 401 142 c 0
 380 142 363 159 363 180 c 2
 363 273 l 1
 270 273 l 2
 249 273 232 290 232 311 c 0
 232 332 249 348 270 348 c 2
 363 348 l 1
 363 533 l 1
 270 533 l 2
 249 533 232 550 232 571 c 0
 232 592 249 608 270 608 c 2
 363 608 l 1
 363 700 l 2
 363 721 380 738 401 738 c 0
438 533 m 1
 438 348 l 1
 623 348 l 1
 623 533 l 1
 438 533 l 1
0 400 m 0
 0 676 224 900 500 900 c 0
 776 900 1000 676 1000 400 c 0
 1000 124 776 -100 500 -100 c 0x8ff8
 424 -100 351 -83 286 -52 c 1x2ff8
 80 -52 l 2
 52 -52 30 -30 30 -2 c 0
 30 26 52 48 80 48 c 2
 145 48 l 1x4ff8
 55 138 0 263 0 400 c 0
500 0 m 0
 721 0 900 179 900 400 c 0
 900 621 721 800 500 800 c 0
 279 800 100 621 100 400 c 0
 100 277 155 167 242 94 c 1
 242 210 l 2x9ff8
 242 238 264 260 292 260 c 0x2ff8
 320 260 342 238 342 210 c 2x1ff8
 342 32 l 1
 390 11 444 0 500 0 c 0
EndSplineSet
MultipleSubs2: "nasin-nanpa-Multiple Substitution in Latin lookup 11 subtable" itanTok combLongGlyphExtTok
MultipleSubs2: "nasin-nanpa-Multiple Substitution in Latin lookup 10 subtable" itanTok combCartExtTok
Ligature2: "nasin-nanpa-'liga' Standard Ligatures in Latin lookup 1 subtable" ijoTok ZWJ tanTok ZWJ anpaTok ZWJ nanpaTok
EndChar

StartChar: lipamankaTok
Encoding: 65584 -1 297
Width: 1000
GlyphClass: 2
Flags: MW
HStem: -59 90<220 376 301 376 458 462 301 462> 41 50<485 502 485 531 456 502 588 588 588 605 691 708> 220 50<485 485 485 502 588 605 442 560 692 692 692 708> 371 135<523.5 560.5 690.5 727.5> 577 60<539.5 552 552 567.5 536 573.5> 803 59<592.5 638 562 647.5>
VStem: 76 90<73.5 100.5 73.5 130.5> 221 80<33 139 139 139> 309 60<706 711 711 726.5> 316 90<312.5 378.5 312.5 379.5> 475 135<420.5 457.5> 641 135<420.5 457.5> 764 90<217 217> 780 60<718 728 728 734 707 751>
LayerCount: 2
Fore
SplineSet
709 371 m 0xff30
 672 371 641 402 641 439 c 0
 641 476 672 506 709 506 c 0
 746 506 776 476 776 439 c 0
 776 402 746 371 709 371 c 0xff30
610 439 m 0
 610 402 579 371 542 371 c 0
 505 371 475 402 475 439 c 0
 475 476 505 506 542 506 c 0
 579 506 610 476 610 439 c 0
323 233 m 1
 319 265 316 296 316 326 c 0xff70
 316 433 343 530 390 606 c 1
 352 623 312 653 309 706 c 2
 309 711 l 2
 309 742 324 766 340 783 c 0
 357 801 379 815 401 825 c 0
 452 849 526 862 598 862 c 0
 678 862 757 845 801 807 c 0
 820 791 838 767 840 734 c 2
 840 728 l 2xffa4
 840 686 815 658 790 639 c 1
 816 632 847 627 887 621 c 0
 906 618 925 600 925 577 c 0
 925 571 924 565 921 558 c 0
 870 451 854 342 854 245 c 0
 854 142 872 52 888 -6 c 0
 889 -10 890 -14 890 -18 c 0
 890 -38 877 -55 857 -61 c 0
 853 -62 849 -63 845 -63 c 0
 825 -63 808 -50 802 -30 c 0
 786 27 767 114 764 217 c 1xff28
 728 155 l 1
 773 79 l 2
 775 75 776 70 776 66 c 0
 776 52 763 41 751 41 c 2
 662 41 l 1
 618 -36 l 2
 614 -44 606 -48 597 -48 c 0
 588 -48 579 -44 575 -36 c 2
 531 41 l 1
 456 41 l 1
 457 38 457 34 458 31 c 2
 462 31 l 2
 487 31 507 11 507 -14 c 0
 507 -39 487 -59 462 -59 c 2
 246 -59 l 2
 194 -59 148 -48 117 -20 c 0
 84 9 76 49 76 86 c 0
 76 175 158 231 246 231 c 2
 269 231 l 2
 288 231 308 231 323 233 c 1
674 774 m 0
 698 774 719 754 719 729 c 0
 719 720 717 710 717 703 c 0
 717 688 720 678 726 670 c 1
 760 686 780 707 780 729 c 0
 780 773 698 803 597 803 c 0
 588 803 579 802 570 802 c 0
 458 796 369 756 369 711 c 0xffa4
 369 688 392 669 427 656 c 1
 490 729 575 774 674 774 c 0
678 591 m 1
 640 582 596 577 551 577 c 0
 528 577 504 578 482 581 c 1
 435 518 406 430 406 327 c 0
 406 298 408 269 413 238 c 0
 420 192 429 147 438 110 c 1
 465 155 l 1
 420 232 l 2
 418 236 417 241 417 245 c 0
 417 259 430 270 442 270 c 2
 531 270 l 1
 575 346 l 2
 579 354 588 359 597 359 c 0
 606 359 614 354 618 346 c 2
 663 270 l 1
 751 270 l 2
 756 270 760 268 764 266 c 1xff68
 766 352 780 447 816 542 c 1
 763 552 713 563 678 591 c 1
639 644 m 1
 635 655 631 668 629 680 c 1
 596 673 564 659 536 637 c 1
 552 637 l 2
 583 637 613 639 639 644 c 1
597 27 m 1
 605 41 l 1
 588 41 l 1
 597 27 l 1
559 91 m 1
 634 91 l 1
 671 155 l 1
 634 220 l 1
 560 220 l 1
 522 155 l 1
 559 91 l 1
700 105 m 1
 691 91 l 1
 708 91 l 1
 700 105 l 1
708 220 m 1
 692 220 l 1
 700 205 l 1
 708 220 l 1
597 284 m 1
 588 270 l 1
 605 270 l 1
 597 284 l 1
485 220 m 1
 494 205 l 1
 502 220 l 1
 485 220 l 1
502 91 m 1
 494 105 l 1
 485 91 l 1
 502 91 l 1
376 31 m 1
 366 68 357 101 348 146 c 1
 333 143 318 143 301 142 c 1
 301 31 l 1
 376 31 l 1
221 139 m 1
 193 133 166 115 166 86 c 0
 166 61 171 51 177 46 c 0
 182 41 195 36 221 33 c 1
 221 139 l 1
EndSplineSet
MultipleSubs2: "nasin-nanpa-Multiple Substitution in Latin lookup 11 subtable" lipamankaTok combLongGlyphExtTok
MultipleSubs2: "nasin-nanpa-Multiple Substitution in Latin lookup 10 subtable" lipamankaTok combCartExtTok
EndChar

StartChar: lepekaTok
Encoding: 65585 -1 298
Width: 1000
GlyphClass: 3
Flags: MW
HStem: 32 76<427.5 572.5 427.5 593> 180 50<392 428 392 428 572 608> 365 50<287 423 337 423 337 467 577 663> 425 50<371 389 302 342 611 629> 632 76<427.5 572.5> 762 76<470.5 529.5> 817 51
VStem: 31 51 62 76<0 400> 162 76<297.5 442.5 297.5 463> 295 50<277 302 277 302> 475 50<277 302> 655 50<277 302> 762 76<297.5 442.5> 862 76<0 400> 918 51
LayerCount: 2
Fore
SplineSet
685 688 m 0xfa7e
 672 688 662 700 662 713 c 0
 662 716 662 720 664 723 c 1
 615 748 559 762 500 762 c 0
 441 762 385 748 336 723 c 1
 338 720 338 716 338 713 c 0
 338 700 328 688 315 688 c 0
 307 688 299 692 293 698 c 1
 257 673 226 642 201 606 c 1
 207 600 211 592 211 584 c 0
 211 571 199 561 186 561 c 0
 183 561 179 562 176 563 c 0
 151 514 138 458 138 400 c 2
 138 0 l 2
 138 -21 121 -38 100 -38 c 0
 79 -38 62 -21 62 0 c 2
 62 400 l 2xfcfe
 62 480 84 554 121 619 c 1
 92 654 69 690 54 722 c 0
 43 745 31 774 31 800 c 0
 31 818 36 835 50 849 c 0
 64 863 81 868 99 868 c 0xfb7c
 125 868 154 856 177 845 c 0
 209 830 244 807 279 778 c 1
 344 816 419 838 500 838 c 0xfd7c
 581 838 656 816 721 778 c 1
 756 807 791 830 823 845 c 0
 846 856 875 868 901 868 c 0
 919 868 936 863 950 849 c 0
 964 835 969 818 969 800 c 0xfb7d
 969 774 957 745 946 722 c 0
 931 690 908 655 879 620 c 1
 917 555 938 480 938 400 c 2
 938 0 l 2
 938 -21 921 -38 900 -38 c 0
 879 -38 862 -21 862 0 c 2
 862 400 l 2
 862 458 849 514 824 563 c 0
 821 562 817 561 814 561 c 0
 801 561 789 571 789 584 c 0
 789 592 793 600 799 606 c 1
 774 642 743 673 707 698 c 1
 701 692 693 688 685 688 c 0xfa7e
150 663 m 1
 174 695 204 725 236 749 c 1
 207 771 179 788 155 800 c 0
 134 810 117 816 104 817 c 0
 91 818 86 815 85 814 c 0
 84 813 81 808 82 795 c 0xfb7c
 83 782 89 765 99 744 c 0
 111 720 127 692 150 663 c 1
901 744 m 0
 911 765 917 782 918 795 c 0xfa7d
 919 808 916 813 915 814 c 0
 914 815 909 818 896 817 c 0
 883 816 866 810 845 800 c 0
 821 788 793 771 764 749 c 1
 796 725 825 695 849 663 c 1
 871 692 889 720 901 744 c 0
320 320 m 0
 334 320 345 309 345 295 c 0
 345 259 374 230 410 230 c 0
 446 230 475 259 475 295 c 0
 475 309 486 320 500 320 c 0
 514 320 525 309 525 295 c 0
 525 259 554 230 590 230 c 0
 626 230 655 259 655 295 c 0
 655 309 666 320 680 320 c 0
 694 320 705 309 705 295 c 0
 705 231 654 180 590 180 c 0
 554 180 521 197 500 223 c 1
 479 197 446 180 410 180 c 0
 346 180 295 231 295 295 c 0
 295 309 306 320 320 320 c 0
402 552 m 2
 446 475 l 1
 458 475 l 2
 472 475 483 464 483 450 c 0
 483 442 478 435 472 430 c 1
 488 402 l 2
 490 398 492 394 492 390 c 0
 492 376 479 365 467 365 c 2
 293 365 l 2
 281 365 268 376 268 390 c 0
 268 394 270 398 272 402 c 2
 288 430 l 1
 282 435 277 442 277 450 c 0
 277 464 288 475 302 475 c 2
 314 475 l 1
 358 552 l 2
 362 560 371 565 380 565 c 0
 389 565 398 560 402 552 c 2
423 415 m 1
 418 425 l 1
 342 425 l 1
 337 415 l 1
 423 415 l 1
380 490 m 1
 371 475 l 1
 389 475 l 1
 380 490 l 1
642 552 m 2
 686 475 l 1
 698 475 l 2
 712 475 723 464 723 450 c 0
 723 442 718 435 712 430 c 1
 728 402 l 2
 730 398 732 394 732 390 c 0
 732 376 719 365 707 365 c 2
 533 365 l 2
 521 365 508 376 508 390 c 0
 508 394 510 398 512 402 c 2
 528 430 l 1
 522 435 517 442 517 450 c 0
 517 464 528 475 542 475 c 2
 554 475 l 1
 598 552 l 2
 602 560 611 565 620 565 c 0
 629 565 638 560 642 552 c 2
577 415 m 1
 663 415 l 1
 658 425 l 1
 582 425 l 1
 577 415 l 1
620 490 m 1
 611 475 l 1
 629 475 l 1
 620 490 l 1
162 370 m 0
 162 556 314 708 500 708 c 0
 686 708 838 556 838 370 c 0
 838 184 686 32 500 32 c 0
 314 32 162 184 162 370 c 0
500 632 m 0
 355 632 238 515 238 370 c 0
 238 225 355 108 500 108 c 0
 645 108 762 225 762 370 c 0
 762 515 645 632 500 632 c 0
EndSplineSet
MultipleSubs2: "nasin-nanpa-Multiple Substitution in Latin lookup 11 subtable" lepekaTok combLongGlyphExtTok
MultipleSubs2: "nasin-nanpa-Multiple Substitution in Latin lookup 10 subtable" lepekaTok combCartExtTok
Ligature2: "nasin-nanpa-'liga' Standard Ligatures in Latin lookup 1 subtable" meliTok ZWJ kuleTok ZWJ kuleTok
EndChar

StartChar: aTok
Encoding: 65586 989440 299
Width: 1000
GlyphClass: 2
Flags: MW
HStem: -50 100<472.5 527.5 472.5 537.5> 250 100<472.5 527.5>
VStem: 300 100<122.5 177.5 122.5 205> 450 100<450 800> 600 200<-13 177.5> 703 97
LayerCount: 2
Fore
SplineSet
500 50 m 0xf8
 555 50 600 95 600 150 c 0
 600 205 555 250 500 250 c 0
 445 250 400 205 400 150 c 0
 400 95 445 50 500 50 c 0xf8
800 0 m 0
 800 -26 780 -50 750 -50 c 0
 729 -50 710 -37 703 -17 c 0xf4
 694 8 685 31 675 53 c 1
 641 -8 575 -50 500 -50 c 0
 390 -50 300 40 300 150 c 0
 300 260 390 350 500 350 c 0
 561 350 609 323 648 284 c 0
 695 234 753 138 797 17 c 0
 799 11 800 6 800 0 c 0
550 800 m 2
 550 450 l 2
 550 422 528 400 500 400 c 0
 472 400 450 422 450 450 c 2
 450 800 l 2
 450 828 472 850 500 850 c 0
 528 850 550 828 550 800 c 2
EndSplineSet
MultipleSubs2: "nasin-nanpa-Multiple Substitution in Latin lookup 11 subtable" aTok combLongGlyphExtTok
MultipleSubs2: "nasin-nanpa-Multiple Substitution in Latin lookup 10 subtable" aTok combCartExtTok
EndChar

StartChar: akesiTok
Encoding: 65587 989441 300
Width: 1000
GlyphClass: 2
Flags: MW
HStem: -40 100<487.5 512.5 487.5 537.5> 160 100<205 300 219 300 219 309 412 588 412 412 700 781> 360 100<205 309 219 300 219 400 412 588 700 700 700 781> 560 100<487.5 512.5> 690 150<304.5 345.5 654.5 695.5>
VStem: 250 150<744.5 785.5> 300 100<260 360 260 360> 600 100<260 360 260 360> 600 150<744.5 785.5>
LayerCount: 2
Fore
SplineSet
675 690 m 0xf880
 634 690 600 724 600 765 c 0
 600 806 634 840 675 840 c 0
 716 840 750 806 750 765 c 0
 750 724 716 690 675 690 c 0xf880
588 160 m 1
 412 160 l 1
 417 143 423 126 431 112 c 0
 451 75 475 60 500 60 c 0
 525 60 549 75 569 112 c 0
 577 126 583 143 588 160 c 1
400 360 m 1xfb
 400 260 l 1
 600 260 l 1
 600 360 l 1
 400 360 l 1xfb
588 460 m 1
 583 477 577 494 569 508 c 0
 549 545 525 560 500 560 c 0
 475 560 451 545 431 508 c 0
 423 494 417 477 412 460 c 1
 588 460 l 1
500 660 m 0
 575 660 626 610 656 557 c 0
 672 527 684 494 691 460 c 1
 781 460 l 2
 809 460 831 438 831 410 c 0
 831 382 809 360 781 360 c 2
 700 360 l 1
 700 260 l 1
 781 260 l 2
 809 260 831 238 831 210 c 0
 831 182 809 160 781 160 c 2
 691 160 l 1
 684 126 672 93 656 63 c 0
 626 10 575 -40 500 -40 c 0
 425 -40 374 10 344 63 c 0
 328 93 316 126 309 160 c 1
 219 160 l 2
 191 160 169 182 169 210 c 0
 169 238 191 260 219 260 c 2
 300 260 l 1
 300 360 l 1
 219 360 l 2
 191 360 169 382 169 410 c 0
 169 438 191 460 219 460 c 2
 309 460 l 1
 316 494 328 527 344 557 c 0
 374 610 425 660 500 660 c 0
400 765 m 0xfc
 400 724 366 690 325 690 c 0
 284 690 250 724 250 765 c 0
 250 806 284 840 325 840 c 0
 366 840 400 806 400 765 c 0xfc
EndSplineSet
MultipleSubs2: "nasin-nanpa-Multiple Substitution in Latin lookup 11 subtable" akesiTok combLongGlyphExtTok
MultipleSubs2: "nasin-nanpa-Multiple Substitution in Latin lookup 10 subtable" akesiTok combCartExtTok
EndChar

StartChar: alaTok
Encoding: 65588 989442 301
Width: 1000
GlyphClass: 2
Flags: MW
HStem: 0 21G<137 156 844 863>
LayerCount: 2
Fore
SplineSet
100 750 m 0
 100 776 124 800 150 800 c 0
 162 800 175 795 185 785 c 2
 500 471 l 1
 815 785 l 2
 825 795 838 800 850 800 c 0
 876 800 900 776 900 750 c 0
 900 738 895 725 885 715 c 2
 571 400 l 1
 885 85 l 2
 895 75 900 62 900 50 c 0
 900 24 876 0 850 0 c 0
 838 0 825 5 815 15 c 2
 500 329 l 1
 185 15 l 2
 175 5 162 0 150 0 c 0
 124 0 100 24 100 50 c 0
 100 62 105 75 115 85 c 2
 429 400 l 1
 115 715 l 2
 105 725 100 738 100 750 c 0
EndSplineSet
MultipleSubs2: "nasin-nanpa-Multiple Substitution in Latin lookup 11 subtable" alaTok combLongGlyphExtTok
MultipleSubs2: "nasin-nanpa-Multiple Substitution in Latin lookup 10 subtable" alaTok combCartExtTok
EndChar

StartChar: alasaTok
Encoding: 65589 989443 302
Width: 1000
GlyphClass: 2
Flags: MW
HStem: 0 21G<236 364> 350 100<86 200 100 200 300 541 642 779>
VStem: 200 100<103 350 103 350 103 350 450 697> 541 101<350 350 350 450>
LayerCount: 2
Fore
SplineSet
300 350 m 1
 300 103 l 1
 441 122 521 221 541 350 c 1
 300 350 l 1
541 450 m 1
 521 578 441 678 300 697 c 1
 300 450 l 1
 541 450 l 1
642 350 m 1
 620 154 478 0 250 0 c 0
 222 0 200 22 200 50 c 2
 200 350 l 1
 100 350 l 2
 72 350 50 372 50 400 c 0
 50 428 72 450 100 450 c 2
 200 450 l 1
 200 750 l 2
 200 778 222 800 250 800 c 0
 478 800 620 646 642 450 c 1
 779 450 l 1
 715 515 l 2
 705 525 700 538 700 550 c 0
 700 576 724 600 750 600 c 0
 762 600 775 595 785 585 c 2
 935 435 l 2
 944 426 950 416 950 400 c 0
 950 384 944 374 935 365 c 2
 785 215 l 2
 775 205 762 200 750 200 c 0
 724 200 700 224 700 250 c 0
 700 262 705 275 715 285 c 2
 779 350 l 1
 642 350 l 1
EndSplineSet
MultipleSubs2: "nasin-nanpa-Multiple Substitution in Latin lookup 11 subtable" alasaTok combLongGlyphExtTok
MultipleSubs2: "nasin-nanpa-Multiple Substitution in Latin lookup 10 subtable" alasaTok combCartExtTok
EndChar

StartChar: aleTok
Encoding: 65590 989444 303
Width: 1000
GlyphClass: 2
Flags: MW
HStem: 150 100<239 268.5 239 285.5 731.5 761> 550 100<239 268.5 731.5 761>
VStem: 50 100<374 426 374 466.5> 850 100<374 426>
LayerCount: 2
Fore
SplineSet
563 400 m 1
 599 354 629 318 657 292 c 0
 690 262 717 250 746 250 c 0
 776 250 800 262 818 285 c 0
 837 309 850 348 850 400 c 0
 850 452 837 491 818 515 c 0
 800 538 776 550 746 550 c 0
 717 550 690 538 657 508 c 0
 629 482 599 446 563 400 c 1
437 400 m 1
 401 446 371 482 343 508 c 0
 310 538 283 550 254 550 c 0
 224 550 200 538 182 515 c 0
 163 491 150 452 150 400 c 0
 150 348 163 309 182 285 c 0
 200 262 224 250 254 250 c 0
 283 250 310 262 343 292 c 0
 371 318 401 354 437 400 c 1
50 400 m 0
 50 533 125 650 254 650 c 0
 317 650 367 622 411 582 c 0
 441 555 470 521 500 482 c 1
 530 521 559 555 589 582 c 0
 633 622 683 650 746 650 c 0
 875 650 950 533 950 400 c 0
 950 267 875 150 746 150 c 0
 683 150 633 178 589 218 c 0
 559 245 530 279 500 318 c 1
 470 279 441 245 411 218 c 0
 367 178 317 150 254 150 c 0
 125 150 50 267 50 400 c 0
EndSplineSet
MultipleSubs2: "nasin-nanpa-Multiple Substitution in Latin lookup 11 subtable" aleTok combLongGlyphExtTok
MultipleSubs2: "nasin-nanpa-Multiple Substitution in Latin lookup 10 subtable" aleTok combCartExtTok
EndChar

StartChar: anpaTok
Encoding: 65591 989445 304
Width: 1000
GlyphClass: 2
Flags: MW
HStem: 100 150<479.5 520.5> 300 100<136 800 200 800 200 850>
VStem: 100 100<400 650 400 650 400 664> 425 150<154.5 195.5> 800 100<400 650>
CounterMasks: 1 38
LayerCount: 2
Fore
SplineSet
575 175 m 0
 575 134 541 100 500 100 c 0
 459 100 425 134 425 175 c 0
 425 216 459 250 500 250 c 0
 541 250 575 216 575 175 c 0
150 700 m 0
 178 700 200 678 200 650 c 2
 200 400 l 1
 800 400 l 1
 800 650 l 2
 800 678 822 700 850 700 c 0
 878 700 900 678 900 650 c 2
 900 350 l 2
 900 322 878 300 850 300 c 2
 150 300 l 2
 122 300 100 322 100 350 c 2
 100 650 l 2
 100 678 122 700 150 700 c 0
EndSplineSet
MultipleSubs2: "nasin-nanpa-Multiple Substitution in Latin lookup 11 subtable" anpaTok combLongGlyphExtTok
MultipleSubs2: "nasin-nanpa-Multiple Substitution in Latin lookup 10 subtable" anpaTok combCartExtTok
EndChar

StartChar: anteTok
Encoding: 65592 989446 305
Width: 1000
GlyphClass: 2
Flags: MW
HStem: 0 21G<137 155 845 863>
LayerCount: 2
Fore
SplineSet
150 0 m 0
 124 0 100 22 100 50 c 0
 100 65 107 80 120 90 c 2
 470 352 l 2
 479 358 490 362 500 362 c 0
 510 362 521 358 530 352 c 2
 880 90 l 2
 893 80 900 65 900 50 c 0
 900 22 876 0 850 0 c 0
 840 0 829 3 820 10 c 2
 500 250 l 1
 180 10 l 2
 171 3 160 0 150 0 c 0
850 800 m 0
 876 800 900 778 900 750 c 0
 900 735 893 720 880 710 c 2
 530 448 l 2
 521 442 510 438 500 438 c 0
 490 438 479 442 470 448 c 2
 120 710 l 2
 107 720 100 735 100 750 c 0
 100 778 124 800 150 800 c 0
 160 800 171 797 180 790 c 2
 500 550 l 1
 820 790 l 2
 829 797 840 800 850 800 c 0
EndSplineSet
MultipleSubs2: "nasin-nanpa-Multiple Substitution in Latin lookup 11 subtable" anteTok combLongGlyphExtTok
MultipleSubs2: "nasin-nanpa-Multiple Substitution in Latin lookup 10 subtable" anteTok combCartExtTok
EndChar

StartChar: anuTok
Encoding: 65593 989447 306
Width: 1000
GlyphClass: 2
Flags: MW
HStem: 0 21G<486 514>
VStem: 450 100<50 421>
LayerCount: 2
Fore
SplineSet
150 750 m 0
 150 777 173 800 200 800 c 0
 213 800 226 795 236 785 c 2
 500 513 l 1
 764 785 l 2
 774 795 787 800 800 800 c 0
 827 800 850 777 850 750 c 0
 850 737 845 725 836 715 c 2
 550 421 l 1
 550 50 l 2
 550 22 528 0 500 0 c 0
 472 0 450 22 450 50 c 2
 450 421 l 1
 164 715 l 2
 155 725 150 737 150 750 c 0
EndSplineSet
MultipleSubs2: "nasin-nanpa-Multiple Substitution in Latin lookup 11 subtable" anuTok combLongGlyphExtTok
MultipleSubs2: "nasin-nanpa-Multiple Substitution in Latin lookup 10 subtable" anuTok combCartExtTok
EndChar

StartChar: awenTok
Encoding: 65594 989448 307
Width: 1000
GlyphClass: 2
Flags: MW
HStem: 0 100<86 215 100 215 100 250 785 900>
LayerCount: 2
Fore
SplineSet
547 767 m 2
 785 100 l 1
 900 100 l 2
 928 100 950 78 950 50 c 0
 950 22 928 0 900 0 c 2
 750 0 l 2
 729 0 710 13 703 33 c 2
 500 601 l 1
 297 33 l 2
 290 13 271 0 250 0 c 2
 100 0 l 2
 72 0 50 22 50 50 c 0
 50 78 72 100 100 100 c 2
 215 100 l 1
 453 767 l 2
 460 787 479 800 500 800 c 0
 521 800 540 787 547 767 c 2
EndSplineSet
MultipleSubs2: "nasin-nanpa-Multiple Substitution in Latin lookup 11 subtable" awenTok combLongGlyphExtTok
MultipleSubs2: "nasin-nanpa-Multiple Substitution in Latin lookup 10 subtable" awenTok combCartExtTok
EndChar

StartChar: eTok
Encoding: 65595 989449 308
Width: 1000
GlyphClass: 2
Flags: W
LayerCount: 2
Fore
SplineSet
450 800 m 0
 450 826 474 850 500 850 c 0
 512 850 525 845 535 835 c 2
 935 435 l 2
 945 425 950 412 950 400 c 0
 950 388 945 375 935 365 c 2
 535 -35 l 2
 525 -45 512 -50 500 -50 c 0
 474 -50 450 -26 450 0 c 0
 450 12 455 25 465 35 c 2
 829 400 l 1
 465 765 l 2
 455 775 450 788 450 800 c 0
50 800 m 0
 50 826 74 850 100 850 c 0
 112 850 125 845 135 835 c 2
 535 435 l 2
 545 425 550 412 550 400 c 0
 550 388 545 375 535 365 c 2
 135 -35 l 2
 125 -45 112 -50 100 -50 c 0
 74 -50 50 -26 50 0 c 0
 50 12 55 25 65 35 c 2
 429 400 l 1
 65 765 l 2
 55 775 50 788 50 800 c 0
EndSplineSet
MultipleSubs2: "nasin-nanpa-Multiple Substitution in Latin lookup 11 subtable" eTok combLongGlyphExtTok
MultipleSubs2: "nasin-nanpa-Multiple Substitution in Latin lookup 10 subtable" eTok combCartExtTok
EndChar

StartChar: enTok
Encoding: 65596 989450 309
Width: 1000
GlyphClass: 2
Flags: MW
HStem: 0 21G<486 514> 350 100<136 450 150 450 550 850>
VStem: 450 100<50 350 450 750>
LayerCount: 2
Fore
SplineSet
550 750 m 2
 550 450 l 1
 850 450 l 2
 878 450 900 428 900 400 c 0
 900 372 878 350 850 350 c 2
 550 350 l 1
 550 50 l 2
 550 22 528 0 500 0 c 0
 472 0 450 22 450 50 c 2
 450 350 l 1
 150 350 l 2
 122 350 100 372 100 400 c 0
 100 428 122 450 150 450 c 2
 450 450 l 1
 450 750 l 2
 450 778 472 800 500 800 c 0
 528 800 550 778 550 750 c 2
EndSplineSet
MultipleSubs2: "nasin-nanpa-Multiple Substitution in Latin lookup 11 subtable" enTok combLongGlyphExtTok
MultipleSubs2: "nasin-nanpa-Multiple Substitution in Latin lookup 10 subtable" enTok combCartExtTok
EndChar

StartChar: esunTok
Encoding: 65597 989451 310
Width: 1000
GlyphClass: 2
Flags: MW
HStem: -50 100<214.5 251.5 214.5 259> 241 95 261 100<257 307> 439 100<664.5 718.5 664.5 726.5> 463 96 750 100<749 785.5>
VStem: 50 100<114.5 151.5 114.5 159> 850 100<648.5 685.5>
LayerCount: 2
Fore
SplineSet
600 542 m 1x97
 625 540 651 539 678 539 c 0
 759 539 799 559 820 580 c 0
 841 601 850 630 850 667 c 0
 850 704 841 721 831 731 c 0
 821 741 804 750 767 750 c 0
 731 750 705 741 686 726 c 0
 666 711 648 688 636 651 c 0
 628 628 615 588 600 542 c 1x97
399 256 m 1
 364 259 327 261 287 261 c 0xa7
 227 261 195 243 178 223 c 0
 160 202 150 170 150 133 c 0
 150 96 159 79 169 69 c 0
 179 59 196 50 233 50 c 0
 270 50 295 58 314 72 c 0
 333 86 351 109 364 149 c 0
 372 173 384 211 399 256 c 1
50 800 m 0
 50 825 69 850 100 850 c 0
 119 850 138 839 146 820 c 2
 146 820 147 819 147 818 c 0
 154 805 157 796 169 779 c 0
 186 753 214 718 255 682 c 0
 310 634 389 585 500 559 c 1xaf
 518 612 533 657 542 683 c 0
 559 734 585 776 625 806 c 0
 665 836 714 850 767 850 c 0
 819 850 867 837 902 802 c 0
 937 767 950 719 950 667 c 0
 950 615 937 555 891 509 c 0
 845 463 775 439 678 439 c 0
 639 439 603 441 568 445 c 1
 556 409 543 372 531 336 c 1
 668 305 763 251 827 193 c 0
 875 150 905 105 923 72 c 0
 935 49 941 37 947 18 c 0
 947 16 948 16 948 15 c 2
 948 12 l 2
 949 8 950 3 950 -1 c 0
 950 -26 929 -50 899 -50 c 0
 877 -50 858 -36 852 -13 c 1
 852 -13 851 -12 851 -11 c 0
 851 -10 850 -7 849 -4 c 0
 846 3 842 13 835 25 c 0
 822 50 799 83 760 118 c 0
 708 164 627 214 500 241 c 1xd7
 483 189 468 145 459 118 c 0
 441 65 414 20 374 -9 c 0
 334 -39 285 -50 233 -50 c 0
 181 -50 133 -37 98 -2 c 0
 63 33 50 81 50 133 c 0
 50 185 63 243 102 288 c 0
 142 335 205 361 287 361 c 0
 339 361 387 358 432 353 c 1
 444 389 456 426 468 463 c 1xaf
 345 494 254 550 189 607 c 0
 141 649 107 692 86 724 c 0
 75 740 67 753 62 763 c 0
 59 769 55 773 55 779 c 1
 54 780 l 2
 51 786 50 793 50 800 c 0
EndSplineSet
MultipleSubs2: "nasin-nanpa-Multiple Substitution in Latin lookup 11 subtable" esunTok combLongGlyphExtTok
MultipleSubs2: "nasin-nanpa-Multiple Substitution in Latin lookup 10 subtable" esunTok combCartExtTok
EndChar

StartChar: ijoTok
Encoding: 65598 989452 311
Width: 1000
GlyphClass: 2
Flags: MW
HStem: -50 100<403.5 596.5 403.5 624.5> 750 100<403.5 596.5>
VStem: 50 100<303.5 496.5 303.5 524.5> 850 100<303.5 496.5>
LayerCount: 2
Fore
SplineSet
500 -50 m 0
 251 -50 50 151 50 400 c 0
 50 649 251 850 500 850 c 0
 749 850 950 649 950 400 c 0
 950 151 749 -50 500 -50 c 0
500 50 m 0
 693 50 850 207 850 400 c 0
 850 593 693 750 500 750 c 0
 307 750 150 593 150 400 c 0
 150 207 307 50 500 50 c 0
EndSplineSet
MultipleSubs2: "nasin-nanpa-Multiple Substitution in Latin lookup 11 subtable" ijoTok combLongGlyphExtTok
MultipleSubs2: "nasin-nanpa-Multiple Substitution in Latin lookup 10 subtable" ijoTok combCartExtTok
EndChar

StartChar: ikeTok
Encoding: 65599 989453 312
Width: 1000
GlyphClass: 2
Flags: MW
HStem: 475 100<426 574>
VStem: 802 98
LayerCount: 2
Fore
SplineSet
900 275 m 0
 900 250 881 225 850 225 c 0
 828 225 808 239 802 262 c 0
 768 382 648 475 500 475 c 0
 352 475 232 382 198 262 c 0
 192 239 172 225 150 225 c 0
 119 225 100 250 100 275 c 0
 100 279 101 284 102 288 c 0
 149 455 311 575 500 575 c 0
 689 575 851 455 898 288 c 0
 899 284 900 279 900 275 c 0
EndSplineSet
MultipleSubs2: "nasin-nanpa-Multiple Substitution in Latin lookup 11 subtable" ikeTok combLongGlyphExtTok
MultipleSubs2: "nasin-nanpa-Multiple Substitution in Latin lookup 10 subtable" ikeTok combCartExtTok
EndChar

StartChar: iloTok
Encoding: 65600 989454 313
Width: 1000
GlyphClass: 2
Flags: MW
HStem: 350 100<136 450 200 450 200 450 550 800> 700 100<200 450 200 200 550 550 550 800>
VStem: 100 100<450 700 450 750 450 764> 450 100<0 350 450 700> 800 100<450 700 700 700>
CounterMasks: 1 38
LayerCount: 2
Fore
SplineSet
450 700 m 1
 200 700 l 1
 200 450 l 1
 450 450 l 1
 450 700 l 1
550 450 m 1
 800 450 l 1
 800 700 l 1
 550 700 l 1
 550 450 l 1
100 750 m 2
 100 778 122 800 150 800 c 2
 850 800 l 2
 878 800 900 778 900 750 c 2
 900 400 l 2
 900 372 878 350 850 350 c 2
 550 350 l 1
 550 0 l 2
 550 -28 528 -50 500 -50 c 0
 472 -50 450 -28 450 0 c 2
 450 350 l 1
 150 350 l 2
 122 350 100 372 100 400 c 2
 100 750 l 2
EndSplineSet
MultipleSubs2: "nasin-nanpa-Multiple Substitution in Latin lookup 11 subtable" iloTok combLongGlyphExtTok
MultipleSubs2: "nasin-nanpa-Multiple Substitution in Latin lookup 10 subtable" iloTok combCartExtTok
EndChar

StartChar: insaTok
Encoding: 65601 989455 314
Width: 1000
GlyphClass: 2
Flags: MW
HStem: 200 100<186 750 250 750 250 800> 400 150<479.5 520.5>
VStem: 150 100<300 550 300 550 300 564> 425 150<454.5 495.5> 750 100<300 550>
CounterMasks: 1 38
LayerCount: 2
Fore
SplineSet
200 600 m 0
 228 600 250 578 250 550 c 2
 250 300 l 1
 750 300 l 1
 750 550 l 2
 750 578 772 600 800 600 c 0
 828 600 850 578 850 550 c 2
 850 250 l 2
 850 222 828 200 800 200 c 2
 200 200 l 2
 172 200 150 222 150 250 c 2
 150 550 l 2
 150 578 172 600 200 600 c 0
575 475 m 0
 575 434 541 400 500 400 c 0
 459 400 425 434 425 475 c 0
 425 516 459 550 500 550 c 0
 541 550 575 516 575 475 c 0
EndSplineSet
MultipleSubs2: "nasin-nanpa-Multiple Substitution in Latin lookup 11 subtable" insaTok combLongGlyphExtTok
MultipleSubs2: "nasin-nanpa-Multiple Substitution in Latin lookup 10 subtable" insaTok combCartExtTok
EndChar

StartChar: jakiTok
Encoding: 65602 989456 315
Width: 1000
GlyphClass: 3
Flags: MW
HStem: -31 100<355.5 403.5 355.5 423> 107 100<612 654 612 675> 686 100<590.5 654>
VStem: 109 100<141 143 141 160.5> 215 204<663 794.5> 511 101<227 229.5 207 230>
LayerCount: 2
Fore
SplineSet
495 126 m 1
 446 144 386 186 347 218 c 1
 307 203 246 180 223 160 c 0
 211 150 209 145 209 141 c 0
 210 140 212 137 217 131 c 0
 226 122 240 111 259 101 c 0
 297 81 342 69 369 69 c 0
 438 69 474 87 495 126 c 1
750 393 m 1
 694 366 643 341 588 317 c 0
 589 314 591 312 592 309 c 0
 607 279 612 252 612 207 c 1
 632 207 l 1
 683 263 718 320 750 393 c 1
497 275 m 1
 484 269 472 264 459 259 c 1
 476 248 494 234 511 227 c 1
 511 233 510 239 509 244 c 0
 509 246 502 267 497 275 c 1
418 393 m 1
 382 375 367 362 362 354 c 0
 361 353 361 352 361 352 c 2
 361 351 361 347 368 338 c 0
 369 336 371 335 372 333 c 0
 396 342 419 350 442 360 c 1
 418 393 l 1
450 515 m 1
 484 528 521 542 562 556 c 0
 648 586 707 613 743 637 c 0
 760 648 770 657 776 664 c 1
 772 666 767 668 760 670 c 0
 732 679 686 686 622 686 c 0
 559 686 463 667 370 612 c 1
 392 585 421 551 450 515 c 1
369 830 m 0
 394 830 419 809 419 780 c 0
 419 760 407 743 389 734 c 1
 475 772 559 786 622 786 c 0
 690 786 749 779 792 765 c 0
 833 751 881 722 881 668 c 0
 881 642 869 619 855 602 c 0
 841 585 821 568 798 553 c 0
 752 523 685 492 595 461 c 0
 565 451 537 441 513 432 c 1
 520 422 528 413 535 403 c 1
 563 416 596 430 626 445 c 0
 683 471 748 502 819 536 c 0
 826 539 833 541 841 541 c 0
 870 541 890 519 890 491 c 0
 890 486 890 480 888 475 c 0
 838 325 788 224 690 122 c 2
 675 107 l 1
 654 107 l 2
 634 107 614 107 596 108 c 1
 594 101 591 94 588 88 c 0
 556 17 477 -31 369 -31 c 0
 291 -31 193 14 146 61 c 0
 128 79 109 105 109 139 c 0
 109 182 133 214 160 237 c 0
 192 264 234 280 276 298 c 1
 269 312 264 326 262 342 c 0
 262 346 261 349 261 353 c 0
 261 373 268 392 278 408 c 0
 295 435 323 455 355 473 c 1
 321 516 287 554 257 591 c 0
 238 613 215 643 215 683 c 0
 215 724 240 750 264 770 c 0
 284 787 311 804 344 823 c 0
 352 828 360 830 369 830 c 0
EndSplineSet
MultipleSubs2: "nasin-nanpa-Multiple Substitution in Latin lookup 11 subtable" jakiTok combLongGlyphExtTok
MultipleSubs2: "nasin-nanpa-Multiple Substitution in Latin lookup 10 subtable" jakiTok combCartExtTok
Ligature2: "nasin-nanpa-'liga' Standard Ligatures in Latin lookup 1 subtable" jakiTok_VAR08 VAR09
Ligature2: "nasin-nanpa-'liga' Standard Ligatures in Latin lookup 1 subtable" jakiTok_VAR07 VAR09
Ligature2: "nasin-nanpa-'liga' Standard Ligatures in Latin lookup 1 subtable" jakiTok_VAR06 VAR09
Ligature2: "nasin-nanpa-'liga' Standard Ligatures in Latin lookup 1 subtable" jakiTok_VAR05 VAR09
Ligature2: "nasin-nanpa-'liga' Standard Ligatures in Latin lookup 1 subtable" jakiTok_VAR04 VAR09
Ligature2: "nasin-nanpa-'liga' Standard Ligatures in Latin lookup 1 subtable" jakiTok_VAR03 VAR09
Ligature2: "nasin-nanpa-'liga' Standard Ligatures in Latin lookup 1 subtable" jakiTok_VAR02 VAR09
Ligature2: "nasin-nanpa-'liga' Standard Ligatures in Latin lookup 1 subtable" jakiTok_VAR01 VAR09
AlternateSubs2: "nasin-nanpa-'rand' Randomize in Latin lookup 0 subtable" jakiTok_VAR01 jakiTok_VAR02 jakiTok_VAR03 jakiTok_VAR04 jakiTok_VAR05 jakiTok_VAR06 jakiTok_VAR07 jakiTok_VAR08
EndChar

StartChar: janTok
Encoding: 65603 989457 316
Width: 1000
GlyphClass: 2
Flags: MW
HStem: 50 100<463.5 536.5> 750 100<417 583>
VStem: 100 100<394.5 533 367 560.5> 800 100<394.5 533>
LayerCount: 2
Fore
SplineSet
200 450 m 0
 200 284 334 150 500 150 c 0
 666 150 800 284 800 450 c 0
 800 616 666 750 500 750 c 0
 334 750 200 616 200 450 c 0
101 -50 m 0
 74 -50 51 -28 51 0 c 0
 51 14 57 28 68 38 c 2
 218 166 l 1
 145 238 100 339 100 450 c 0
 100 671 279 850 500 850 c 0
 721 850 900 671 900 450 c 0
 900 339 855 238 782 166 c 1
 932 38 l 2
 944 28 950 14 950 0 c 0
 950 -27 926 -50 900 -50 c 0
 889 -50 877 -46 868 -38 c 2
 701 104 l 1
 642 70 573 50 500 50 c 0
 427 50 358 70 299 104 c 1
 134 -38 l 2
 124 -46 113 -50 101 -50 c 0
EndSplineSet
MultipleSubs2: "nasin-nanpa-Multiple Substitution in Latin lookup 11 subtable" janTok combLongGlyphExtTok
MultipleSubs2: "nasin-nanpa-Multiple Substitution in Latin lookup 10 subtable" janTok combCartExtTok
EndChar

StartChar: jeloTok
Encoding: 65604 989458 317
Width: 1000
GlyphClass: 2
Flags: MW
HStem: -70 100<253.5 644 356 644 356 734> 547 100<256 324 270 324 676 730> 681 196<486 514 486 523>
VStem: 220 197<583 611> 450 100<375 420 375 420 774 827> 583 197<583 611 583 620.5>
CounterMasks: 1 1c
LayerCount: 2
Fore
SplineSet
644 30 m 1
 500 265 l 1
 356 30 l 1
 644 30 l 1
583 597 m 0
 583 644 546 681 500 681 c 0
 454 681 417 644 417 597 c 0
 417 550 454 513 500 513 c 0
 546 513 583 550 583 597 c 0
266 -70 m 2
 241 -70 217 -49 217 -20 c 0
 217 -11 219 -2 224 6 c 2
 450 375 l 1
 450 420 l 1
 389 437 341 486 324 547 c 1
 270 547 l 2
 242 547 220 569 220 597 c 0
 220 625 242 647 270 647 c 2
 324 647 l 1
 341 708 389 757 450 774 c 1
 450 827 l 2
 450 855 472 877 500 877 c 0
 528 877 550 855 550 827 c 2
 550 774 l 1
 611 757 659 708 676 647 c 1
 730 647 l 2
 758 647 780 625 780 597 c 0
 780 569 758 547 730 547 c 2
 676 547 l 1
 659 486 611 437 550 420 c 1
 550 375 l 1
 776 6 l 2
 781 -2 783 -11 783 -20 c 0
 783 -49 759 -70 734 -70 c 2
 266 -70 l 2
EndSplineSet
MultipleSubs2: "nasin-nanpa-Multiple Substitution in Latin lookup 11 subtable" jeloTok combLongGlyphExtTok
MultipleSubs2: "nasin-nanpa-Multiple Substitution in Latin lookup 10 subtable" jeloTok combCartExtTok
EndChar

StartChar: joTok
Encoding: 65605 989459 318
Width: 1000
GlyphClass: 2
Flags: MW
HStem: -50 100<441.5 551.5 441.5 591> 250 100<531 770 545 716> 450 100<474.5 527.5 472.5 555> 750 100<472.5 527.5>
VStem: 180 100<228.5 341.5 228.5 357.5> 300 100<638.5 677.5 622.5 705> 600 100<622.5 677.5>
LayerCount: 2
Fore
SplineSet
600 650 m 0
 600 705 555 750 500 750 c 0
 445 750 400 705 400 650 c 0
 400 595 445 550 500 550 c 0
 555 550 600 595 600 650 c 0
700 650 m 0
 700 540 610 450 500 450 c 0
 449 450 403 469 368 500 c 1
 315 455 280 383 280 300 c 0
 280 157 383 50 500 50 c 0
 603 50 695 133 716 250 c 1
 545 250 l 2
 517 250 495 272 495 300 c 0
 495 328 517 350 545 350 c 2
 770 350 l 2
 798 350 820 328 820 300 c 0
 820 112 682 -50 500 -50 c 0
 318 -50 180 112 180 300 c 0
 180 415 230 519 311 583 c 1
 304 604 300 627 300 650 c 0
 300 760 390 850 500 850 c 0
 610 850 700 760 700 650 c 0
EndSplineSet
MultipleSubs2: "nasin-nanpa-Multiple Substitution in Latin lookup 11 subtable" joTok combLongGlyphExtTok
MultipleSubs2: "nasin-nanpa-Multiple Substitution in Latin lookup 10 subtable" joTok combCartExtTok
EndChar

StartChar: kalaTok
Encoding: 65606 989460 319
Width: 1000
GlyphClass: 2
Flags: MW
HStem: 125 100<616 633 633 634 612 633> 575 100<616 616 616 633>
VStem: 50 95<153 179> 850 100<369.5 430.5>
LayerCount: 2
Fore
SplineSet
616 575 m 1
 509 571 406 494 320 400 c 1
 406 306 510 229 616 225 c 1
 633 225 l 2
 703 225 756 242 791 269 c 0
 827 297 850 339 850 400 c 0
 850 461 827 503 791 531 c 0
 756 558 703 575 633 575 c 2
 616 575 l 1
50 624 m 0
 50 649 70 675 100 675 c 0
 118 675 135 665 144 648 c 1
 145 647 l 2
 145 646 146 645 147 644 c 0
 149 641 151 636 154 630 c 0
 160 619 171 603 183 583 c 0
 202 553 225 516 255 477 c 1
 346 574 470 669 612 675 c 1
 634 675 l 2
 718 675 795 654 852 611 c 0
 916 562 950 489 950 400 c 0
 950 311 916 238 852 189 c 0
 795 146 718 125 634 125 c 2
 612 125 l 1
 470 131 346 226 255 323 c 1
 213 268 182 222 154 170 c 0
 151 164 149 159 147 156 c 0
 146 155 145 154 145 153 c 2
 144 152 l 1
 135 135 118 125 100 125 c 0
 71 125 50 150 50 175 c 0
 50 183 52 191 56 198 c 1
 56 199 l 1
 61 204 61 211 67 219 c 0
 74 232 85 250 98 271 c 0
 120 307 151 352 189 400 c 1
 151 448 120 493 98 529 c 0
 85 550 74 568 67 581 c 0
 61 590 61 596 56 601 c 0
 52 608 50 616 50 624 c 0
EndSplineSet
MultipleSubs2: "nasin-nanpa-Multiple Substitution in Latin lookup 11 subtable" kalaTok combLongGlyphExtTok
MultipleSubs2: "nasin-nanpa-Multiple Substitution in Latin lookup 10 subtable" kalaTok combCartExtTok
EndChar

StartChar: kalamaTok
Encoding: 65607 989461 320
Width: 1000
GlyphClass: 2
Flags: MW
HStem: 1 100<439.5 560.5 439.5 596.5> 301 100<255 255 255 745> 513 284<486 514>
VStem: 450 100<563 747>
LayerCount: 2
Fore
SplineSet
500 797 m 0
 528 797 550 775 550 747 c 2
 550 563 l 2
 550 535 528 513 500 513 c 0
 472 513 450 535 450 563 c 2
 450 747 l 2
 450 775 472 797 500 797 c 0
200 696 m 0
 200 721 221 745 251 745 c 0
 270 745 288 733 296 714 c 2
 366 544 l 2
 369 537 370 530 370 524 c 0
 370 499 349 475 319 475 c 0
 300 475 282 487 274 506 c 2
 204 676 l 2
 201 683 200 690 200 696 c 0
681 475 m 0
 651 475 630 499 630 524 c 0
 630 530 631 537 634 544 c 2
 704 714 l 2
 712 733 730 745 749 745 c 0
 779 745 800 721 800 696 c 0
 800 690 799 683 796 676 c 2
 726 506 l 2
 718 487 700 475 681 475 c 0
255 301 m 1
 278 187 379 101 500 101 c 0
 621 101 722 187 745 301 c 1
 255 301 l 1
150 351 m 0
 150 379 172 401 200 401 c 2
 800 401 l 2
 828 401 850 379 850 351 c 0
 850 158 693 1 500 1 c 0
 307 1 150 158 150 351 c 0
EndSplineSet
MultipleSubs2: "nasin-nanpa-Multiple Substitution in Latin lookup 11 subtable" kalamaTok combLongGlyphExtTok
MultipleSubs2: "nasin-nanpa-Multiple Substitution in Latin lookup 10 subtable" kalamaTok combCartExtTok
EndChar

StartChar: kamaTok
Encoding: 65608 989462 321
Width: 1000
GlyphClass: 2
Flags: MW
HStem: 0 100<586 648.5 586 649.5>
LayerCount: 2
Fore
SplineSet
50 138 m 0
 50 165 74 188 100 188 c 0
 111 188 123 184 132 176 c 0
 186 131 243 107 315 101 c 1
 553 767 l 2
 560 787 578 800 599 800 c 0
 620 800 638 788 646 769 c 2
 896 156 l 2
 899 150 900 143 900 137 c 0
 900 126 896 116 889 107 c 1
 889 106 l 1
 888 106 l 2
 887 104 885 102 883 100 c 0
 864 81 849 68 817 50 c 0
 770 24 699 0 600 0 c 0
 572 0 550 22 550 50 c 0
 550 78 572 100 600 100 c 0
 697 100 748 123 790 151 c 1
 603 610 l 1
 397 33 l 2
 390 13 371 0 350 0 c 0
 239 0 150 31 68 99 c 0
 56 109 50 124 50 138 c 0
EndSplineSet
MultipleSubs2: "nasin-nanpa-Multiple Substitution in Latin lookup 11 subtable" kamaTok combLongGlyphExtTok
MultipleSubs2: "nasin-nanpa-Multiple Substitution in Latin lookup 10 subtable" kamaTok combCartExtTok
EndChar

StartChar: kasiTok
Encoding: 65609 989463 322
Width: 1000
GlyphClass: 2
Flags: MW
HStem: 359 100<349 380 374 380 374 384> 416 100<594.5 620 591.5 628> 737 100<744 745 745 764>
VStem: 50 100<614 619 619 634.5 597 645.5> 450 100<1 371 371 371> 850 100<673.5 700 700 703 666 708.5>
CounterMasks: 1 1c
LayerCount: 2
Fore
SplineSet
545 525 m 0x7c
 553 520 582 516 601 516 c 0
 639 516 686 523 730 535 c 0
 774 548 802 565 820 589 c 0
 838 612 850 647 850 700 c 0
 850 717 850 727 849 734 c 0
 845 735 840 735 831 736 c 0
 811 737 784 737 744 737 c 0
 700 737 671 728 644 703 c 0
 614 676 583 625 547 532 c 0
 546 529 545 527 545 525 c 0x7c
445 511 m 0
 429 601 378 632 310 669 c 0
 280 685 229 704 155 709 c 1
 150 684 150 655 150 614 c 0
 150 580 160 554 177 533 c 0
 194 512 222 494 262 481 c 0
 307 466 343 459 374 459 c 2
 380 459 l 2xbc
 403 460 425 466 449 478 c 1
 448 486 448 494 447 501 c 0
 446 504 445 508 445 511 c 0
50 614 m 2
 50 619 l 2
 50 672 50 728 73 780 c 0
 81 798 99 810 119 810 c 0
 230 810 309 784 359 757 c 0
 397 736 446 708 485 660 c 0
 487 658 488 656 490 654 c 1
 516 707 544 748 576 777 c 0
 626 823 683 837 744 837 c 2
 745 837 l 2
 783 837 813 837 837 836 c 0
 859 835 885 831 905 820 c 0
 948 797 950 760 950 703 c 2
 950 700 l 2
 950 632 935 574 900 528 c 0
 865 482 815 454 757 438 c 0
 709 425 653 416 603 416 c 0x7c
 586 416 569 417 554 419 c 2
 550 419 l 1
 550 1 l 2
 550 -27 528 -49 500 -49 c 0
 472 -49 450 -27 450 1 c 2
 450 371 l 1
 429 364 407 360 384 359 c 2
 372 359 l 2
 326 359 280 369 231 385 c 0
 133 416 50 491 50 614 c 2
EndSplineSet
MultipleSubs2: "nasin-nanpa-Multiple Substitution in Latin lookup 11 subtable" kasiTok combLongGlyphExtTok
MultipleSubs2: "nasin-nanpa-Multiple Substitution in Latin lookup 10 subtable" kasiTok combCartExtTok
EndChar

StartChar: kenTok
Encoding: 65610 989464 323
Width: 1000
GlyphClass: 2
Flags: MW
HStem: 349 102<300 300>
VStem: 200 100<0 349 451 800> 700 100<0 2 2 3 798 800>
LayerCount: 2
Fore
SplineSet
800 7 m 2
 800 0 l 2
 800 -28 778 -50 750 -50 c 0
 722 -50 700 -28 700 0 c 2
 700 2 l 2
 700 4 699 8 699 13 c 0
 698 22 696 35 693 52 c 0
 686 85 672 130 645 174 c 0
 596 252 500 337 300 349 c 1
 300 0 l 2
 300 -28 278 -50 250 -50 c 0
 222 -50 200 -28 200 0 c 2
 200 800 l 2
 200 828 222 850 250 850 c 0
 278 850 300 828 300 800 c 2
 300 451 l 1
 500 463 596 548 645 626 c 0
 672 670 686 715 693 748 c 0
 696 765 698 778 699 787 c 0
 699 792 700 796 700 798 c 2
 700 800 l 2
 700 828 722 850 750 850 c 0
 778 850 800 828 800 800 c 2
 800 793 l 2
 800 770 796 755 791 727 c 0
 759 580 671 462 524 400 c 1
 623 358 688 293 730 226 c 0
 765 170 782 115 791 73 c 0
 796 45 800 30 800 7 c 2
EndSplineSet
MultipleSubs2: "nasin-nanpa-Multiple Substitution in Latin lookup 11 subtable" kenTok combLongGlyphExtTok
MultipleSubs2: "nasin-nanpa-Multiple Substitution in Latin lookup 10 subtable" kenTok combCartExtTok
EndChar

StartChar: kepekenTok
Encoding: 65611 989465 324
Width: 1000
GlyphClass: 2
Flags: MW
HStem: 460 100<206 450 270 450 270 450 550 730> 750 100<270 450 270 270 550 550 550 730>
VStem: 170 100<560 750 560 800 560 814> 450 100<395 460 395 460 560 750> 677 100<0 90 -14 150> 730 100<560 750 750 750>
LayerCount: 2
Fore
SplineSet
450 750 m 1xf0
 270 750 l 1
 270 560 l 1
 450 560 l 1
 450 750 l 1xf0
550 560 m 1
 730 560 l 1
 730 750 l 1xf4
 550 750 l 1
 550 560 l 1
107 170 m 0
 107 195 129 220 157 220 c 0
 173 220 188 212 198 198 c 2
 229 154 l 1
 251 272 334 372 450 395 c 1
 450 460 l 1
 220 460 l 2
 192 460 170 482 170 510 c 2
 170 800 l 2
 170 828 192 850 220 850 c 2
 780 850 l 2
 808 850 830 828 830 800 c 2
 830 510 l 2xf4
 830 482 808 460 780 460 c 2
 550 460 l 1
 550 395 l 1
 686 368 777 233 777 90 c 2
 777 0 l 2
 777 -28 755 -50 727 -50 c 0
 699 -50 677 -28 677 0 c 2
 677 90 l 2xf8
 677 210 594 300 500 300 c 0
 406 300 323 210 323 90 c 2
 323 0 l 2
 323 -26 303 -50 273 -50 c 0
 256 -50 240 -42 231 -28 c 2
 116 142 l 2
 110 151 107 160 107 170 c 0
EndSplineSet
MultipleSubs2: "nasin-nanpa-Multiple Substitution in Latin lookup 11 subtable" kepekenTok combLongGlyphExtTok
MultipleSubs2: "nasin-nanpa-Multiple Substitution in Latin lookup 10 subtable" kepekenTok combCartExtTok
EndChar

StartChar: kiliTok
Encoding: 65612 989466 325
Width: 1000
GlyphClass: 2
Flags: MW
HStem: -52 100<402.5 597.5 402.5 625> 606 100<703 751.5>
VStem: 50 100<300.5 448.5 300.5 513.5> 450 100<651 672.5> 850 100<300.5 447>
CounterMasks: 1 38
LayerCount: 2
Fore
SplineSet
420 540 m 0
 390 579 334 609 259 610 c 0
 238 610 215 602 195 578 c 0
 174 552 150 499 150 398 c 0
 150 203 305 48 500 48 c 0
 695 48 850 203 850 398 c 0
 850 496 826 548 805 574 c 0
 785 598 763 606 740 606 c 0
 662 606 613 583 580 540 c 0
 561 515 531 500 500 500 c 0
 469 500 439 515 420 540 c 0
395 800 m 0
 395 826 417 850 444 850 c 0
 459 850 472 844 483 833 c 2
 483 833 484 833 484 832 c 0
 489 827 493 822 498 814 c 0
 524 775 550 720 550 651 c 1
 598 687 666 706 740 706 c 0
 841 706 950 625 950 398 c 0
 950 148 750 -52 500 -52 c 0
 250 -52 50 148 50 398 c 0
 50 629 158 710 258 710 c 2
 260 710 l 2
 334 709 401 687 450 650 c 1
 450 695 434 732 416 757 c 0
 413 761 411 763 410 765 c 0
 400 775 395 788 395 800 c 0
EndSplineSet
MultipleSubs2: "nasin-nanpa-Multiple Substitution in Latin lookup 11 subtable" kiliTok combLongGlyphExtTok
MultipleSubs2: "nasin-nanpa-Multiple Substitution in Latin lookup 10 subtable" kiliTok combCartExtTok
EndChar

StartChar: kiwenTok
Encoding: 65613 989467 326
Width: 1000
GlyphClass: 2
Flags: MW
HStem: 710 100<280 720 280 280>
LayerCount: 2
Fore
SplineSet
839 532 m 1
 720 710 l 1
 280 710 l 1
 161 532 l 1
 500 83 l 1
 839 532 l 1
500 -50 m 0
 484 -50 469 -43 460 -30 c 2
 60 500 l 2
 53 509 50 519 50 530 c 0
 50 540 52 550 58 558 c 2
 211 788 l 2
 220 802 236 810 253 810 c 2
 747 810 l 2
 764 810 780 802 789 788 c 2
 942 558 l 2
 948 550 950 540 950 530 c 0
 950 519 947 509 940 500 c 2
 540 -30 l 2
 531 -43 516 -50 500 -50 c 0
EndSplineSet
MultipleSubs2: "nasin-nanpa-Multiple Substitution in Latin lookup 11 subtable" kiwenTok combLongGlyphExtTok
MultipleSubs2: "nasin-nanpa-Multiple Substitution in Latin lookup 10 subtable" kiwenTok combCartExtTok
EndChar

StartChar: koTok
Encoding: 65614 989468 327
Width: 1000
GlyphClass: 3
Flags: MW
HStem: -40 100<336.5 378 324.5 384 621 652.5> 575 99<273 279 721 727 727 758> 740 100<467 534>
VStem: 50 100<425 488.5 425 518.5> 136 100<152.5 196 152.5 196.5> 763 101<165 196.5> 850 100<425 488.5>
LayerCount: 2
Fore
SplineSet
673 566 m 0xe2
 648 566 623 587 623 617 c 0
 623 685 568 740 500 740 c 0
 434 740 380 688 377 622 c 0
 378 615 376 608 374 601 c 0
 367 580 348 566 327 566 c 0
 322 566 316 567 311 569 c 0
 298 573 285 575 273 575 c 0
 211 575 150 526 150 451 c 0xf2
 150 399 183 351 235 334 c 0
 256 327 270 308 270 287 c 0
 270 273 263 261 257 253 c 0
 243 232 236 208 236 184 c 0
 236 121 290 60 359 60 c 0
 397 60 435 78 459 111 c 0
 469 125 485 132 500 132 c 0
 515 132 530 124 540 111 c 0
 564 78 602 60 640 60 c 0
 665 60 690 68 712 84 c 0
 745 108 763 146 763 184 c 0xec
 763 209 756 234 740 256 c 0
 733 265 730 275 730 286 c 0
 730 307 744 327 765 334 c 0
 817 351 850 399 850 451 c 0
 850 526 789 575 727 575 c 0
 715 575 702 573 689 569 c 0
 684 567 678 566 673 566 c 0xe2
50 451 m 0
 50 586 161 674 273 674 c 2
 284 674 l 1
 309 769 397 840 500 840 c 0
 603 840 691 769 716 674 c 1
 727 674 l 2
 839 674 950 586 950 450 c 0xf2
 950 375 912 305 849 264 c 1
 859 238 864 212 864 185 c 0
 864 116 832 47 771 3 c 0
 731 -26 685 -40 640 -40 c 0
 590 -40 541 -23 500 10 c 1
 459 -23 409 -40 359 -40 c 0
 314 -40 268 -26 228 3 c 0
 168 47 136 114 136 183 c 0xec
 136 210 141 238 151 264 c 1
 88 305 50 376 50 451 c 0
EndSplineSet
MultipleSubs2: "nasin-nanpa-Multiple Substitution in Latin lookup 11 subtable" koTok combLongGlyphExtTok
MultipleSubs2: "nasin-nanpa-Multiple Substitution in Latin lookup 10 subtable" koTok combCartExtTok
Ligature2: "nasin-nanpa-'liga' Standard Ligatures in Latin lookup 1 subtable" koTok_VAR08 VAR09
Ligature2: "nasin-nanpa-'liga' Standard Ligatures in Latin lookup 1 subtable" koTok_VAR07 VAR09
Ligature2: "nasin-nanpa-'liga' Standard Ligatures in Latin lookup 1 subtable" koTok_VAR06 VAR09
Ligature2: "nasin-nanpa-'liga' Standard Ligatures in Latin lookup 1 subtable" koTok_VAR05 VAR09
Ligature2: "nasin-nanpa-'liga' Standard Ligatures in Latin lookup 1 subtable" koTok_VAR04 VAR09
Ligature2: "nasin-nanpa-'liga' Standard Ligatures in Latin lookup 1 subtable" koTok_VAR03 VAR09
Ligature2: "nasin-nanpa-'liga' Standard Ligatures in Latin lookup 1 subtable" koTok_VAR02 VAR09
Ligature2: "nasin-nanpa-'liga' Standard Ligatures in Latin lookup 1 subtable" koTok_VAR01 VAR09
AlternateSubs2: "nasin-nanpa-'rand' Randomize in Latin lookup 0 subtable" koTok_VAR01 koTok_VAR02 koTok_VAR03 koTok_VAR04 koTok_VAR05 koTok_VAR06 koTok_VAR07 koTok_VAR08
EndChar

StartChar: konTok
Encoding: 65615 989469 328
Width: 1000
GlyphClass: 2
Flags: MW
HStem: -50 98 751 100
VStem: 150 100<573.5 607.5 573.5 646.5> 350 100<191.5 226> 550 100<573.5 607.5 573.5 646.5> 750 100<191.5 226>
LayerCount: 2
Fore
SplineSet
376 851 m 0
 400 851 427 830 427 800 c 0
 427 778 411 757 388 751 c 0
 350 741 324 734 303 719 c 0
 285 706 267 685 256 642 c 0
 252 627 250 614 250 601 c 0
 250 546 284 501 339 432 c 0
 340 429 343 428 344 425 c 0
 394 362 450 292 450 199 c 0
 450 107 405 36 355 1 c 0
 319 -24 278 -37 242 -47 c 0
 241 -47 239 -48 238 -48 c 0
 233 -49 228 -50 223 -50 c 0
 198 -50 174 -30 174 1 c 0
 174 23 188 41 210 48 c 0
 250 59 277 68 298 83 c 0
 316 96 333 116 344 158 c 0
 348 172 350 185 350 198 c 0
 350 254 316 300 261 368 c 0
 259 371 259 372 256 375 c 0
 205 439 150 508 150 601 c 0
 150 692 195 765 245 800 c 0
 283 827 326 840 364 849 c 0
 368 850 372 851 376 851 c 0
776 851 m 0
 800 851 827 830 827 800 c 0
 827 778 811 757 788 751 c 0
 750 741 724 734 703 719 c 0
 685 706 667 685 656 642 c 0
 652 627 650 614 650 601 c 0
 650 546 684 501 739 432 c 0
 740 429 743 428 744 425 c 0
 794 362 850 292 850 199 c 0
 850 107 805 36 755 1 c 0
 719 -24 678 -37 642 -47 c 0
 641 -47 639 -48 638 -48 c 0
 633 -49 628 -50 623 -50 c 0
 598 -50 574 -30 574 1 c 0
 574 23 588 41 610 48 c 0
 650 59 677 68 698 83 c 0
 716 96 733 116 744 158 c 0
 748 172 750 185 750 198 c 0
 750 254 716 300 661 368 c 0
 659 371 659 372 656 375 c 0
 605 439 550 508 550 601 c 0
 550 692 595 765 645 800 c 0
 683 827 726 840 764 849 c 0
 768 850 772 851 776 851 c 0
EndSplineSet
MultipleSubs2: "nasin-nanpa-Multiple Substitution in Latin lookup 11 subtable" konTok combLongGlyphExtTok
MultipleSubs2: "nasin-nanpa-Multiple Substitution in Latin lookup 10 subtable" konTok combCartExtTok
EndChar

StartChar: kuleTok
Encoding: 65616 989470 329
Width: 1000
GlyphClass: 2
Flags: MW
HStem: 0 100<97 803 197 803 197 890> 300 100<86 255 100 197 100 312 370 630 803 803 803 900>
LayerCount: 2
Fore
SplineSet
312 300 m 1
 197 100 l 1
 803 100 l 1
 688 300 l 1
 312 300 l 1
630 400 m 1
 500 625 l 1
 370 400 l 1
 630 400 l 1
110 0 m 2
 84 0 60 21 60 50 c 0
 60 59 63 67 67 75 c 2
 197 300 l 1
 100 300 l 2
 72 300 50 322 50 350 c 0
 50 378 72 400 100 400 c 2
 255 400 l 1
 457 750 l 2
 466 765 482 775 500 775 c 0
 518 775 534 765 543 750 c 2
 745 400 l 1
 900 400 l 2
 928 400 950 378 950 350 c 0
 950 322 928 300 900 300 c 2
 803 300 l 1
 933 75 l 2
 937 67 940 59 940 50 c 0
 940 21 916 0 890 0 c 2
 110 0 l 2
EndSplineSet
MultipleSubs2: "nasin-nanpa-Multiple Substitution in Latin lookup 11 subtable" kuleTok combLongGlyphExtTok
MultipleSubs2: "nasin-nanpa-Multiple Substitution in Latin lookup 10 subtable" kuleTok combCartExtTok
EndChar

StartChar: kulupuTok
Encoding: 65617 989471 330
Width: 1000
GlyphClass: 2
Flags: MW
HStem: -6 100<234.5 289.5 234.5 317 710.5 765.5> 294 100<234.5 289.5 710.5 765.5> 406 100<472.5 527.5 472.5 555> 706 100<472.5 527.5>
VStem: 62 100<166.5 221.5 166.5 249> 300 100<578.5 633.5 578.5 661> 362 100<166.5 221.5> 538 100<166.5 221.5 166.5 249> 600 100<578.5 633.5> 838 100<166.5 221.5>
LayerCount: 2
Fore
SplineSet
262 -6 m 0xfa40
 152 -6 62 84 62 194 c 0
 62 304 152 394 262 394 c 0
 372 394 462 304 462 194 c 0
 462 84 372 -6 262 -6 c 0xfa40
262 94 m 0
 317 94 362 139 362 194 c 0
 362 249 317 294 262 294 c 0
 207 294 162 249 162 194 c 0
 162 139 207 94 262 94 c 0
738 -6 m 0
 628 -6 538 84 538 194 c 0xf940
 538 304 628 394 738 394 c 0
 848 394 938 304 938 194 c 0
 938 84 848 -6 738 -6 c 0
738 94 m 0
 793 94 838 139 838 194 c 0
 838 249 793 294 738 294 c 0
 683 294 638 249 638 194 c 0
 638 139 683 94 738 94 c 0
500 406 m 0
 390 406 300 496 300 606 c 0
 300 716 390 806 500 806 c 0
 610 806 700 716 700 606 c 0xfcc0
 700 496 610 406 500 406 c 0
500 506 m 0
 555 506 600 551 600 606 c 0
 600 661 555 706 500 706 c 0
 445 706 400 661 400 606 c 0
 400 551 445 506 500 506 c 0
EndSplineSet
MultipleSubs2: "nasin-nanpa-Multiple Substitution in Latin lookup 11 subtable" kulupuTok combLongGlyphExtTok
MultipleSubs2: "nasin-nanpa-Multiple Substitution in Latin lookup 10 subtable" kulupuTok combCartExtTok
EndChar

StartChar: kuteTok
Encoding: 65618 989472 331
Width: 1000
GlyphClass: 2
Flags: MW
HStem: -33 95<270 301 270 300> 736 100<467 571.5>
VStem: 183 98<505 522> 467 97 716 100<419 571.5>
LayerCount: 2
Fore
SplineSet
183 520 m 0
 183 524 183 532 186 535 c 2
 186 538 l 1
 193 551 195 562 203 580 c 0
 214 607 231 643 255 680 c 0
 301 751 381 836 500 836 c 0
 711 836 816 666 816 519 c 0
 816 319 679 179 554 94 c 0
 491 51 427 19 380 -2 c 0
 356 -12 337 -20 323 -25 c 0
 314 -29 309 -32 302 -32 c 1
 301 -33 l 1
 300 -33 l 2
 295 -35 290 -35 285 -35 c 0
 260 -35 235 -17 235 13 c 0
 235 34 249 55 270 62 c 1
 271 62 l 2
 272 62 272 63 274 64 c 0
 296 71 311 77 340 90 c 0
 504 162 716 306 716 519 c 0
 716 624 643 736 500 736 c 0
 434 736 380 688 339 625 c 0
 319 595 305 565 295 542 c 0
 288 526 286 518 281 507 c 1
 281 505 l 1
 274 484 253 470 232 470 c 0
 202 470 183 496 183 520 c 0
516 576 m 0
 546 576 564 551 564 526 c 0
 564 521 564 516 562 511 c 0
 528 405 475 321 380 260 c 0
 372 255 363 252 354 252 c 0
 329 252 303 274 303 303 c 0
 303 319 311 335 326 345 c 0
 397 390 439 452 467 541 c 0
 474 562 495 576 516 576 c 0
EndSplineSet
MultipleSubs2: "nasin-nanpa-Multiple Substitution in Latin lookup 11 subtable" kuteTok combLongGlyphExtTok
MultipleSubs2: "nasin-nanpa-Multiple Substitution in Latin lookup 10 subtable" kuteTok combCartExtTok
EndChar

StartChar: laTok
Encoding: 65619 989473 332
Width: 1000
GlyphClass: 2
Flags: MW
HStem: -50 96 754 96
VStem: 550 100<322 478>
LayerCount: 2
Fore
SplineSet
400 -50 m 0
 375 -50 350 -30 350 0 c 0
 350 20 361 38 381 46 c 0
 485 87 550 244 550 400 c 0
 550 556 485 713 381 754 c 0
 361 762 350 780 350 800 c 0
 350 830 375 850 400 850 c 0
 406 850 413 848 419 846 c 0
 564 788 650 603 650 400 c 0
 650 197 564 12 419 -46 c 0
 413 -48 406 -50 400 -50 c 0
EndSplineSet
MultipleSubs2: "nasin-nanpa-Multiple Substitution in Latin lookup 11 subtable" laTok combLongGlyphExtTok
MultipleSubs2: "nasin-nanpa-Multiple Substitution in Latin lookup 10 subtable" laTok combCartExtTok
EndChar

StartChar: lapeTok
Encoding: 65620 989474 333
Width: 1000
GlyphClass: 2
Flags: MW
HStem: 200 100<722.5 777.5 722.5 805> 350 100<86 556 100 556> 500 100<722.5 777.5>
VStem: 850 100<372.5 427.5>
CounterMasks: 1 e0
LayerCount: 2
Fore
SplineSet
750 500 m 0
 695 500 650 455 650 400 c 0
 650 345 695 300 750 300 c 0
 805 300 850 345 850 400 c 0
 850 455 805 500 750 500 c 0
556 350 m 1
 100 350 l 2
 72 350 50 372 50 400 c 0
 50 428 72 450 100 450 c 2
 556 450 l 1
 578 536 657 600 750 600 c 0
 860 600 950 510 950 400 c 0
 950 290 860 200 750 200 c 0
 657 200 578 264 556 350 c 1
EndSplineSet
MultipleSubs2: "nasin-nanpa-Multiple Substitution in Latin lookup 11 subtable" lapeTok combLongGlyphExtTok
MultipleSubs2: "nasin-nanpa-Multiple Substitution in Latin lookup 10 subtable" lapeTok combCartExtTok
EndChar

StartChar: lasoTok
Encoding: 65621 989475 334
Width: 1000
GlyphClass: 2
Flags: MW
HStem: -41 100<253.5 644 356 644 356 734>
VStem: 451 100<406 485 402 485>
LayerCount: 2
Fore
SplineSet
356 59 m 1
 644 59 l 1
 500 294 l 1
 356 59 l 1
574 591 m 0
 619 601 660 616 680 636 c 0
 697 653 711 685 722 721 c 1
 719 720 717 720 714 719 c 0
 669 709 628 693 608 673 c 0
 592 656 577 624 566 589 c 1
 569 590 571 590 574 591 c 0
288 719 m 0
 285 720 283 720 280 721 c 1
 291 686 306 654 322 637 c 0
 342 617 383 601 428 591 c 0
 431 590 433 590 436 589 c 1
 425 625 411 657 394 674 c 0
 374 694 333 709 288 719 c 0
215 830 m 2
 220 830 l 2
 221 830 224 829 226 829 c 0
 231 829 237 828 245 827 c 0
 261 825 284 822 309 817 c 0
 356 807 423 787 465 744 c 0
 479 729 491 712 501 694 c 1
 511 712 523 729 537 743 c 0
 579 786 645 807 692 817 c 0
 717 822 740 825 756 827 c 0
 764 828 771 829 776 829 c 0
 778 829 781 830 782 830 c 2
 787 830 l 2
 815 830 836 808 836 780 c 2
 836 771 l 2
 836 770 835 768 835 766 c 0
 829 742 827 725 819 696 c 0
 807 657 787 602 751 566 c 0
 709 523 642 503 595 493 c 0
 579 490 564 487 551 485 c 1
 551 402 l 1
 776 35 l 2
 781 27 783 18 783 9 c 0
 783 -20 759 -41 734 -41 c 2
 266 -41 l 2
 241 -41 217 -20 217 9 c 0
 217 18 219 27 224 35 c 2
 451 406 l 1
 451 485 l 1
 438 487 422 489 406 493 c 0
 359 503 293 524 251 567 c 0
 216 603 195 658 183 697 c 0
 175 725 173 743 167 766 c 0
 167 768 166 770 166 771 c 2
 166 780 l 2
 166 808 187 830 215 830 c 2
EndSplineSet
MultipleSubs2: "nasin-nanpa-Multiple Substitution in Latin lookup 11 subtable" lasoTok combLongGlyphExtTok
MultipleSubs2: "nasin-nanpa-Multiple Substitution in Latin lookup 10 subtable" lasoTok combCartExtTok
EndChar

StartChar: lawaTok
Encoding: 65622 989476 335
Width: 1000
GlyphClass: 2
Flags: MW
HStem: 0 100<334.5 465.5 334.5 500> 500 100<164 586 214 586 214 636 739 900 739 739> 700 100<364.5 435.5>
VStem: 50 100<313.5 418 313.5 506.5> 650 100<313.5 417 293.5 418>
LayerCount: 2
Fore
SplineSet
164 500 m 1
 155 469 150 436 150 400 c 0
 150 227 269 100 400 100 c 0
 531 100 650 227 650 400 c 0
 650 436 645 469 636 500 c 1
 164 500 l 1
214 600 m 1
 586 600 l 1
 539 662 471 700 400 700 c 0
 329 700 261 662 214 600 c 1
739 500 m 1
 746 468 750 434 750 400 c 0
 750 187 600 0 400 0 c 0
 200 0 50 187 50 400 c 0
 50 613 200 800 400 800 c 0
 533 800 644 718 703 600 c 1
 900 600 l 2
 928 600 950 578 950 550 c 0
 950 522 928 500 900 500 c 2
 739 500 l 1
EndSplineSet
MultipleSubs2: "nasin-nanpa-Multiple Substitution in Latin lookup 11 subtable" lawaTok combLongGlyphExtTok
MultipleSubs2: "nasin-nanpa-Multiple Substitution in Latin lookup 10 subtable" lawaTok combCartExtTok
EndChar

StartChar: lenTok
Encoding: 65623 989477 336
Width: 1000
GlyphClass: 2
Flags: MW
HStem: 150 100<250 450 250 750 550 750 550 550> 700 100<250 750 250 250>
VStem: 150 100<0 150 250 700> 450 100<0 150> 750 100<0 150 150 150 250 700 700 700>
CounterMasks: 1 38
LayerCount: 2
Fore
SplineSet
750 250 m 1
 750 700 l 1
 250 700 l 1
 250 250 l 1
 750 250 l 1
200 800 m 2
 800 800 l 2
 828 800 850 778 850 750 c 2
 850 0 l 2
 850 -28 828 -50 800 -50 c 0
 772 -50 750 -28 750 0 c 2
 750 150 l 1
 550 150 l 1
 550 0 l 2
 550 -28 528 -50 500 -50 c 0
 472 -50 450 -28 450 0 c 2
 450 150 l 1
 250 150 l 1
 250 0 l 2
 250 -28 228 -50 200 -50 c 0
 172 -50 150 -28 150 0 c 2
 150 750 l 2
 150 778 172 800 200 800 c 2
EndSplineSet
MultipleSubs2: "nasin-nanpa-Multiple Substitution in Latin lookup 11 subtable" lenTok combLongGlyphExtTok
MultipleSubs2: "nasin-nanpa-Multiple Substitution in Latin lookup 10 subtable" lenTok combCartExtTok
EndChar

StartChar: leteTok
Encoding: 65624 989478 337
Width: 1000
GlyphClass: 2
Flags: MW
HStem: 350 100<86 413 100 413 587 900> 777 20G<284.5 307.5 692.5 715.5>
LayerCount: 2
Fore
SplineSet
701 797 m 0
 730 797 750 771 750 746 c 0
 750 737 748 729 743 721 c 2
 587 450 l 1
 900 450 l 2
 928 450 950 428 950 400 c 0
 950 372 928 350 900 350 c 2
 587 350 l 1
 743 79 l 2
 748 71 750 63 750 54 c 0
 750 29 730 3 701 3 c 0
 684 3 666 13 657 29 c 2
 500 300 l 1
 343 29 l 2
 334 13 316 3 299 3 c 0
 270 3 250 29 250 54 c 0
 250 63 252 71 257 79 c 2
 413 350 l 1
 100 350 l 2
 72 350 50 372 50 400 c 0
 50 428 72 450 100 450 c 2
 413 450 l 1
 257 721 l 2
 252 729 250 737 250 746 c 0
 250 771 270 797 299 797 c 0
 316 797 334 787 343 771 c 2
 500 500 l 1
 657 771 l 2
 666 787 684 797 701 797 c 0
EndSplineSet
MultipleSubs2: "nasin-nanpa-Multiple Substitution in Latin lookup 11 subtable" leteTok combLongGlyphExtTok
MultipleSubs2: "nasin-nanpa-Multiple Substitution in Latin lookup 10 subtable" leteTok combCartExtTok
EndChar

StartChar: liTok
Encoding: 65625 989479 338
Width: 1000
GlyphClass: 2
Flags: W
LayerCount: 2
Fore
SplineSet
200 800 m 0
 200 827 224 850 250 850 c 0
 261 850 273 846 282 838 c 2
 757 438 l 2
 768 428 775 415 775 400 c 0
 775 385 768 372 757 362 c 2
 282 -38 l 2
 273 -46 261 -50 250 -50 c 0
 224 -50 200 -27 200 0 c 0
 200 14 206 28 218 38 c 2
 647 400 l 1
 218 762 l 2
 206 772 200 786 200 800 c 0
EndSplineSet
MultipleSubs2: "nasin-nanpa-Multiple Substitution in Latin lookup 11 subtable" liTok combLongGlyphExtTok
MultipleSubs2: "nasin-nanpa-Multiple Substitution in Latin lookup 10 subtable" liTok combCartExtTok
EndChar

StartChar: liliTok
Encoding: 65626 989480 339
Width: 1000
GlyphClass: 2
Flags: MW
HStem: 250 300<336 508>
LayerCount: 2
Fore
SplineSet
650 550 m 0
 678 550 700 526 700 500 c 0
 700 490 697 479 690 470 c 2
 540 270 l 2
 531 257 516 250 500 250 c 0
 484 250 469 257 460 270 c 2
 310 470 l 2
 303 479 300 490 300 500 c 0
 300 526 322 550 350 550 c 0
 365 550 380 543 390 530 c 2
 500 383 l 1
 610 530 l 2
 620 543 635 550 650 550 c 0
EndSplineSet
MultipleSubs2: "nasin-nanpa-Multiple Substitution in Latin lookup 11 subtable" liliTok combLongGlyphExtTok
MultipleSubs2: "nasin-nanpa-Multiple Substitution in Latin lookup 10 subtable" liliTok combCartExtTok
EndChar

StartChar: linjaTok
Encoding: 65627 989481 340
Width: 1000
GlyphClass: 2
Flags: MW
HStem: 200 100<303 340.5 303 365> 500 100<659.5 697>
VStem: 852 98
LayerCount: 2
Fore
SplineSet
950 287 m 0
 950 262 931 237 900 237 c 0
 878 237 858 252 852 275 c 0
 829 366 818 459 737 491 c 0
 721 497 705 500 689 500 c 0
 630 500 572 459 548 385 c 0
 513 275 418 200 312 200 c 0
 284 200 255 206 226 217 c 0
 105 265 84 371 52 500 c 0
 51 504 50 509 50 513 c 0
 50 538 69 563 100 563 c 0
 122 563 142 548 148 525 c 0
 171 434 182 341 263 309 c 0
 279 303 295 300 311 300 c 0
 370 300 428 341 452 415 c 0
 487 525 582 600 688 600 c 0
 716 600 745 594 774 583 c 0
 895 535 916 429 948 300 c 0
 949 296 950 291 950 287 c 0
EndSplineSet
MultipleSubs2: "nasin-nanpa-Multiple Substitution in Latin lookup 11 subtable" linjaTok combLongGlyphExtTok
MultipleSubs2: "nasin-nanpa-Multiple Substitution in Latin lookup 10 subtable" linjaTok combCartExtTok
EndChar

StartChar: lipuTok
Encoding: 65628 989482 341
Width: 1000
GlyphClass: 2
Flags: MW
HStem: 0 100<186 750 250 750 250 800> 700 100<250 250 250 750>
VStem: 150 100<100 700 100 750 100 764> 750 100<100 700 700 700>
LayerCount: 2
Fore
SplineSet
250 700 m 1
 250 100 l 1
 750 100 l 1
 750 700 l 1
 250 700 l 1
150 750 m 2
 150 778 172 800 200 800 c 2
 800 800 l 2
 828 800 850 778 850 750 c 2
 850 50 l 2
 850 22 828 0 800 0 c 2
 200 0 l 2
 172 0 150 22 150 50 c 2
 150 750 l 2
EndSplineSet
MultipleSubs2: "nasin-nanpa-Multiple Substitution in Latin lookup 11 subtable" lipuTok combLongGlyphExtTok
MultipleSubs2: "nasin-nanpa-Multiple Substitution in Latin lookup 10 subtable" lipuTok combCartExtTok
EndChar

StartChar: lojeTok
Encoding: 65629 989483 342
Width: 1000
GlyphClass: 2
Flags: MW
HStem: -40 100<253.5 644 356 644 356 734> 465 100<448 552 448 588.5> 735 100<286 286 286 714>
LayerCount: 2
Fore
SplineSet
356 60 m 1
 644 60 l 1
 500 295 l 1
 356 60 l 1
266 -40 m 2
 241 -40 217 -19 217 10 c 0
 217 19 219 28 224 36 c 2
 457 417 l 2
 466 432 483 441 500 441 c 0
 517 441 534 432 543 417 c 2
 776 36 l 2
 781 28 783 19 783 10 c 0
 783 -19 759 -40 734 -40 c 2
 266 -40 l 2
286 735 m 1
 309 638 396 565 500 565 c 0
 604 565 691 638 714 735 c 1
 286 735 l 1
180 785 m 0
 180 813 202 835 230 835 c 2
 770 835 l 2
 798 835 820 813 820 785 c 0
 820 608 677 465 500 465 c 0
 323 465 180 608 180 785 c 0
EndSplineSet
MultipleSubs2: "nasin-nanpa-Multiple Substitution in Latin lookup 11 subtable" lojeTok combLongGlyphExtTok
MultipleSubs2: "nasin-nanpa-Multiple Substitution in Latin lookup 10 subtable" lojeTok combCartExtTok
EndChar

StartChar: lonTok
Encoding: 65630 989484 343
Width: 1000
GlyphClass: 2
Flags: MW
HStem: 150 100<86 900 100 900> 400 150<479.5 520.5>
VStem: 425 150<454.5 495.5>
LayerCount: 2
Fore
SplineSet
575 475 m 0
 575 434 541 400 500 400 c 0
 459 400 425 434 425 475 c 0
 425 516 459 550 500 550 c 0
 541 550 575 516 575 475 c 0
50 200 m 0
 50 228 72 250 100 250 c 2
 900 250 l 2
 928 250 950 228 950 200 c 0
 950 172 928 150 900 150 c 2
 100 150 l 2
 72 150 50 172 50 200 c 0
EndSplineSet
MultipleSubs2: "nasin-nanpa-Multiple Substitution in Latin lookup 11 subtable" lonTok combLongGlyphExtTok
MultipleSubs2: "nasin-nanpa-Multiple Substitution in Latin lookup 10 subtable" lonTok combCartExtTok
EndChar

StartChar: lukaTok
Encoding: 65631 989485 344
Width: 1000
GlyphClass: 2
Flags: MW
HStem: 700 100<566 634>
VStem: 250 100<188 290> 850 100<0 290>
LayerCount: 2
Fore
SplineSet
50 350 m 0
 50 375 71 400 100 400 c 0
 117 400 134 391 143 375 c 2
 250 188 l 1
 250 290 l 2
 250 459 284 586 347 672 c 0
 411 760 502 800 600 800 c 0
 698 800 789 760 853 672 c 0
 916 586 950 459 950 290 c 2
 950 0 l 2
 950 -28 928 -50 900 -50 c 0
 872 -50 850 -28 850 0 c 2
 850 290 l 2
 850 447 818 550 772 613 c 0
 728 674 668 700 600 700 c 0
 532 700 472 674 428 613 c 0
 382 550 350 447 350 290 c 2
 350 0 l 2
 350 -27 329 -50 299 -50 c 0
 282 -50 266 -41 257 -25 c 2
 57 325 l 2
 52 333 50 341 50 350 c 0
EndSplineSet
MultipleSubs2: "nasin-nanpa-Multiple Substitution in Latin lookup 11 subtable" lukaTok combLongGlyphExtTok
MultipleSubs2: "nasin-nanpa-Multiple Substitution in Latin lookup 10 subtable" lukaTok combCartExtTok
EndChar

StartChar: lukinTok
Encoding: 65632 989486 345
Width: 1000
GlyphClass: 2
Flags: MW
HStem: 125 100<434.5 565.5 434.5 580.5> 300 200<472.5 527.5> 575 100<434.5 565.5>
VStem: 400 200<372.5 427.5>
CounterMasks: 1 e0
LayerCount: 2
Fore
SplineSet
500 225 m 0
 631 225 770 296 831 400 c 1
 770 504 631 575 500 575 c 0
 369 575 230 504 169 400 c 1
 230 296 369 225 500 225 c 0
83 349 m 0
 74 365 70 382 70 400 c 0
 70 418 74 435 83 451 c 0
 165 590 339 675 500 675 c 0
 661 675 835 590 917 451 c 0
 926 435 930 418 930 400 c 0
 930 382 926 365 917 349 c 0
 835 210 661 125 500 125 c 0
 339 125 165 210 83 349 c 0
600 400 m 0
 600 345 555 300 500 300 c 0
 445 300 400 345 400 400 c 0
 400 455 445 500 500 500 c 0
 555 500 600 455 600 400 c 0
EndSplineSet
MultipleSubs2: "nasin-nanpa-Multiple Substitution in Latin lookup 11 subtable" lukinTok combLongGlyphExtTok
MultipleSubs2: "nasin-nanpa-Multiple Substitution in Latin lookup 10 subtable" lukinTok combCartExtTok
EndChar

StartChar: lupaTok
Encoding: 65633 989487 346
Width: 1000
GlyphClass: 2
Flags: MW
HStem: 0 100<434.5 565.5 434.5 600>
VStem: 150 100<400 750> 750 100<400 750>
LayerCount: 2
Fore
SplineSet
500 100 m 0
 631 100 750 227 750 400 c 2
 750 750 l 2
 750 778 772 800 800 800 c 0
 828 800 850 778 850 750 c 2
 850 400 l 2
 850 187 700 0 500 0 c 0
 300 0 150 187 150 400 c 2
 150 750 l 2
 150 778 172 800 200 800 c 0
 228 800 250 778 250 750 c 2
 250 400 l 2
 250 227 369 100 500 100 c 0
EndSplineSet
MultipleSubs2: "nasin-nanpa-Multiple Substitution in Latin lookup 11 subtable" lupaTok combLongGlyphExtTok
MultipleSubs2: "nasin-nanpa-Multiple Substitution in Latin lookup 10 subtable" lupaTok combCartExtTok
EndChar

StartChar: maTok
Encoding: 65634 989488 347
Width: 1000
GlyphClass: 2
Flags: MW
HStem: -50 104<450 450 450 550 450 624.5> 350 100<154 450 154 450 550 846> 746 104<450 450 550 550>
VStem: 50 104<350 350 350 450 350 524.5> 450 100<54 350 450 746> 846 104<350 350 450 450>
CounterMasks: 1 fc
LayerCount: 2
Fore
SplineSet
450 746 m 1
 297 724 176 603 154 450 c 1
 450 450 l 1
 450 746 l 1
550 450 m 1
 846 450 l 1
 824 603 703 724 550 746 c 1
 550 450 l 1
450 54 m 1
 450 350 l 1
 154 350 l 1
 176 197 297 76 450 54 c 1
550 54 m 1
 703 76 824 197 846 350 c 1
 550 350 l 1
 550 54 l 1
500 -50 m 0
 251 -50 50 151 50 400 c 0
 50 649 251 850 500 850 c 0
 749 850 950 649 950 400 c 0
 950 151 749 -50 500 -50 c 0
EndSplineSet
MultipleSubs2: "nasin-nanpa-Multiple Substitution in Latin lookup 11 subtable" maTok combLongGlyphExtTok
MultipleSubs2: "nasin-nanpa-Multiple Substitution in Latin lookup 10 subtable" maTok combCartExtTok
EndChar

StartChar: mamaTok
Encoding: 65635 989489 348
Width: 1000
GlyphClass: 2
Flags: MW
HStem: -50 100<479.5 520.5 479.5 548.5> 200 100<479.5 520.5> 750 100<411 589>
VStem: 100 100<468 582 468 620> 325 100<104.5 143> 575 100<104.5 143 76.5 145.5> 800 100<468 582>
LayerCount: 2
Fore
SplineSet
500 200 m 0
 459 200 425 166 425 125 c 0
 425 84 459 50 500 50 c 0
 541 50 575 84 575 125 c 0
 575 166 541 200 500 200 c 0
200 525 m 0
 200 411 322 300 500 300 c 0
 678 300 800 411 800 525 c 0
 800 639 678 750 500 750 c 0
 322 750 200 639 200 525 c 0
645 222 m 1
 664 194 675 161 675 125 c 0
 675 28 597 -50 500 -50 c 0
 403 -50 325 28 325 125 c 0
 325 161 336 194 355 222 c 1
 211 268 100 381 100 525 c 0
 100 715 291 850 500 850 c 0
 709 850 900 715 900 525 c 0
 900 381 789 268 645 222 c 1
EndSplineSet
MultipleSubs2: "nasin-nanpa-Multiple Substitution in Latin lookup 11 subtable" mamaTok combLongGlyphExtTok
MultipleSubs2: "nasin-nanpa-Multiple Substitution in Latin lookup 10 subtable" mamaTok combCartExtTok
EndChar

StartChar: maniTok
Encoding: 65636 989490 349
Width: 1000
GlyphClass: 2
Flags: MW
HStem: -50 100<417 583 417 610.5> 650 100<460 540 460 583>
VStem: 50 98 100 100<267 400> 800 100<267 400 239.5 433>
LayerCount: 2
Fore
SplineSet
800 350 m 0xd8
 800 516 666 650 500 650 c 0
 334 650 200 516 200 350 c 0
 200 184 334 50 500 50 c 0
 666 50 800 184 800 350 c 0xd8
50 800 m 0xe8
 50 825 69 850 100 850 c 0xd8
 122 850 142 836 148 813 c 0xe8
 158 776 172 751 191 733 c 0
 210 715 238 699 281 686 c 1
 282 686 l 1
 345 727 420 750 500 750 c 0
 580 750 655 727 718 686 c 1
 719 686 l 1
 762 699 790 715 809 733 c 0
 828 751 842 776 852 813 c 0
 858 836 878 850 900 850 c 0
 931 850 950 825 950 800 c 0
 950 796 949 791 948 787 c 0
 935 737 914 695 879 661 c 0
 857 640 832 624 803 611 c 1
 863 541 900 450 900 350 c 0
 900 129 721 -50 500 -50 c 0
 279 -50 100 129 100 350 c 0xd8
 100 450 137 541 197 611 c 1
 168 624 143 640 121 661 c 0
 86 695 65 737 52 787 c 0
 51 791 50 796 50 800 c 0xe8
EndSplineSet
MultipleSubs2: "nasin-nanpa-Multiple Substitution in Latin lookup 11 subtable" maniTok combLongGlyphExtTok
MultipleSubs2: "nasin-nanpa-Multiple Substitution in Latin lookup 10 subtable" maniTok combCartExtTok
EndChar

StartChar: meliTok
Encoding: 65637 989491 350
Width: 1000
GlyphClass: 2
Flags: MW
HStem: 100 100<445 555 445 583> 600 100<445 555> 750 100<403.5 596.5>
VStem: 50 100<0 400> 200 100<345 455 345 483> 700 100<345 455> 850 100<0 400>
LayerCount: 2
Fore
SplineSet
200 400 m 0
 200 566 334 700 500 700 c 0
 666 700 800 566 800 400 c 0
 800 234 666 100 500 100 c 0
 334 100 200 234 200 400 c 0
500 600 m 0
 390 600 300 510 300 400 c 0
 300 290 390 200 500 200 c 0
 610 200 700 290 700 400 c 0
 700 510 610 600 500 600 c 0
500 750 m 0
 307 750 150 593 150 400 c 2
 150 0 l 2
 150 -28 128 -50 100 -50 c 0
 72 -50 50 -28 50 0 c 2
 50 400 l 2
 50 649 251 850 500 850 c 0
 749 850 950 649 950 400 c 2
 950 0 l 2
 950 -28 928 -50 900 -50 c 0
 872 -50 850 -28 850 0 c 2
 850 400 l 2
 850 593 693 750 500 750 c 0
EndSplineSet
MultipleSubs2: "nasin-nanpa-Multiple Substitution in Latin lookup 11 subtable" meliTok combLongGlyphExtTok
MultipleSubs2: "nasin-nanpa-Multiple Substitution in Latin lookup 10 subtable" meliTok combCartExtTok
EndChar

StartChar: miTok
Encoding: 65638 989492 351
Width: 1000
GlyphClass: 2
Flags: MW
HStem: 0 21G<439.5 465> 400 100<485 527.5 472.5 555> 700 100<472.5 527.5>
VStem: 300 100<572.5 627.5 572.5 655> 402 95<36 68 37 68> 600 100<572.5 627.5>
LayerCount: 2
Fore
SplineSet
600 600 m 0
 600 655 555 700 500 700 c 0
 445 700 400 655 400 600 c 0
 400 545 445 500 500 500 c 0
 555 500 600 545 600 600 c 0
500 50 m 0
 500 26 480 0 450 0 c 0
 429 0 409 15 402 36 c 1
 402 37 l 2
 402 38 401 39 401 40 c 0
 395 57 393 69 386 93 c 0
 376 128 364 177 351 233 c 0
 326 344 300 487 300 600 c 0
 300 710 390 800 500 800 c 0
 610 800 700 710 700 600 c 0
 700 490 610 400 500 400 c 0
 470 400 442 406 417 418 c 1
 433 321 462 200 483 119 c 0
 488 102 491 88 494 79 c 0
 495 74 496 70 497 68 c 2
 497 66 l 1
 498 65 l 1
 498 64 l 2
 499 59 500 55 500 50 c 0
EndSplineSet
MultipleSubs2: "nasin-nanpa-Multiple Substitution in Latin lookup 11 subtable" miTok combLongGlyphExtTok
MultipleSubs2: "nasin-nanpa-Multiple Substitution in Latin lookup 10 subtable" miTok combCartExtTok
EndChar

StartChar: mijeTok
Encoding: 65639 989493 352
Width: 1000
GlyphClass: 2
Flags: MW
HStem: -25 250<140 154 846 860 860 874> 125 100<190 255 431 569 745 810 190 190> 725 100<431 569>
VStem: 90 100<25 125> 150 100<426 544 406 571.5> 750 100<426 544> 810 100<25 125 125 125>
LayerCount: 2
Fore
SplineSet
250 475 m 0x6c
 250 337 362 225 500 225 c 0
 638 225 750 337 750 475 c 0
 750 613 638 725 500 725 c 0
 362 725 250 613 250 475 c 0x6c
745 225 m 1
 860 225 l 2
 888 225 910 203 910 175 c 2
 910 25 l 2
 910 -3 888 -25 860 -25 c 0xa2
 832 -25 810 -3 810 25 c 2
 810 125 l 1
 190 125 l 1x72
 190 25 l 2
 190 -3 168 -25 140 -25 c 0
 112 -25 90 -3 90 25 c 2
 90 175 l 2
 90 203 112 225 140 225 c 2xb2
 255 225 l 1
 190 289 150 377 150 475 c 0
 150 668 307 825 500 825 c 0
 693 825 850 668 850 475 c 0
 850 377 810 289 745 225 c 1
EndSplineSet
MultipleSubs2: "nasin-nanpa-Multiple Substitution in Latin lookup 11 subtable" mijeTok combLongGlyphExtTok
MultipleSubs2: "nasin-nanpa-Multiple Substitution in Latin lookup 10 subtable" mijeTok combCartExtTok
EndChar

StartChar: mokuTok
Encoding: 65640 989494 353
Width: 1000
GlyphClass: 2
Flags: MW
HStem: 300 100<505 599> 450 100<497 587 497 629> 750 100<346 346 346 738>
VStem: 729 100<0 90 -14 150>
LayerCount: 2
Fore
SplineSet
346 750 m 1
 365 630 452 550 542 550 c 0
 632 550 719 630 738 750 c 1
 346 750 l 1
242 800 m 0
 242 828 264 850 292 850 c 2
 792 850 l 2
 820 850 842 828 842 800 c 0
 842 616 716 450 542 450 c 0
 368 450 242 616 242 800 c 0
159 170 m 0
 159 195 181 220 209 220 c 0
 225 220 240 212 250 198 c 2
 281 154 l 1
 306 288 411 400 552 400 c 0
 715 400 829 250 829 90 c 2
 829 0 l 2
 829 -28 807 -50 779 -50 c 0
 751 -50 729 -28 729 0 c 2
 729 90 l 2
 729 210 646 300 552 300 c 0
 458 300 375 210 375 90 c 2
 375 0 l 2
 375 -26 355 -50 325 -50 c 0
 308 -50 292 -42 283 -28 c 2
 168 142 l 2
 162 151 159 160 159 170 c 0
EndSplineSet
MultipleSubs2: "nasin-nanpa-Multiple Substitution in Latin lookup 11 subtable" mokuTok combLongGlyphExtTok
MultipleSubs2: "nasin-nanpa-Multiple Substitution in Latin lookup 10 subtable" mokuTok combCartExtTok
EndChar

StartChar: moliTok
Encoding: 65641 989495 354
Width: 1000
GlyphClass: 2
Flags: MW
HStem: -50 100<403.5 596.5 403.5 624.5> 275 250<262 281 419 438 562 581 719 738> 750 100<403.5 596.5>
VStem: 50 100<303.5 496.5 303.5 524.5> 850 100<303.5 496.5>
CounterMasks: 1 e0
LayerCount: 2
Fore
SplineSet
850 400 m 0
 850 593 693 750 500 750 c 0
 307 750 150 593 150 400 c 0
 150 207 307 50 500 50 c 0
 693 50 850 207 850 400 c 0
950 400 m 0
 950 151 749 -50 500 -50 c 0
 251 -50 50 151 50 400 c 0
 50 649 251 850 500 850 c 0
 749 850 950 649 950 400 c 0
525 475 m 0
 525 501 549 525 575 525 c 0
 587 525 600 520 610 510 c 2
 650 471 l 1
 690 510 l 2
 700 520 713 525 725 525 c 0
 751 525 775 501 775 475 c 0
 775 463 770 450 760 440 c 2
 721 400 l 1
 760 360 l 2
 770 350 775 337 775 325 c 0
 775 299 751 275 725 275 c 0
 713 275 700 280 690 290 c 2
 650 329 l 1
 610 290 l 2
 600 280 587 275 575 275 c 0
 549 275 525 299 525 325 c 0
 525 337 530 350 540 360 c 2
 579 400 l 1
 540 440 l 2
 530 450 525 463 525 475 c 0
225 475 m 0
 225 501 249 525 275 525 c 0
 287 525 300 520 310 510 c 2
 350 471 l 1
 390 510 l 2
 400 520 413 525 425 525 c 0
 451 525 475 501 475 475 c 0
 475 463 470 450 460 440 c 2
 421 400 l 1
 460 360 l 2
 470 350 475 337 475 325 c 0
 475 299 451 275 425 275 c 0
 413 275 400 280 390 290 c 2
 350 329 l 1
 310 290 l 2
 300 280 287 275 275 275 c 0
 249 275 225 299 225 325 c 0
 225 337 230 350 240 360 c 2
 279 400 l 1
 240 440 l 2
 230 450 225 463 225 475 c 0
EndSplineSet
MultipleSubs2: "nasin-nanpa-Multiple Substitution in Latin lookup 11 subtable" moliTok combLongGlyphExtTok
MultipleSubs2: "nasin-nanpa-Multiple Substitution in Latin lookup 10 subtable" moliTok combCartExtTok
EndChar

StartChar: monsiTok
Encoding: 65642 989496 355
Width: 1000
GlyphClass: 2
Flags: MW
HStem: 0 100<436 750 500 750 500 750> 325 150<254.5 295.5> 700 100<500 750 500 500>
VStem: 200 150<379.5 420.5> 400 100<100 700 100 750 100 764>
CounterMasks: 1 e0
LayerCount: 2
Fore
SplineSet
275 475 m 0
 316 475 350 441 350 400 c 0
 350 359 316 325 275 325 c 0
 234 325 200 359 200 400 c 0
 200 441 234 475 275 475 c 0
800 50 m 0
 800 22 778 0 750 0 c 2
 450 0 l 2
 422 0 400 22 400 50 c 2
 400 750 l 2
 400 778 422 800 450 800 c 2
 750 800 l 2
 778 800 800 778 800 750 c 0
 800 722 778 700 750 700 c 2
 500 700 l 1
 500 100 l 1
 750 100 l 2
 778 100 800 78 800 50 c 0
EndSplineSet
MultipleSubs2: "nasin-nanpa-Multiple Substitution in Latin lookup 11 subtable" monsiTok combLongGlyphExtTok
MultipleSubs2: "nasin-nanpa-Multiple Substitution in Latin lookup 10 subtable" monsiTok combCartExtTok
EndChar

StartChar: muTok
Encoding: 65643 989497 356
Width: 1000
GlyphClass: 2
Flags: MW
HStem: -50 100<424 576 424 603.5> 125 150<479.5 520.5> 600 100<482 518 482 576> 754 100<200.5 241.5 758.5 799.5>
VStem: 46 100<658.5 699.5 658.5 727.5> 125 100<249 358.5> 296 100 425 150<179.5 220.5> 604 100 775 100<249 358.5 221.5 401> 854 100<658.5 699.5>
LayerCount: 2
Fore
SplineSet
854 679 m 0xf3a0
 854 720 820 754 779 754 c 0
 738 754 704 720 704 679 c 0
 704 638 738 604 779 604 c 0
 820 604 854 638 854 679 c 0xf3a0
775 325 m 0xf7c0
 775 477 652 600 500 600 c 0
 348 600 225 477 225 325 c 0
 225 173 348 50 500 50 c 0
 652 50 775 173 775 325 c 0xf7c0
221 604 m 0
 262 604 296 638 296 679 c 0
 296 720 262 754 221 754 c 0
 180 754 146 720 146 679 c 0xfb80
 146 638 180 604 221 604 c 0
221 854 m 0
 316 854 393 779 396 685 c 1
 429 695 464 700 500 700 c 0
 536 700 571 695 604 685 c 1
 607 779 684 854 779 854 c 0
 876 854 954 776 954 679 c 0xfba0
 954 599 900 531 826 510 c 1
 857 455 875 392 875 325 c 0
 875 118 707 -50 500 -50 c 0
 293 -50 125 118 125 325 c 0xf7c0
 125 392 143 455 174 510 c 1
 100 531 46 599 46 679 c 0
 46 776 124 854 221 854 c 0
500 125 m 0
 459 125 425 159 425 200 c 0
 425 241 459 275 500 275 c 0
 541 275 575 241 575 200 c 0
 575 159 541 125 500 125 c 0
EndSplineSet
MultipleSubs2: "nasin-nanpa-Multiple Substitution in Latin lookup 11 subtable" muTok combLongGlyphExtTok
MultipleSubs2: "nasin-nanpa-Multiple Substitution in Latin lookup 10 subtable" muTok combCartExtTok
EndChar

StartChar: munTok
Encoding: 65644 989498 357
Width: 1000
GlyphClass: 2
Flags: MW
HStem: -50 100<390.5 499 390.5 527.5> 750 100<390.5 499>
VStem: 400 100<313 487 313 490.5> 750 100<303 497>
LayerCount: 2
Fore
SplineSet
174 785 m 0
 241 826 320 850 404 850 c 0
 651 850 850 648 850 400 c 0
 850 152 651 -50 404 -50 c 0
 320 -50 241 -26 174 15 c 0
 159 24 150 41 150 58 c 2
 150 63 l 2
 152 82 165 99 184 105 c 0
 304 143 400 219 400 400 c 0
 400 581 304 657 184 695 c 0
 165 701 152 718 150 737 c 2
 150 742 l 2
 150 759 159 776 174 785 c 0
500 400 m 0
 500 226 427 123 325 59 c 1
 351 53 377 50 404 50 c 0
 594 50 750 206 750 400 c 0
 750 594 594 750 404 750 c 0
 377 750 351 747 325 741 c 1
 427 677 500 574 500 400 c 0
EndSplineSet
MultipleSubs2: "nasin-nanpa-Multiple Substitution in Latin lookup 11 subtable" munTok combLongGlyphExtTok
MultipleSubs2: "nasin-nanpa-Multiple Substitution in Latin lookup 10 subtable" munTok combCartExtTok
EndChar

StartChar: musiTok
Encoding: 65645 989499 358
Width: 1000
GlyphClass: 2
Flags: MW
HStem: -50 100<487.5 531 487.5 547> 725 100<229.5 270.5 729.5 770.5>
VStem: 75 100<629.5 670.5 629.5 698.5> 200 100<295 482> 325 100<629.5 670.5> 575 100<629.5 670.5 629.5 698.5> 700 100<295 482> 825 100<629.5 670.5>
LayerCount: 2
Fore
SplineSet
750 575 m 0
 791 575 825 609 825 650 c 0
 825 691 791 725 750 725 c 0
 709 725 675 691 675 650 c 0
 675 609 709 575 750 575 c 0
250 575 m 0
 291 575 325 609 325 650 c 0
 325 691 291 725 250 725 c 0
 209 725 175 691 175 650 c 0
 175 609 209 575 250 575 c 0
300 482 m 1
 300 295 l 2
 300 187 354 103 426 67 c 0
 450 55 475 50 500 50 c 0
 562 50 608 81 639 119 c 0
 674 161 700 222 700 295 c 2
 700 482 l 1
 628 504 575 571 575 650 c 0
 575 747 653 825 750 825 c 0
 847 825 925 747 925 650 c 0
 925 571 872 504 800 482 c 1
 800 295 l 2
 800 196 764 112 715 54 c 0
 668 -1 594 -50 500 -50 c 0
 406 -50 332 -1 285 54 c 0
 236 112 200 196 200 295 c 2
 200 482 l 1
 128 504 75 571 75 650 c 0
 75 747 153 825 250 825 c 0
 347 825 425 747 425 650 c 0
 425 571 372 504 300 482 c 1
EndSplineSet
MultipleSubs2: "nasin-nanpa-Multiple Substitution in Latin lookup 11 subtable" musiTok combLongGlyphExtTok
MultipleSubs2: "nasin-nanpa-Multiple Substitution in Latin lookup 10 subtable" musiTok combCartExtTok
EndChar

StartChar: muteTok
Encoding: 65646 989500 359
Width: 1000
GlyphClass: 2
Flags: MW
VStem: 200 100<0 800> 450 100<10 790> 700 100<0 800>
CounterMasks: 1 e0
LayerCount: 2
Fore
SplineSet
750 -50 m 0
 722 -50 700 -28 700 0 c 2
 700 800 l 2
 700 828 722 850 750 850 c 0
 778 850 800 828 800 800 c 2
 800 0 l 2
 800 -28 778 -50 750 -50 c 0
250 -50 m 0
 222 -50 200 -28 200 0 c 2
 200 800 l 2
 200 828 222 850 250 850 c 0
 278 850 300 828 300 800 c 2
 300 0 l 2
 300 -28 278 -50 250 -50 c 0
500 -40 m 0
 472 -40 450 -18 450 10 c 2
 450 790 l 2
 450 818 472 840 500 840 c 0
 528 840 550 818 550 790 c 2
 550 10 l 2
 550 -18 528 -40 500 -40 c 0
EndSplineSet
MultipleSubs2: "nasin-nanpa-Multiple Substitution in Latin lookup 11 subtable" muteTok combLongGlyphExtTok
MultipleSubs2: "nasin-nanpa-Multiple Substitution in Latin lookup 10 subtable" muteTok combCartExtTok
EndChar

